M48
METRIC,LZ,000.000
;FILE_FORMAT=3:3
;TYPE=PLATED
;Layer: PTH_Through
;EasyEDA v6.5.34, 2023-09-27 10:23:30
;87bef9fe7c554d65b7a66a9a83d39501,21748b100a60428d983dd69a996fde11,10
;Gerber Generator version 0.2
;Holesize 1 = 0.611 mm
T01C0.611
;Holesize 2 = 0.800 mm
T02C0.800
;Holesize 3 = 0.915 mm
T03C0.915
;Holesize 4 = 1.016 mm
T04C1.016
;Holesize 5 = 1.101 mm
T05C1.101
;Holesize 6 = 3.000 mm
T06C3.000
%
G05
G90
T01
X033528Y021336
X034798Y020447
T02
X042030Y-010521G85X042030Y-009921
X042030Y-006441G85X042030Y-005641
X050680Y-006441G85X050680Y-005641
X050680Y-010521G85X050680Y-009921
X027686Y016764
X025527Y016891
X034163Y011049
X034163Y008255
X059944Y-002921
X054864Y-000127
X059817Y019177
X067437Y028702
X067437Y026289
X067437Y023876
X070739Y028702
X070739Y026289
X070739Y023876
X036322Y002032
X031115Y023622
X054864Y002159
X062738Y022352
X057277Y-004699
X018034Y004191
X018796Y016764
T03
X026797Y-004318
X022987Y-004318
X030607Y013462
X022987Y013462
X059055Y025908
X061595Y025908
X064135Y025908
X062230Y-005080
X064770Y-005080
X067310Y-005080
X069850Y-005080
T04
X025527Y-008890
X028067Y-008890
T05
X019558Y009779
X019558Y007239
X062357Y005589
X064897Y005589
X067437Y005589
X069977Y005589
X062357Y012193
X064897Y012193
X067437Y012193
X069977Y012193
X062357Y018797
X064897Y018797
X067437Y018797
X069977Y018797
X027940Y020828
X025400Y020828
X022860Y020828
X020320Y020828
X020320Y027432
X022860Y027432
X025400Y027432
X027940Y027432
X030480Y027432
T06
X020320Y033020
X020320Y-008890
X072390Y033020
X072390Y-008890
M30
