G04 Layer: TopSolderMaskLayer*
G04 EasyEDA v6.5.34, 2023-09-27 10:23:30*
G04 87bef9fe7c554d65b7a66a9a83d39501,21748b100a60428d983dd69a996fde11,10*
G04 Gerber Generator version 0.2*
G04 Scale: 100 percent, Rotated: No, Reflected: No *
G04 Dimensions in millimeters *
G04 leading zeros omitted , absolute positions ,4 integer and 5 decimal *
%FSLAX45Y45*%
%MOMM*%

%AMMACRO1*1,1,$1,$2,$3*1,1,$1,$4,$5*1,1,$1,0-$2,0-$3*1,1,$1,0-$4,0-$5*20,1,$1,$2,$3,$4,$5,0*20,1,$1,$4,$5,0-$2,0-$3,0*20,1,$1,0-$2,0-$3,0-$4,0-$5,0*20,1,$1,0-$4,0-$5,$2,$3,0*4,1,4,$2,$3,$4,$5,0-$2,0-$3,0-$4,0-$5,$2,$3,0*%
%ADD10O,1.6256000000000002X2.6416*%
%ADD11O,1.3015976000000002X1.9015964*%
%ADD12O,1.3015976000000002X2.1015960000000002*%
%ADD13MACRO1,0.1016X1.2X-1.05X-1.2X-1.05*%
%ADD14MACRO1,0.1016X-1.2X1.05X1.2X1.05*%
%ADD15MACRO1,0.1016X-0.6X0.75X0.6X0.75*%
%ADD16MACRO1,0.1016X-0.6885X0.5663X0.6885X0.5663*%
%ADD17MACRO1,0.1016X-0.6885X-0.5663X0.6885X-0.5663*%
%ADD18MACRO1,0.1016X0.45X0.4X0.45X-0.4*%
%ADD19C,1.9016*%
%ADD20C,1.7016*%
%ADD21C,1.7272*%
%ADD22MACRO1,0.1016X0.9X-0.9X-0.9X-0.9*%
%ADD23MACRO1,0.1016X0.675X-0.705X-0.675X-0.705*%
%ADD24MACRO1,0.1016X0.675X0.705X-0.675X0.705*%
%ADD25MACRO1,0.1016X-0.49X-1.235X0.49X-1.235*%
%ADD26MACRO1,0.1016X1.8X-1.235X-1.8X-1.235*%
%ADD27MACRO1,0.1016X-0.9X0.5004X0.9X0.5004*%
%ADD28MACRO1,0.1016X-0.5004X-0.9X-0.5004X0.9*%
%ADD29MACRO1,0.1016X-2X2X2X2*%
%ADD30O,1.6015970000000002X3.101594*%
%ADD31C,4.6016*%
%ADD32C,1.3016*%

%LPD*%
D10*
G01*
X2679700Y-431800D03*
G01*
X2298700Y-431800D03*
G01*
X3060700Y1346200D03*
G01*
X2298700Y1346200D03*
D11*
G01*
X4202988Y-1022095D03*
D12*
G01*
X4202988Y-604113D03*
G01*
X5068011Y-604113D03*
D11*
G01*
X5068011Y-1022095D03*
D13*
G01*
X3962196Y-825500D03*
G01*
X3302203Y-825500D03*
D14*
G01*
X5296103Y-825500D03*
G01*
X5956096Y-825500D03*
D15*
G01*
X6763410Y-38100D03*
G01*
X7003389Y-38100D03*
D16*
G01*
X3784600Y3214695D03*
D17*
G01*
X3784600Y3414704D03*
D18*
G01*
X3505200Y3244700D03*
G01*
X3505200Y3384699D03*
D19*
G01*
X1955800Y977900D03*
G01*
X1955800Y723900D03*
D20*
G01*
X6235700Y558927D03*
G01*
X6489700Y558927D03*
G01*
X6743700Y558927D03*
G01*
X6997700Y558927D03*
G01*
X6235700Y1219327D03*
G01*
X6489700Y1219327D03*
G01*
X6743700Y1219327D03*
G01*
X6997700Y1219327D03*
G01*
X6235700Y1879727D03*
G01*
X6489700Y1879727D03*
G01*
X6743700Y1879727D03*
G01*
X6997700Y1879727D03*
G01*
X2794000Y2082800D03*
G01*
X2540000Y2082800D03*
G01*
X2286000Y2082800D03*
G01*
X2032000Y2082800D03*
D21*
G01*
X5905500Y2590800D03*
G01*
X6159500Y2590800D03*
G01*
X6413500Y2590800D03*
D19*
G01*
X2032000Y2743200D03*
G01*
X2286000Y2743200D03*
G01*
X2540000Y2743200D03*
G01*
X2794000Y2743200D03*
D22*
G01*
X3048000Y2743200D03*
D23*
G01*
X3175000Y354002D03*
D24*
G01*
X3175000Y153997D03*
D23*
G01*
X2146300Y315902D03*
D24*
G01*
X2146300Y115897D03*
D25*
G01*
X2475099Y-4099D03*
G01*
X2705100Y-4099D03*
G01*
X2935100Y-4099D03*
D26*
G01*
X2705100Y562899D03*
D27*
G01*
X3674244Y1794738D03*
G01*
X3674244Y1667738D03*
G01*
X3674244Y1540738D03*
G01*
X3674244Y1413738D03*
G01*
X3674244Y1286738D03*
G01*
X3674244Y1159738D03*
G01*
X3674244Y1032738D03*
G01*
X3674244Y905738D03*
D28*
G01*
X5133339Y389663D03*
D27*
G01*
X5444355Y524738D03*
G01*
X5444355Y651738D03*
G01*
X5444355Y778738D03*
G01*
X5444355Y905738D03*
G01*
X5444355Y1032738D03*
G01*
X5444355Y1159738D03*
G01*
X5444355Y1286738D03*
D28*
G01*
X4244339Y389663D03*
D27*
G01*
X3674244Y778738D03*
G01*
X3674244Y651738D03*
G01*
X3674244Y524738D03*
D28*
G01*
X3990339Y389663D03*
G01*
X4117339Y389663D03*
D27*
G01*
X3674244Y1921738D03*
G01*
X3674244Y2048738D03*
G01*
X3674244Y2175738D03*
D28*
G01*
X4371339Y389663D03*
G01*
X4498339Y389663D03*
G01*
X4625339Y389663D03*
G01*
X5006339Y389663D03*
G01*
X4879339Y389663D03*
G01*
X4752339Y389663D03*
D27*
G01*
X5444355Y1413738D03*
G01*
X5444355Y1540738D03*
G01*
X5444355Y1667738D03*
G01*
X5444355Y1794738D03*
G01*
X5444355Y1921738D03*
G01*
X5444355Y2048738D03*
G01*
X5444355Y2175738D03*
D29*
G01*
X4489279Y1434678D03*
D30*
G01*
X6223000Y-508000D03*
G01*
X6477000Y-508000D03*
G01*
X6731000Y-508000D03*
G01*
X6985000Y-508000D03*
G01*
X2552700Y-889000D03*
G01*
X2806700Y-889000D03*
D20*
G01*
X2768600Y1676400D03*
G01*
X2552700Y1689100D03*
G01*
X3416300Y1104900D03*
G01*
X3416300Y825500D03*
G01*
X5994400Y-292100D03*
G01*
X5486400Y-12700D03*
G01*
X5981700Y1917700D03*
G01*
X6743700Y2870200D03*
G01*
X6743700Y2628900D03*
G01*
X6743700Y2387600D03*
G01*
X7073900Y2870200D03*
G01*
X7073900Y2628900D03*
G01*
X7073900Y2387600D03*
D31*
G01*
X2032000Y3302000D03*
G01*
X2032000Y-889000D03*
G01*
X7239000Y3302000D03*
G01*
X7239000Y-889000D03*
D20*
G01*
X3632200Y203200D03*
G01*
X3111500Y2362200D03*
G01*
X5486400Y215900D03*
G01*
X6273800Y2235200D03*
D32*
G01*
X3352800Y2133600D03*
G01*
X3479800Y2044700D03*
D20*
G01*
X5727700Y-469900D03*
G01*
X1803400Y419100D03*
G01*
X1879600Y1676400D03*
M02*
