G04 Layer: TopPasteMaskLayer*
G04 EasyEDA v6.5.34, 2023-09-27 10:23:30*
G04 87bef9fe7c554d65b7a66a9a83d39501,21748b100a60428d983dd69a996fde11,10*
G04 Gerber Generator version 0.2*
G04 Scale: 100 percent, Rotated: No, Reflected: No *
G04 Dimensions in millimeters *
G04 leading zeros omitted , absolute positions ,4 integer and 5 decimal *
%FSLAX45Y45*%
%MOMM*%

%AMMACRO1*21,1,$1,$2,0,0,$3*%
%ADD10R,2.4000X2.1001*%
%ADD11R,1.2000X1.5000*%
%ADD12R,0.9000X0.8000*%
%ADD13R,0.9800X2.4700*%
%ADD14MACRO1,3.6X2.47X0.0000*%
%ADD15R,1.8000X1.0008*%
%ADD16R,1.0008X1.8000*%
%ADD17R,4.0000X4.0000*%

%LPD*%
G36*
X3720592Y3484727D02*
G01*
X3715613Y3479698D01*
X3715613Y3364687D01*
X3720592Y3359708D01*
X3762603Y3360216D01*
X3762603Y3404209D01*
X3807612Y3404209D01*
X3807612Y3359200D01*
X3848608Y3359708D01*
X3853586Y3364687D01*
X3853586Y3479698D01*
X3848608Y3484727D01*
G37*
G36*
X3720592Y3269691D02*
G01*
X3715613Y3264712D01*
X3715613Y3149701D01*
X3720592Y3144723D01*
X3848608Y3144723D01*
X3853586Y3149701D01*
X3853586Y3264712D01*
X3848608Y3269691D01*
X3807612Y3269183D01*
X3807612Y3225190D01*
X3762603Y3225190D01*
X3762603Y3269691D01*
G37*
G36*
X3150006Y211988D02*
G01*
X3109010Y211480D01*
X3103981Y206502D01*
X3103981Y91490D01*
X3109010Y86512D01*
X3236976Y86512D01*
X3242005Y91490D01*
X3242005Y206502D01*
X3236976Y211480D01*
X3195015Y211023D01*
X3195015Y166979D01*
X3150006Y166979D01*
G37*
G36*
X3109010Y426516D02*
G01*
X3103981Y421487D01*
X3103981Y306476D01*
X3109010Y301498D01*
X3150006Y302006D01*
X3150006Y345998D01*
X3195015Y345998D01*
X3195015Y301498D01*
X3236976Y301498D01*
X3242005Y306476D01*
X3242005Y421487D01*
X3236976Y426516D01*
G37*
G36*
X2121306Y173888D02*
G01*
X2080310Y173380D01*
X2075281Y168402D01*
X2075281Y53390D01*
X2080310Y48412D01*
X2208276Y48412D01*
X2213305Y53390D01*
X2213305Y168402D01*
X2208276Y173380D01*
X2166315Y172923D01*
X2166315Y128879D01*
X2121306Y128879D01*
G37*
G36*
X2080310Y388416D02*
G01*
X2075281Y383387D01*
X2075281Y268376D01*
X2080310Y263398D01*
X2121306Y263906D01*
X2121306Y307898D01*
X2166315Y307898D01*
X2166315Y263398D01*
X2208276Y263398D01*
X2213305Y268376D01*
X2213305Y383387D01*
X2208276Y388416D01*
G37*
D10*
G01*
X3962196Y-825500D03*
G01*
X3302203Y-825500D03*
G01*
X5296103Y-825500D03*
G01*
X5956096Y-825500D03*
D11*
G01*
X6763410Y-38100D03*
G01*
X7003389Y-38100D03*
D12*
G01*
X3505200Y3244697D03*
G01*
X3505200Y3384702D03*
D13*
G01*
X2475102Y-4089D03*
G01*
X2705100Y-4089D03*
G01*
X2935097Y-4089D03*
D14*
G01*
X2705100Y562899D03*
D15*
G01*
X3674236Y1794738D03*
G01*
X3674236Y1667738D03*
G01*
X3674236Y1540738D03*
G01*
X3674236Y1413738D03*
G01*
X3674236Y1286738D03*
G01*
X3674236Y1159738D03*
G01*
X3674236Y1032738D03*
G01*
X3674236Y905738D03*
D16*
G01*
X5133340Y389661D03*
D15*
G01*
X5444363Y524738D03*
G01*
X5444363Y651738D03*
G01*
X5444363Y778738D03*
G01*
X5444363Y905738D03*
G01*
X5444363Y1032738D03*
G01*
X5444363Y1159738D03*
G01*
X5444363Y1286738D03*
D16*
G01*
X4244340Y389661D03*
D15*
G01*
X3674236Y778738D03*
G01*
X3674236Y651738D03*
G01*
X3674236Y524738D03*
D16*
G01*
X3990340Y389661D03*
G01*
X4117340Y389661D03*
D15*
G01*
X3674236Y1921738D03*
G01*
X3674236Y2048738D03*
G01*
X3674236Y2175738D03*
D16*
G01*
X4371340Y389661D03*
G01*
X4498340Y389661D03*
G01*
X4625340Y389661D03*
G01*
X5006340Y389661D03*
G01*
X4879340Y389661D03*
G01*
X4752340Y389661D03*
D15*
G01*
X5444363Y1413738D03*
G01*
X5444363Y1540738D03*
G01*
X5444363Y1667738D03*
G01*
X5444363Y1794738D03*
G01*
X5444363Y1921738D03*
G01*
X5444363Y2048738D03*
G01*
X5444363Y2175738D03*
D17*
G01*
X4489272Y1434668D03*
M02*
