G04 Layer: TopSilkscreenLayer*
G04 EasyEDA v6.5.34, 2023-09-27 10:23:30*
G04 87bef9fe7c554d65b7a66a9a83d39501,21748b100a60428d983dd69a996fde11,10*
G04 Gerber Generator version 0.2*
G04 Scale: 100 percent, Rotated: No, Reflected: No *
G04 Dimensions in millimeters *
G04 leading zeros omitted , absolute positions ,4 integer and 5 decimal *
%FSLAX45Y45*%
%MOMM*%

%ADD10C,0.2032*%
%ADD11C,0.2300*%
%ADD12C,0.1524*%
%ADD13C,0.1500*%
%ADD14C,0.1001*%
%ADD15C,0.1520*%
%ADD16C,0.2540*%
%ADD17C,0.4000*%
%ADD18C,0.0117*%

%LPD*%
G36*
X4511395Y3505606D02*
G01*
X4509820Y3505504D01*
X4507179Y3504895D01*
X4503369Y3502914D01*
X4498644Y3498443D01*
X4495292Y3492804D01*
X4492650Y3486099D01*
X4491228Y3479393D01*
X4499914Y3479393D01*
X4500930Y3487115D01*
X4502658Y3491890D01*
X4505096Y3494938D01*
X4509312Y3497834D01*
X4511954Y3497579D01*
X4513732Y3494532D01*
X4513986Y3482340D01*
X4512665Y3474618D01*
X4509973Y3469132D01*
X4507433Y3467303D01*
X4504537Y3466846D01*
X4501896Y3469081D01*
X4500473Y3473653D01*
X4499914Y3479393D01*
X4491228Y3479393D01*
X4491583Y3470605D01*
X4493818Y3465829D01*
X4496206Y3462985D01*
X4500676Y3460648D01*
X4507179Y3460648D01*
X4512310Y3463036D01*
X4517644Y3468471D01*
X4520844Y3474974D01*
X4522571Y3482340D01*
X4523130Y3488486D01*
X4522165Y3494735D01*
X4520336Y3499713D01*
X4515459Y3504590D01*
G37*
G36*
X4419650Y3505250D02*
G01*
X4418228Y3502406D01*
X4416653Y3497834D01*
X4414316Y3484118D01*
X4412234Y3475888D01*
X4409744Y3470605D01*
X4407509Y3468268D01*
X4405122Y3467658D01*
X4402988Y3468878D01*
X4401159Y3471316D01*
X4400854Y3479037D01*
X4402328Y3488334D01*
X4405274Y3500424D01*
X4405274Y3503676D01*
X4404258Y3504742D01*
X4401210Y3504742D01*
X4397502Y3500882D01*
X4396130Y3496259D01*
X4394758Y3488029D01*
X4394403Y3467557D01*
X4395927Y3463239D01*
X4398772Y3461359D01*
X4404918Y3460343D01*
X4410303Y3460902D01*
X4414621Y3463239D01*
X4417771Y3467760D01*
X4420514Y3476091D01*
X4422749Y3488893D01*
X4422902Y3502355D01*
X4421581Y3504946D01*
G37*
G36*
X4356709Y3505149D02*
G01*
X4353763Y3505098D01*
X4351629Y3504437D01*
X4348835Y3503015D01*
X4346651Y3499307D01*
X4344639Y3489045D01*
X4354423Y3489045D01*
X4354423Y3493465D01*
X4356201Y3496868D01*
X4358589Y3498189D01*
X4360824Y3498240D01*
X4363161Y3496411D01*
X4364583Y3493668D01*
X4364583Y3488893D01*
X4363161Y3486150D01*
X4360824Y3484321D01*
X4358741Y3484321D01*
X4356201Y3485642D01*
X4354423Y3489045D01*
X4344639Y3489045D01*
X4341469Y3470605D01*
X4340860Y3463544D01*
X4341876Y3460394D01*
X4344060Y3459886D01*
X4346702Y3462375D01*
X4348683Y3466287D01*
X4350918Y3473653D01*
X4353153Y3476701D01*
X4354474Y3477412D01*
X4355947Y3476904D01*
X4357979Y3473907D01*
X4361383Y3464204D01*
X4363618Y3461258D01*
X4366107Y3459987D01*
X4367987Y3459987D01*
X4369663Y3460851D01*
X4369663Y3464153D01*
X4366158Y3474110D01*
X4366158Y3478326D01*
X4369104Y3481070D01*
X4373067Y3483864D01*
X4375454Y3487928D01*
X4375454Y3493211D01*
X4373372Y3497579D01*
X4369308Y3501644D01*
X4364228Y3504184D01*
X4359605Y3505149D01*
G37*
G36*
X4456125Y3505149D02*
G01*
X4454194Y3505098D01*
X4451654Y3504336D01*
X4449216Y3501999D01*
X4447032Y3496716D01*
X4445304Y3489756D01*
X4444523Y3485743D01*
X4451807Y3485743D01*
X4451807Y3487724D01*
X4454042Y3494074D01*
X4456328Y3496564D01*
X4458106Y3497275D01*
X4459224Y3497326D01*
X4462119Y3496106D01*
X4464456Y3492195D01*
X4464964Y3487369D01*
X4463542Y3485235D01*
X4460392Y3484219D01*
X4453128Y3484575D01*
X4451807Y3485743D01*
X4444523Y3485743D01*
X4442256Y3474110D01*
X4441037Y3465677D01*
X4441748Y3461054D01*
X4443272Y3459987D01*
X4444339Y3459987D01*
X4447032Y3462680D01*
X4448657Y3465829D01*
X4450486Y3472027D01*
X4452975Y3475482D01*
X4456328Y3477056D01*
X4463084Y3477717D01*
X4467656Y3479850D01*
X4473041Y3484829D01*
X4475683Y3490112D01*
X4475683Y3494227D01*
X4472889Y3497630D01*
X4468977Y3500831D01*
X4463237Y3503828D01*
X4458106Y3505149D01*
G37*
G36*
X4311650Y3505098D02*
G01*
X4307484Y3504387D01*
X4303369Y3502406D01*
X4297984Y3496970D01*
X4294428Y3489655D01*
X4292244Y3481070D01*
X4292549Y3470198D01*
X4294784Y3465423D01*
X4298137Y3462121D01*
X4302048Y3460242D01*
X4307382Y3459886D01*
X4312513Y3461359D01*
X4316933Y3464255D01*
X4320082Y3468065D01*
X4322216Y3472789D01*
X4323232Y3478987D01*
X4321810Y3481984D01*
X4318355Y3483965D01*
X4313783Y3484422D01*
X4309922Y3483356D01*
X4307078Y3480511D01*
X4307078Y3478276D01*
X4308144Y3477564D01*
X4310684Y3476701D01*
X4312259Y3474516D01*
X4312767Y3471062D01*
X4310735Y3468014D01*
X4307281Y3466896D01*
X4304487Y3467404D01*
X4301947Y3469487D01*
X4300524Y3474567D01*
X4300575Y3481476D01*
X4301896Y3487064D01*
X4304385Y3492347D01*
X4307586Y3496056D01*
X4310075Y3497326D01*
X4313275Y3497326D01*
X4318711Y3491687D01*
X4320844Y3491687D01*
X4322216Y3493211D01*
X4322826Y3496462D01*
X4321759Y3500729D01*
X4319016Y3503371D01*
X4315917Y3504692D01*
G37*
G36*
X5005120Y3435705D02*
G01*
X4998364Y3429355D01*
X4986070Y3415284D01*
X4966004Y3390239D01*
X4915712Y3324402D01*
X4848098Y3235096D01*
X4824374Y3203346D01*
X4809388Y3182924D01*
X4790490Y3156407D01*
X4784191Y3146552D01*
X4782972Y3143656D01*
X4785766Y3142742D01*
X4795316Y3141827D01*
X4814011Y3141014D01*
X4869230Y3140049D01*
X4973929Y3140456D01*
X4986528Y3141421D01*
X4991760Y3142335D01*
X4996891Y3143758D01*
X5000244Y3146907D01*
X5000244Y3150108D01*
X4998212Y3155543D01*
X4986883Y3177133D01*
X4985258Y3179267D01*
X4955692Y3180486D01*
X4862169Y3183686D01*
X4862068Y3183839D01*
X4923993Y3266846D01*
X4930749Y3276142D01*
X4963464Y3319373D01*
X4977841Y3338068D01*
X4986375Y3348736D01*
X4986731Y3348736D01*
X4988153Y3345434D01*
X4995519Y3323742D01*
X5007000Y3286556D01*
X5035499Y3191611D01*
X5051399Y3142284D01*
X5051806Y3141878D01*
X5078272Y3140557D01*
X5089906Y3140557D01*
X5095392Y3141522D01*
X5097576Y3143554D01*
X5097576Y3146247D01*
X5095341Y3155086D01*
X5087112Y3183991D01*
X5076240Y3220720D01*
X5011978Y3430574D01*
X5009692Y3433876D01*
X5007610Y3435248D01*
G37*
G36*
X4319473Y3421634D02*
G01*
X4293362Y3420922D01*
X4282084Y3419551D01*
X4278833Y3418636D01*
X4276699Y3416757D01*
X4274515Y3408476D01*
X4265320Y3369360D01*
X4229303Y3210712D01*
X4215384Y3147009D01*
X4215384Y3144570D01*
X4216908Y3143250D01*
X4220362Y3142335D01*
X4228642Y3141421D01*
X4246422Y3140506D01*
X4444593Y3140049D01*
X4449165Y3152089D01*
X4450435Y3157270D01*
X4451350Y3163620D01*
X4451908Y3178352D01*
X4339437Y3178352D01*
X4292955Y3179216D01*
X4275582Y3180130D01*
X4270552Y3180842D01*
X4269638Y3181756D01*
X4271924Y3194202D01*
X4278426Y3225088D01*
X4291076Y3282035D01*
X4313580Y3380028D01*
X4441139Y3380028D01*
X4475886Y3380892D01*
X4488942Y3381806D01*
X4496765Y3383076D01*
X4499305Y3384550D01*
X4501896Y3389731D01*
X4504842Y3398469D01*
X4506925Y3406749D01*
X4508296Y3414471D01*
X4508296Y3419551D01*
X4506620Y3420414D01*
X4479798Y3421329D01*
G37*
G36*
X4609744Y3421634D02*
G01*
X4584547Y3420973D01*
X4568901Y3419957D01*
X4563262Y3418992D01*
X4560925Y3417824D01*
X4503420Y3178149D01*
X4498340Y3155086D01*
X4496511Y3144875D01*
X4497628Y3142488D01*
X4500930Y3140913D01*
X4513275Y3140456D01*
X4539742Y3141878D01*
X4540351Y3142488D01*
X4556048Y3206800D01*
X4589627Y3346348D01*
X4598111Y3383279D01*
X4724044Y3383229D01*
X4736947Y3382162D01*
X4743602Y3380790D01*
X4749241Y3378047D01*
X4757115Y3370224D01*
X4760366Y3364585D01*
X4762550Y3357727D01*
X4763465Y3351123D01*
X4762906Y3343706D01*
X4761585Y3338118D01*
X4759807Y3332835D01*
X4756048Y3325368D01*
X4750003Y3316325D01*
X4744262Y3309721D01*
X4738420Y3305403D01*
X4734458Y3303117D01*
X4728718Y3300933D01*
X4721707Y3299155D01*
X4710176Y3297478D01*
X4676698Y3295192D01*
X4669891Y3294024D01*
X4666691Y3292348D01*
X4665878Y3290062D01*
X4667808Y3283305D01*
X4677460Y3256381D01*
X4688738Y3226358D01*
X4705654Y3180384D01*
X4746142Y3065373D01*
X5210352Y3065576D01*
X5213604Y3082086D01*
X5215432Y3089452D01*
X5215077Y3094431D01*
X5213400Y3096310D01*
X5209184Y3098444D01*
X5201666Y3100070D01*
X5192572Y3100984D01*
X5173014Y3102051D01*
X5090414Y3101898D01*
X5017414Y3100984D01*
X4778756Y3098850D01*
X4734306Y3230270D01*
X4729530Y3245510D01*
X4727295Y3254095D01*
X4727346Y3258108D01*
X4727956Y3259124D01*
X4738522Y3262629D01*
X4749698Y3267506D01*
X4757013Y3271469D01*
X4765852Y3277006D01*
X4773726Y3282899D01*
X4782718Y3290874D01*
X4788712Y3297478D01*
X4795875Y3307232D01*
X4799888Y3314242D01*
X4803800Y3323539D01*
X4806391Y3331362D01*
X4808524Y3339795D01*
X4809896Y3348736D01*
X4810455Y3359353D01*
X4809439Y3369767D01*
X4807712Y3377641D01*
X4805426Y3384550D01*
X4802073Y3391662D01*
X4796688Y3399790D01*
X4787950Y3408527D01*
X4781804Y3412490D01*
X4774895Y3415995D01*
X4766208Y3418738D01*
X4753610Y3420414D01*
X4735779Y3421379D01*
G37*
G36*
X4388104Y3306572D02*
G01*
X4347260Y3306419D01*
X4334662Y3305810D01*
X4327702Y3304743D01*
X4324553Y3303117D01*
X4323638Y3299358D01*
X4322267Y3289147D01*
X4321302Y3267405D01*
X4321657Y3267049D01*
X4405071Y3265728D01*
X4445508Y3265728D01*
X4456023Y3266541D01*
X4462780Y3267964D01*
X4466691Y3269792D01*
X4469688Y3272790D01*
X4471365Y3276498D01*
X4472584Y3284626D01*
X4474108Y3304844D01*
X4473702Y3305251D01*
G37*
G36*
X2237740Y1811172D02*
G01*
X2117699Y1810918D01*
X2098548Y1810410D01*
X2088642Y1809953D01*
X2078583Y1808784D01*
X2073046Y1807514D01*
X2062073Y1803755D01*
X2055418Y1800910D01*
X2049525Y1797862D01*
X2044446Y1794916D01*
X2038807Y1791055D01*
X2034133Y1787398D01*
X2028647Y1782622D01*
X2021382Y1775104D01*
X2016404Y1769160D01*
X2012086Y1763268D01*
X2007920Y1756664D01*
X2004517Y1750415D01*
X2000656Y1741576D01*
X1997303Y1731924D01*
X1995576Y1725117D01*
X1994154Y1717344D01*
X1993087Y1709166D01*
X1992838Y1698040D01*
X2019249Y1698040D01*
X2019503Y1707845D01*
X2020214Y1713484D01*
X2021484Y1720088D01*
X2023008Y1725777D01*
X2025497Y1732788D01*
X2029206Y1740509D01*
X2032000Y1745335D01*
X2035302Y1750161D01*
X2038705Y1754581D01*
X2043226Y1759661D01*
X2048306Y1764385D01*
X2052828Y1767992D01*
X2056638Y1770634D01*
X2062480Y1774139D01*
X2069033Y1777238D01*
X2077872Y1780590D01*
X2082495Y1781759D01*
X2087778Y1782470D01*
X2103374Y1783435D01*
X2215743Y1783638D01*
X2334006Y1783130D01*
X2357780Y1782724D01*
X2364232Y1782267D01*
X2370988Y1779828D01*
X2377135Y1777187D01*
X2383840Y1773631D01*
X2388768Y1770227D01*
X2392934Y1766773D01*
X2397302Y1762607D01*
X2401062Y1758289D01*
X2405024Y1752752D01*
X2407869Y1748028D01*
X2411018Y1741678D01*
X2413254Y1735785D01*
X2415082Y1729689D01*
X2416352Y1718310D01*
X2416352Y1710029D01*
X2415895Y1704187D01*
X2415235Y1698955D01*
X2413660Y1692605D01*
X2411476Y1686458D01*
X2408377Y1679956D01*
X2404516Y1673961D01*
X2401519Y1670100D01*
X2396642Y1664614D01*
X2391765Y1659940D01*
X2386787Y1655825D01*
X2382621Y1652981D01*
X2377744Y1650187D01*
X2374036Y1648612D01*
X2368550Y1646631D01*
X2363724Y1645462D01*
X2354072Y1644091D01*
X2341067Y1643329D01*
X2340762Y1643024D01*
X2338324Y1630629D01*
X2336749Y1624228D01*
X2334768Y1617370D01*
X2330602Y1606499D01*
X2327554Y1600098D01*
X2324201Y1594002D01*
X2318308Y1584909D01*
X2314092Y1579422D01*
X2309774Y1574444D01*
X2304135Y1568754D01*
X2299512Y1564690D01*
X2294890Y1560982D01*
X2286203Y1555089D01*
X2279294Y1551127D01*
X2268575Y1546148D01*
X2259838Y1543100D01*
X2249474Y1540510D01*
X2244191Y1539595D01*
X2234742Y1538579D01*
X2223617Y1538427D01*
X2217928Y1538884D01*
X2211324Y1539798D01*
X2201672Y1541830D01*
X2195525Y1543608D01*
X2188311Y1546148D01*
X2181860Y1548942D01*
X2176170Y1551736D01*
X2169769Y1555496D01*
X2164740Y1558950D01*
X2159000Y1563319D01*
X2154377Y1567332D01*
X2148281Y1573276D01*
X2143048Y1579168D01*
X2139035Y1584401D01*
X2134717Y1590598D01*
X2129840Y1598980D01*
X2125116Y1608988D01*
X2121001Y1618742D01*
X2120646Y1619148D01*
X2115464Y1618437D01*
X2109673Y1617929D01*
X2088438Y1618132D01*
X2082647Y1618843D01*
X2079650Y1619554D01*
X2073249Y1621637D01*
X2068017Y1623822D01*
X2062073Y1626768D01*
X2056587Y1630172D01*
X2051862Y1633575D01*
X2047544Y1637131D01*
X2042261Y1642211D01*
X2037334Y1648053D01*
X2034539Y1651914D01*
X2031441Y1656689D01*
X2028443Y1662175D01*
X2025700Y1668068D01*
X2023262Y1674774D01*
X2021535Y1681073D01*
X2020417Y1686712D01*
X2019757Y1691487D01*
X2019249Y1698040D01*
X1992838Y1698040D01*
X1993798Y1686356D01*
X1995982Y1673961D01*
X1998167Y1666239D01*
X2000199Y1660347D01*
X2002789Y1654098D01*
X2005888Y1647698D01*
X2012137Y1637385D01*
X2015896Y1632153D01*
X2020265Y1626717D01*
X2029104Y1617624D01*
X2034793Y1612798D01*
X2044242Y1605940D01*
X2050135Y1602486D01*
X2057349Y1598930D01*
X2062683Y1596745D01*
X2068017Y1594866D01*
X2075688Y1592732D01*
X2082800Y1591360D01*
X2090623Y1590497D01*
X2104491Y1589735D01*
X2110587Y1578965D01*
X2115312Y1571650D01*
X2120036Y1565148D01*
X2124456Y1559712D01*
X2129536Y1554073D01*
X2136800Y1546961D01*
X2141880Y1542643D01*
X2148941Y1537106D01*
X2157171Y1531670D01*
X2165858Y1526641D01*
X2173732Y1522831D01*
X2180590Y1519936D01*
X2190242Y1516634D01*
X2199030Y1514348D01*
X2204669Y1513179D01*
X2210460Y1512316D01*
X2223008Y1511147D01*
X2234438Y1511249D01*
X2242769Y1511858D01*
X2250694Y1512976D01*
X2258618Y1514551D01*
X2266340Y1516583D01*
X2272893Y1518716D01*
X2279040Y1521002D01*
X2285796Y1523898D01*
X2294432Y1528419D01*
X2300630Y1532128D01*
X2306116Y1535836D01*
X2313838Y1541780D01*
X2318207Y1545488D01*
X2326995Y1553768D01*
X2333447Y1561033D01*
X2341422Y1571244D01*
X2346198Y1578508D01*
X2349246Y1584198D01*
X2354478Y1595374D01*
X2359050Y1606245D01*
X2362047Y1615694D01*
X2363012Y1617116D01*
X2364384Y1617675D01*
X2368550Y1618437D01*
X2374696Y1620012D01*
X2379522Y1621637D01*
X2385009Y1623923D01*
X2391206Y1626870D01*
X2396896Y1630172D01*
X2402636Y1633931D01*
X2407462Y1637588D01*
X2411831Y1641398D01*
X2416810Y1646174D01*
X2421026Y1651254D01*
X2425344Y1656943D01*
X2429510Y1663496D01*
X2432304Y1668525D01*
X2435453Y1675333D01*
X2437536Y1680768D01*
X2439416Y1686763D01*
X2440990Y1693062D01*
X2442108Y1699310D01*
X2442870Y1705102D01*
X2442870Y1721256D01*
X2441194Y1732991D01*
X2439416Y1740306D01*
X2436876Y1748282D01*
X2433116Y1756867D01*
X2429256Y1764182D01*
X2425547Y1770075D01*
X2421686Y1775307D01*
X2416657Y1780997D01*
X2407666Y1789328D01*
X2401722Y1794002D01*
X2394661Y1798675D01*
X2390698Y1800961D01*
X2385263Y1803450D01*
X2379014Y1805635D01*
X2370632Y1808124D01*
X2360676Y1810207D01*
X2345029Y1810613D01*
G37*
G36*
X2157171Y1752955D02*
G01*
X2125065Y1752447D01*
X2125065Y1742490D01*
X2140559Y1741525D01*
X2140712Y1741373D01*
X2137714Y1738884D01*
X2130450Y1733550D01*
X2126996Y1730095D01*
X2126132Y1728368D01*
X2125472Y1725320D01*
X2125472Y1720545D01*
X2126132Y1717395D01*
X2127402Y1714601D01*
X2129688Y1712264D01*
X2133295Y1710436D01*
X2136800Y1709470D01*
X2143404Y1709318D01*
X2146757Y1709978D01*
X2149551Y1711045D01*
X2152853Y1712772D01*
X2157374Y1715719D01*
X2150059Y1723593D01*
X2146096Y1720850D01*
X2143201Y1719427D01*
X2140051Y1719427D01*
X2138781Y1720392D01*
X2137968Y1721815D01*
X2137918Y1724406D01*
X2138832Y1726234D01*
X2141474Y1728774D01*
X2149144Y1733448D01*
X2152294Y1735683D01*
X2153920Y1737309D01*
X2155393Y1740560D01*
X2156510Y1744624D01*
X2157171Y1748434D01*
G37*
G36*
X2272030Y1737563D02*
G01*
X2267407Y1737004D01*
X2262124Y1735886D01*
X2256942Y1734057D01*
X2252878Y1731975D01*
X2250084Y1729943D01*
X2247138Y1727200D01*
X2243683Y1723136D01*
X2241804Y1720138D01*
X2241804Y1719122D01*
X2243683Y1717548D01*
X2250033Y1713331D01*
X2255215Y1710436D01*
X2255824Y1710436D01*
X2257196Y1711655D01*
X2259380Y1714906D01*
X2262073Y1717446D01*
X2266086Y1719529D01*
X2269591Y1720443D01*
X2273655Y1720748D01*
X2277059Y1720138D01*
X2279548Y1719122D01*
X2282748Y1716989D01*
X2286152Y1713433D01*
X2288133Y1710537D01*
X2289708Y1707591D01*
X2290978Y1703730D01*
X2291791Y1699412D01*
X2291791Y1692605D01*
X2291080Y1688490D01*
X2289759Y1684375D01*
X2288133Y1681022D01*
X2286355Y1678279D01*
X2283256Y1675079D01*
X2280615Y1673453D01*
X2278329Y1672539D01*
X2274671Y1671726D01*
X2269185Y1671980D01*
X2265222Y1673199D01*
X2261819Y1675079D01*
X2259634Y1677060D01*
X2256942Y1680870D01*
X2255977Y1681581D01*
X2255164Y1681581D01*
X2250033Y1678127D01*
X2242667Y1672437D01*
X2242667Y1671472D01*
X2243886Y1669338D01*
X2246630Y1665732D01*
X2250490Y1661871D01*
X2253945Y1659483D01*
X2257958Y1657502D01*
X2262124Y1656080D01*
X2267102Y1655013D01*
X2272792Y1654657D01*
X2278380Y1654962D01*
X2281936Y1655724D01*
X2286101Y1657096D01*
X2290978Y1659483D01*
X2294788Y1662074D01*
X2299563Y1666849D01*
X2302662Y1670557D01*
X2305608Y1675130D01*
X2307691Y1679651D01*
X2309063Y1683969D01*
X2309926Y1688490D01*
X2310434Y1695145D01*
X2309926Y1701698D01*
X2308860Y1707134D01*
X2307082Y1712620D01*
X2304542Y1717802D01*
X2302408Y1721256D01*
X2299411Y1725117D01*
X2294890Y1729638D01*
X2290267Y1732889D01*
X2285695Y1735226D01*
X2281834Y1736547D01*
X2277973Y1737258D01*
G37*
G36*
X2197252Y1737309D02*
G01*
X2192426Y1736801D01*
X2188464Y1735937D01*
X2184501Y1734464D01*
X2180793Y1732483D01*
X2176830Y1729536D01*
X2172716Y1725625D01*
X2169160Y1721256D01*
X2166366Y1716836D01*
X2164384Y1712722D01*
X2162911Y1708048D01*
X2161997Y1703527D01*
X2161540Y1698802D01*
X2161540Y1696466D01*
X2180488Y1696466D01*
X2180894Y1703273D01*
X2181707Y1706473D01*
X2183434Y1710537D01*
X2185924Y1714449D01*
X2188972Y1717395D01*
X2191664Y1719122D01*
X2194204Y1720189D01*
X2197608Y1720900D01*
X2200249Y1720900D01*
X2203653Y1720189D01*
X2206802Y1718818D01*
X2209596Y1716989D01*
X2212898Y1713484D01*
X2215184Y1709928D01*
X2216556Y1706473D01*
X2217572Y1702257D01*
X2218131Y1697177D01*
X2217877Y1691487D01*
X2217166Y1687728D01*
X2215997Y1684172D01*
X2212949Y1678533D01*
X2210257Y1675638D01*
X2207564Y1673606D01*
X2204974Y1672437D01*
X2201875Y1671574D01*
X2196388Y1671726D01*
X2192883Y1672996D01*
X2189022Y1675028D01*
X2185568Y1678381D01*
X2183384Y1681683D01*
X2181809Y1684629D01*
X2180844Y1687575D01*
X2180488Y1696466D01*
X2161540Y1696466D01*
X2161997Y1689658D01*
X2162911Y1685086D01*
X2164842Y1678990D01*
X2167280Y1674012D01*
X2169769Y1670151D01*
X2172919Y1666239D01*
X2176322Y1662988D01*
X2179828Y1660398D01*
X2184095Y1657959D01*
X2187600Y1656537D01*
X2191258Y1655470D01*
X2196592Y1654759D01*
X2202535Y1654810D01*
X2207158Y1655470D01*
X2212340Y1657248D01*
X2217623Y1660042D01*
X2221026Y1662531D01*
X2224735Y1665782D01*
X2228443Y1670100D01*
X2231390Y1674672D01*
X2234793Y1682394D01*
X2236266Y1688287D01*
X2236774Y1692605D01*
X2236774Y1699463D01*
X2236063Y1704441D01*
X2234946Y1708962D01*
X2233371Y1713280D01*
X2231034Y1718056D01*
X2228443Y1722120D01*
X2225141Y1725980D01*
X2221687Y1729384D01*
X2217318Y1732483D01*
X2212238Y1735175D01*
X2208987Y1736343D01*
X2205329Y1737004D01*
G37*
G36*
X2447188Y3387090D02*
G01*
X2442210Y3386785D01*
X2438044Y3385972D01*
X2432862Y3384296D01*
X2428494Y3382060D01*
X2425192Y3379724D01*
X2421229Y3375914D01*
X2418486Y3372053D01*
X2416556Y3368598D01*
X2414066Y3362706D01*
X2382164Y3361994D01*
X2377710Y3356813D01*
X2428951Y3356813D01*
X2429510Y3359404D01*
X2431135Y3362604D01*
X2434234Y3366465D01*
X2437993Y3369310D01*
X2442413Y3370986D01*
X2446680Y3371291D01*
X2450896Y3370478D01*
X2455316Y3368294D01*
X2458415Y3365703D01*
X2460701Y3362706D01*
X2461818Y3360470D01*
X2462834Y3357067D01*
X2463125Y3353917D01*
X2595372Y3353917D01*
X2595880Y3358235D01*
X2596896Y3361232D01*
X2598674Y3364433D01*
X2602382Y3368192D01*
X2606446Y3370173D01*
X2611221Y3371291D01*
X2615742Y3370986D01*
X2618943Y3369970D01*
X2622042Y3368090D01*
X2625445Y3365042D01*
X2627782Y3361537D01*
X2629154Y3357524D01*
X2629509Y3353511D01*
X2628646Y3349345D01*
X2626410Y3344722D01*
X2622143Y3340404D01*
X2619908Y3339033D01*
X2616962Y3337814D01*
X2614015Y3337204D01*
X2610815Y3337153D01*
X2607360Y3337864D01*
X2604617Y3338982D01*
X2601671Y3340709D01*
X2598724Y3343706D01*
X2597048Y3346500D01*
X2595880Y3349853D01*
X2595372Y3353917D01*
X2463125Y3353917D01*
X2462326Y3349599D01*
X2460955Y3346297D01*
X2458669Y3342894D01*
X2455519Y3339947D01*
X2453081Y3338525D01*
X2449626Y3337407D01*
X2442718Y3337610D01*
X2439314Y3338626D01*
X2436723Y3339896D01*
X2433929Y3342132D01*
X2431694Y3345179D01*
X2430322Y3347872D01*
X2429256Y3351326D01*
X2428951Y3356813D01*
X2377710Y3356813D01*
X2377186Y3356203D01*
X2377948Y3317798D01*
X2378456Y3310382D01*
X2379218Y3305708D01*
X2380437Y3302000D01*
X2382113Y3299002D01*
X2385314Y3295091D01*
X2391156Y3289147D01*
X2394356Y3286760D01*
X2397658Y3285083D01*
X2401265Y3284118D01*
X2405735Y3283356D01*
X2411628Y3282848D01*
X2445054Y3282035D01*
X2445732Y3281172D01*
X2466035Y3281172D01*
X2466035Y3281578D01*
X2467406Y3281883D01*
X2476550Y3282340D01*
X2661716Y3282340D01*
X2640990Y3223361D01*
X2580792Y3223361D01*
X2580792Y3282340D01*
X2564993Y3282340D01*
X2564993Y3223361D01*
X2511094Y3223361D01*
X2466035Y3281172D01*
X2445732Y3281172D01*
X2480005Y3237585D01*
X2502916Y3209086D01*
X2504897Y3208324D01*
X2509367Y3207816D01*
X2547366Y3207359D01*
X2648813Y3207359D01*
X2651861Y3210052D01*
X2654300Y3214878D01*
X2660091Y3229914D01*
X2680868Y3288893D01*
X2680512Y3347161D01*
X2680004Y3356051D01*
X2679598Y3358438D01*
X2677922Y3360115D01*
X2675331Y3361334D01*
X2671521Y3362045D01*
X2661615Y3362553D01*
X2644343Y3362553D01*
X2643174Y3365906D01*
X2641346Y3369868D01*
X2638856Y3373577D01*
X2635453Y3377336D01*
X2631998Y3380384D01*
X2628392Y3382873D01*
X2622804Y3385565D01*
X2618181Y3386480D01*
X2606598Y3386582D01*
X2603449Y3385972D01*
X2600198Y3384956D01*
X2596743Y3383229D01*
X2592019Y3379774D01*
X2586583Y3374288D01*
X2583840Y3370579D01*
X2582214Y3367684D01*
X2580640Y3362706D01*
X2478227Y3362553D01*
X2474620Y3370326D01*
X2471877Y3374542D01*
X2466898Y3379520D01*
X2462276Y3382619D01*
X2458770Y3384346D01*
X2453081Y3386226D01*
G37*
G36*
X2707233Y3356406D02*
G01*
X2703576Y3355695D01*
X2700274Y3354476D01*
X2697429Y3352800D01*
X2694025Y3349650D01*
X2691841Y3346551D01*
X2690164Y3342843D01*
X2689148Y3338779D01*
X2688844Y3334054D01*
X2689402Y3329635D01*
X2691130Y3324504D01*
X2693720Y3319526D01*
X2697632Y3313582D01*
X2702458Y3308807D01*
X2703220Y3307029D01*
X2703677Y3297529D01*
X2704744Y3294075D01*
X2709164Y3285540D01*
X2709164Y3285083D01*
X2705201Y3279140D01*
X2703271Y3275025D01*
X2701747Y3270707D01*
X2700731Y3266795D01*
X2700020Y3262020D01*
X2700020Y3254603D01*
X2700782Y3250133D01*
X2702001Y3245561D01*
X2703931Y3240532D01*
X2706319Y3236468D01*
X2709519Y3231896D01*
X2718460Y3222752D01*
X2716276Y3216859D01*
X2715107Y3212134D01*
X2714498Y3207207D01*
X2714802Y3198825D01*
X2716072Y3192678D01*
X2717546Y3188208D01*
X2719730Y3183686D01*
X2722676Y3179318D01*
X2727147Y3174288D01*
X2731516Y3170631D01*
X2735935Y3167684D01*
X2740253Y3165551D01*
X2744673Y3163874D01*
X2746451Y3161893D01*
X2749702Y3156864D01*
X2753410Y3152190D01*
X2758694Y3146958D01*
X2762300Y3143961D01*
X2766517Y3141268D01*
X2770581Y3139490D01*
X2774442Y3138220D01*
X2778607Y3137204D01*
X2784297Y3136493D01*
X2791714Y3136544D01*
X2796286Y3137255D01*
X2801924Y3138728D01*
X2805633Y3140202D01*
X2809697Y3142234D01*
X2813812Y3144977D01*
X2817418Y3147822D01*
X2821228Y3151682D01*
X2823870Y3154934D01*
X2826562Y3159099D01*
X2829001Y3164027D01*
X2831744Y3171444D01*
X2832811Y3172561D01*
X2834640Y3173476D01*
X2839872Y3175000D01*
X2845257Y3177184D01*
X2849219Y3179165D01*
X2853486Y3181858D01*
X2857246Y3184702D01*
X2862478Y3189681D01*
X2866186Y3194151D01*
X2870098Y3200044D01*
X2872994Y3205988D01*
X2874721Y3210712D01*
X2876194Y3216605D01*
X2877058Y3221786D01*
X2877007Y3231134D01*
X2876194Y3237026D01*
X2874772Y3242513D01*
X2873248Y3246678D01*
X2870606Y3252114D01*
X2867761Y3256788D01*
X2864002Y3261766D01*
X2858566Y3267354D01*
X2855061Y3270250D01*
X2849930Y3273602D01*
X2841904Y3277768D01*
X2842260Y3282746D01*
X2842310Y3295802D01*
X2840634Y3300729D01*
X2838958Y3304387D01*
X2836164Y3308654D01*
X2831439Y3313328D01*
X2827629Y3315970D01*
X2821533Y3318865D01*
X2815894Y3320338D01*
X2804566Y3321304D01*
X2800858Y3325418D01*
X2794660Y3331616D01*
X2791256Y3334156D01*
X2786735Y3336798D01*
X2782570Y3338576D01*
X2778607Y3339846D01*
X2775153Y3340557D01*
X2769463Y3341166D01*
X2764790Y3340811D01*
X2759100Y3339846D01*
X2753207Y3337864D01*
X2750362Y3336391D01*
X2746756Y3334969D01*
X2743657Y3334359D01*
X2741676Y3334969D01*
X2739440Y3337051D01*
X2735224Y3343452D01*
X2729484Y3349142D01*
X2725318Y3351936D01*
X2720746Y3354171D01*
X2716326Y3355644D01*
X2712313Y3356406D01*
G37*
G36*
X7356652Y1422704D02*
G01*
X7350201Y1422146D01*
X7342479Y1420723D01*
X7332929Y1417574D01*
X7323581Y1412951D01*
X7316876Y1408480D01*
X7309866Y1402638D01*
X7305141Y1397660D01*
X7301077Y1392580D01*
X7297623Y1387246D01*
X7293000Y1378000D01*
X7290917Y1372819D01*
X7289546Y1366824D01*
X7288733Y1359255D01*
X7288123Y1348994D01*
X7287564Y1320292D01*
X7287564Y1148080D01*
X7278573Y1141272D01*
X7270648Y1133602D01*
X7264552Y1126896D01*
X7259370Y1120444D01*
X7255611Y1115161D01*
X7251039Y1107846D01*
X7246366Y1098753D01*
X7243114Y1091031D01*
X7240524Y1083665D01*
X7238238Y1075588D01*
X7236307Y1066342D01*
X7235139Y1055420D01*
X7235185Y1039621D01*
X7271054Y1039621D01*
X7271054Y1050950D01*
X7271867Y1058214D01*
X7273036Y1064412D01*
X7274458Y1070000D01*
X7276642Y1076604D01*
X7278674Y1081481D01*
X7282332Y1088796D01*
X7286701Y1096060D01*
X7291527Y1102055D01*
X7298944Y1109776D01*
X7305090Y1115618D01*
X7312406Y1121918D01*
X7315860Y1125626D01*
X7318756Y1129690D01*
X7323023Y1138326D01*
X7324090Y1360373D01*
X7328001Y1368196D01*
X7331456Y1373225D01*
X7336790Y1378610D01*
X7342378Y1382318D01*
X7347813Y1384909D01*
X7352995Y1386230D01*
X7361377Y1386281D01*
X7367219Y1385417D01*
X7371943Y1384046D01*
X7375448Y1382268D01*
X7379360Y1379728D01*
X7383475Y1376375D01*
X7387386Y1371854D01*
X7390739Y1366875D01*
X7392924Y1362303D01*
X7394397Y1357833D01*
X7395464Y1351026D01*
X7369251Y1350670D01*
X7357211Y1350162D01*
X7352182Y1349248D01*
X7348728Y1347571D01*
X7345832Y1344676D01*
X7343648Y1341424D01*
X7342479Y1338326D01*
X7341819Y1333093D01*
X7342479Y1327861D01*
X7343343Y1324965D01*
X7345730Y1321409D01*
X7348829Y1318260D01*
X7351217Y1317040D01*
X7355433Y1315923D01*
X7363409Y1315364D01*
X7395464Y1314754D01*
X7395464Y1279296D01*
X7379411Y1278940D01*
X7368438Y1278940D01*
X7357211Y1278382D01*
X7352182Y1277518D01*
X7348728Y1275842D01*
X7345070Y1271981D01*
X7343089Y1268425D01*
X7342174Y1264869D01*
X7341870Y1260246D01*
X7342530Y1255572D01*
X7343698Y1252575D01*
X7347051Y1248105D01*
X7349388Y1246225D01*
X7351217Y1245260D01*
X7355433Y1244193D01*
X7363968Y1243584D01*
X7394956Y1243126D01*
X7395260Y1242822D01*
X7395921Y1139393D01*
X7399629Y1131925D01*
X7403388Y1126896D01*
X7426502Y1104188D01*
X7431531Y1098296D01*
X7434783Y1093876D01*
X7437831Y1089202D01*
X7441946Y1080668D01*
X7445044Y1071930D01*
X7447025Y1063802D01*
X7448143Y1057402D01*
X7448803Y1050188D01*
X7448499Y1036624D01*
X7447381Y1029360D01*
X7445857Y1022603D01*
X7443114Y1014120D01*
X7440828Y1008634D01*
X7436815Y1000810D01*
X7431481Y992632D01*
X7426909Y986993D01*
X7422083Y981862D01*
X7416901Y976985D01*
X7412990Y973785D01*
X7407960Y970178D01*
X7402931Y967079D01*
X7397038Y963930D01*
X7390587Y961339D01*
X7384948Y959408D01*
X7378547Y957783D01*
X7372096Y956665D01*
X7365339Y956005D01*
X7352995Y956005D01*
X7345172Y956919D01*
X7336891Y958596D01*
X7328916Y961186D01*
X7322769Y963726D01*
X7317130Y966622D01*
X7309053Y971854D01*
X7301230Y978052D01*
X7293864Y985367D01*
X7289901Y990142D01*
X7285278Y996543D01*
X7281367Y1003147D01*
X7277811Y1010564D01*
X7275017Y1018133D01*
X7272731Y1026820D01*
X7271054Y1039621D01*
X7235185Y1039621D01*
X7235748Y1031595D01*
X7236815Y1023061D01*
X7238187Y1016203D01*
X7240778Y1007008D01*
X7243825Y998677D01*
X7246467Y992632D01*
X7249515Y986485D01*
X7253173Y980033D01*
X7257948Y972819D01*
X7262418Y966876D01*
X7267244Y961237D01*
X7275118Y953211D01*
X7281672Y947623D01*
X7287412Y943102D01*
X7296099Y937412D01*
X7303871Y933043D01*
X7310424Y929944D01*
X7317994Y926846D01*
X7324242Y924712D01*
X7330033Y923036D01*
X7337348Y921613D01*
X7344714Y920800D01*
X7357059Y920089D01*
X7369251Y920750D01*
X7382357Y922426D01*
X7393228Y924712D01*
X7399070Y926592D01*
X7407402Y930046D01*
X7418578Y935583D01*
X7427569Y940714D01*
X7434021Y944930D01*
X7438390Y948283D01*
X7444689Y953668D01*
X7451699Y960678D01*
X7456474Y966317D01*
X7461808Y973277D01*
X7466025Y979728D01*
X7470394Y987298D01*
X7474254Y995426D01*
X7477810Y1004417D01*
X7481773Y1017879D01*
X7483754Y1027684D01*
X7484668Y1035507D01*
X7484973Y1049883D01*
X7484313Y1058214D01*
X7483195Y1066088D01*
X7481773Y1073099D01*
X7479792Y1080566D01*
X7477302Y1088186D01*
X7474203Y1096060D01*
X7469835Y1105052D01*
X7465263Y1113028D01*
X7461250Y1119022D01*
X7456220Y1125677D01*
X7452817Y1129690D01*
X7447280Y1135634D01*
X7440726Y1141577D01*
X7431481Y1149045D01*
X7430770Y1344676D01*
X7430262Y1355293D01*
X7429652Y1362303D01*
X7428484Y1369314D01*
X7426604Y1375206D01*
X7421321Y1385874D01*
X7416850Y1392580D01*
X7410958Y1399590D01*
X7405725Y1404620D01*
X7400391Y1409039D01*
X7395768Y1412087D01*
X7389774Y1415389D01*
X7383830Y1417878D01*
X7377430Y1419961D01*
X7371689Y1421282D01*
X7366000Y1422146D01*
G37*
G36*
X7358532Y1206906D02*
G01*
X7355840Y1206855D01*
X7352741Y1206042D01*
X7349083Y1204061D01*
X7346848Y1202029D01*
X7344460Y1199184D01*
X7342530Y1195273D01*
X7341971Y1187653D01*
X7341412Y1157986D01*
X7341362Y1096467D01*
X7332827Y1092200D01*
X7329779Y1090218D01*
X7324598Y1086104D01*
X7320381Y1082141D01*
X7315962Y1077010D01*
X7313320Y1073353D01*
X7310323Y1067460D01*
X7308291Y1061923D01*
X7306665Y1055776D01*
X7305700Y1048410D01*
X7306056Y1038860D01*
X7307478Y1032002D01*
X7309459Y1026007D01*
X7311847Y1020927D01*
X7315047Y1015796D01*
X7318908Y1010869D01*
X7323328Y1006398D01*
X7329271Y1001572D01*
X7333335Y998829D01*
X7339634Y995629D01*
X7344867Y993902D01*
X7349388Y992784D01*
X7358075Y991819D01*
X7367574Y992479D01*
X7373213Y993648D01*
X7379106Y995629D01*
X7385608Y998880D01*
X7389774Y1001674D01*
X7393940Y1005027D01*
X7398816Y1009650D01*
X7402982Y1014780D01*
X7406081Y1019556D01*
X7408621Y1024585D01*
X7410246Y1028801D01*
X7411466Y1032814D01*
X7412583Y1038199D01*
X7413244Y1045971D01*
X7412583Y1053185D01*
X7411415Y1059332D01*
X7409180Y1066088D01*
X7406081Y1072184D01*
X7402779Y1077112D01*
X7398613Y1082040D01*
X7393076Y1087424D01*
X7389622Y1090015D01*
X7385253Y1092758D01*
X7377633Y1096772D01*
X7376972Y1173429D01*
X7376414Y1192479D01*
X7375855Y1196390D01*
X7374381Y1199388D01*
X7369556Y1204315D01*
X7365898Y1206042D01*
X7361224Y1206906D01*
G37*
G36*
X7364831Y682955D02*
G01*
X7363155Y682498D01*
X7361224Y681278D01*
X7360158Y679704D01*
X7359599Y677367D01*
X7359243Y672439D01*
X7359091Y660501D01*
X7359396Y648868D01*
X7359802Y646277D01*
X7360564Y644753D01*
X7362190Y643280D01*
X7364120Y642366D01*
X7367879Y642366D01*
X7369809Y643280D01*
X7371435Y644753D01*
X7372045Y645972D01*
X7372400Y648157D01*
X7372756Y653288D01*
X7372959Y666648D01*
X7372603Y675843D01*
X7372197Y678942D01*
X7371334Y680567D01*
X7369962Y681786D01*
X7367727Y682853D01*
G37*
G36*
X7280351Y660400D02*
G01*
X7278827Y659790D01*
X7277404Y658876D01*
X7276338Y657656D01*
X7275322Y655675D01*
X7274915Y653694D01*
X7275677Y651764D01*
X7281672Y640283D01*
X7286294Y632256D01*
X7290104Y626110D01*
X7292136Y624027D01*
X7294016Y623468D01*
X7297318Y623468D01*
X7298486Y623874D01*
X7300010Y624992D01*
X7301585Y626973D01*
X7302195Y628142D01*
X7302195Y630224D01*
X7301585Y632104D01*
X7296861Y641350D01*
X7291476Y650544D01*
X7288072Y655878D01*
X7285431Y659485D01*
X7283754Y660298D01*
G37*
G36*
X7448956Y660400D02*
G01*
X7447178Y659790D01*
X7446314Y659231D01*
X7441539Y652272D01*
X7434122Y639622D01*
X7430008Y631393D01*
X7429703Y629361D01*
X7429906Y627989D01*
X7430414Y626973D01*
X7432090Y624890D01*
X7433309Y623976D01*
X7434681Y623468D01*
X7438034Y623468D01*
X7439812Y623976D01*
X7441387Y625602D01*
X7443673Y629005D01*
X7449312Y638606D01*
X7455509Y649884D01*
X7457084Y653389D01*
X7456678Y655675D01*
X7455814Y657504D01*
X7454138Y659180D01*
X7451902Y660298D01*
G37*
G36*
X7368387Y624332D02*
G01*
X7360361Y624128D01*
X7355382Y623773D01*
X7348981Y623011D01*
X7343800Y622096D01*
X7332725Y619353D01*
X7327087Y617524D01*
X7316724Y613206D01*
X7311491Y610616D01*
X7304633Y606653D01*
X7297775Y601980D01*
X7290866Y596646D01*
X7287361Y593496D01*
X7281621Y587806D01*
X7276338Y581812D01*
X7272985Y577545D01*
X7269175Y572160D01*
X7265873Y566928D01*
X7262622Y560984D01*
X7259777Y555040D01*
X7256830Y547979D01*
X7253579Y537718D01*
X7251395Y527608D01*
X7249972Y516382D01*
X7249617Y507695D01*
X7249953Y501142D01*
X7263790Y501142D01*
X7263790Y515315D01*
X7264704Y524357D01*
X7265568Y529183D01*
X7267244Y535736D01*
X7269683Y543153D01*
X7273442Y552094D01*
X7276338Y557631D01*
X7279436Y562864D01*
X7283196Y568299D01*
X7285888Y571804D01*
X7290612Y577392D01*
X7295235Y582117D01*
X7299502Y585978D01*
X7304938Y590296D01*
X7313269Y595884D01*
X7317486Y598322D01*
X7325207Y602081D01*
X7332014Y604723D01*
X7338872Y606907D01*
X7347000Y608736D01*
X7354773Y609955D01*
X7358125Y610260D01*
X7373010Y610158D01*
X7383068Y609092D01*
X7389926Y607720D01*
X7394905Y606348D01*
X7405065Y602742D01*
X7413396Y598881D01*
X7423251Y592988D01*
X7430465Y587705D01*
X7434376Y584403D01*
X7440168Y578764D01*
X7446213Y571754D01*
X7449058Y567994D01*
X7453274Y561644D01*
X7455916Y557022D01*
X7458862Y551180D01*
X7461148Y545896D01*
X7464399Y536651D01*
X7466431Y528675D01*
X7467650Y522478D01*
X7468057Y519074D01*
X7468209Y500786D01*
X7467803Y494944D01*
X7467142Y490474D01*
X7465212Y482295D01*
X7462062Y472236D01*
X7459573Y466090D01*
X7455509Y458012D01*
X7449515Y448462D01*
X7446162Y443992D01*
X7442453Y439572D01*
X7434580Y431698D01*
X7430312Y428091D01*
X7426706Y425348D01*
X7421372Y421690D01*
X7415987Y418439D01*
X7407198Y414172D01*
X7402830Y412394D01*
X7394549Y409549D01*
X7387183Y407619D01*
X7382256Y406654D01*
X7378039Y406146D01*
X7370267Y405638D01*
X7358634Y405790D01*
X7352131Y406298D01*
X7347356Y407009D01*
X7336078Y409905D01*
X7331100Y411581D01*
X7321905Y415391D01*
X7313015Y420217D01*
X7306259Y424738D01*
X7297420Y431850D01*
X7288377Y440943D01*
X7285431Y444347D01*
X7283348Y447141D01*
X7278420Y454609D01*
X7275575Y459536D01*
X7272070Y466750D01*
X7268667Y475843D01*
X7267143Y480771D01*
X7265212Y488797D01*
X7264450Y493674D01*
X7263790Y501142D01*
X7249953Y501142D01*
X7250836Y491693D01*
X7251700Y486409D01*
X7253274Y479399D01*
X7256018Y470357D01*
X7259828Y460705D01*
X7264196Y451866D01*
X7268108Y445312D01*
X7273290Y437845D01*
X7278116Y431952D01*
X7283907Y425704D01*
X7288530Y421335D01*
X7299147Y412902D01*
X7309764Y406298D01*
X7318146Y402132D01*
X7323429Y399846D01*
X7329576Y397611D01*
X7335418Y395833D01*
X7343241Y394004D01*
X7348626Y393090D01*
X7356449Y392125D01*
X7362393Y391718D01*
X7373874Y391922D01*
X7380528Y392633D01*
X7386116Y393496D01*
X7393533Y395071D01*
X7397699Y396189D01*
X7405827Y398780D01*
X7416444Y403250D01*
X7422388Y406298D01*
X7428433Y409956D01*
X7435189Y414680D01*
X7441387Y419557D01*
X7446416Y424129D01*
X7453782Y431952D01*
X7457135Y435965D01*
X7462367Y443179D01*
X7467295Y451154D01*
X7472172Y460959D01*
X7474102Y465582D01*
X7476134Y471220D01*
X7479284Y482396D01*
X7481316Y494131D01*
X7481824Y499414D01*
X7482230Y507441D01*
X7481519Y520598D01*
X7480147Y529742D01*
X7477759Y539953D01*
X7474305Y550062D01*
X7472070Y555498D01*
X7469022Y561848D01*
X7466939Y565607D01*
X7461554Y574141D01*
X7453934Y583844D01*
X7450074Y588162D01*
X7444841Y593293D01*
X7440726Y596900D01*
X7431938Y603554D01*
X7425791Y607568D01*
X7420711Y610463D01*
X7414209Y613664D01*
X7406487Y616864D01*
X7400544Y618896D01*
X7390790Y621588D01*
X7382611Y623011D01*
X7377023Y623722D01*
G37*
G36*
X7512202Y599033D02*
G01*
X7511491Y598982D01*
X7509611Y598271D01*
X7503109Y594969D01*
X7491679Y588365D01*
X7483246Y583133D01*
X7482331Y582015D01*
X7481722Y580796D01*
X7481316Y578764D01*
X7481671Y576732D01*
X7482687Y574548D01*
X7484211Y572922D01*
X7486040Y571906D01*
X7489444Y571906D01*
X7498994Y576783D01*
X7512303Y584758D01*
X7517536Y588568D01*
X7518298Y590550D01*
X7518501Y592937D01*
X7517892Y594969D01*
X7516774Y596696D01*
X7515504Y597814D01*
X7514183Y598474D01*
G37*
G36*
X7220000Y598982D02*
G01*
X7217460Y598322D01*
X7216038Y597509D01*
X7214565Y595884D01*
X7213650Y593953D01*
X7213650Y590397D01*
X7214565Y588416D01*
X7217765Y586079D01*
X7223455Y582472D01*
X7232751Y577037D01*
X7243216Y571804D01*
X7245502Y571804D01*
X7247585Y572719D01*
X7249261Y574497D01*
X7250125Y576173D01*
X7250734Y578002D01*
X7250531Y579932D01*
X7249515Y582015D01*
X7248448Y583590D01*
X7237577Y590092D01*
X7224064Y597306D01*
X7220508Y598932D01*
G37*
G36*
X7352588Y547573D02*
G01*
X7350252Y547471D01*
X7348321Y546506D01*
X7345070Y543610D01*
X7344359Y490982D01*
X7342174Y488086D01*
X7339787Y486003D01*
X7337704Y484632D01*
X7334199Y482904D01*
X7331811Y482396D01*
X7326020Y482396D01*
X7323328Y482904D01*
X7321042Y483819D01*
X7318806Y485241D01*
X7315657Y488086D01*
X7314488Y489610D01*
X7313777Y491490D01*
X7313269Y494639D01*
X7312914Y499821D01*
X7312202Y539445D01*
X7311898Y543356D01*
X7311390Y545134D01*
X7309916Y546354D01*
X7308189Y547166D01*
X7305649Y547471D01*
X7304074Y547217D01*
X7302500Y546557D01*
X7300772Y544779D01*
X7299604Y542340D01*
X7299248Y538581D01*
X7298842Y520801D01*
X7299096Y501802D01*
X7299452Y493064D01*
X7300264Y488645D01*
X7301128Y485901D01*
X7302449Y483108D01*
X7304633Y479907D01*
X7308037Y476504D01*
X7311288Y473913D01*
X7313777Y472287D01*
X7316520Y470916D01*
X7322413Y469087D01*
X7326172Y468528D01*
X7331303Y468528D01*
X7335012Y469087D01*
X7338923Y470103D01*
X7343038Y471881D01*
X7347559Y474573D01*
X7350353Y476910D01*
X7352639Y479450D01*
X7354824Y482498D01*
X7358125Y489102D01*
X7358430Y533095D01*
X7358075Y541832D01*
X7357567Y544169D01*
X7356703Y545642D01*
X7354722Y546811D01*
G37*
G36*
X7377988Y547522D02*
G01*
X7376363Y546912D01*
X7374636Y545642D01*
X7373416Y544220D01*
X7372400Y542137D01*
X7374483Y534314D01*
X7377684Y524205D01*
X7386472Y498551D01*
X7394803Y475996D01*
X7396683Y471627D01*
X7397546Y470458D01*
X7399629Y469087D01*
X7401864Y468376D01*
X7403998Y468376D01*
X7405979Y468884D01*
X7408011Y469950D01*
X7409027Y471119D01*
X7410043Y473151D01*
X7416292Y490270D01*
X7431278Y536346D01*
X7432446Y540918D01*
X7432090Y543153D01*
X7431024Y545134D01*
X7429652Y546404D01*
X7427722Y547268D01*
X7424470Y547268D01*
X7421981Y546100D01*
X7420813Y544830D01*
X7418628Y539699D01*
X7402982Y494334D01*
X7402525Y494792D01*
X7386523Y540004D01*
X7384135Y545185D01*
X7383170Y546150D01*
X7381595Y547014D01*
X7379868Y547522D01*
G37*
G36*
X7217054Y514908D02*
G01*
X7204252Y514858D01*
X7195210Y514146D01*
X7193788Y513537D01*
X7192264Y512165D01*
X7191349Y510336D01*
X7190943Y508711D01*
X7191146Y506018D01*
X7192009Y504139D01*
X7193381Y502615D01*
X7195007Y501751D01*
X7197953Y501396D01*
X7208215Y500989D01*
X7221169Y501192D01*
X7227519Y501751D01*
X7229144Y502462D01*
X7230719Y504139D01*
X7231634Y506069D01*
X7231634Y509828D01*
X7230668Y511911D01*
X7229195Y513384D01*
X7227874Y514045D01*
X7224420Y514553D01*
G37*
G36*
X7526375Y514908D02*
G01*
X7513574Y514858D01*
X7503871Y514045D01*
X7502347Y512978D01*
X7501077Y511454D01*
X7500315Y509524D01*
X7500315Y506577D01*
X7500924Y504850D01*
X7502042Y503123D01*
X7503566Y502107D01*
X7505852Y501599D01*
X7510322Y501243D01*
X7523835Y501040D01*
X7533894Y501396D01*
X7536840Y501853D01*
X7538313Y502412D01*
X7539278Y503072D01*
X7540345Y504698D01*
X7541056Y507034D01*
X7540904Y509879D01*
X7539837Y512064D01*
X7538516Y513384D01*
X7537196Y514096D01*
X7533589Y514553D01*
G37*
G36*
X7243419Y444246D02*
G01*
X7240320Y443128D01*
X7225080Y434543D01*
X7216241Y428853D01*
X7214565Y427482D01*
X7213955Y426212D01*
X7213549Y424383D01*
X7213701Y421944D01*
X7214565Y420065D01*
X7216140Y418287D01*
X7218273Y417271D01*
X7220356Y416915D01*
X7222185Y417626D01*
X7237577Y425856D01*
X7248448Y432308D01*
X7249972Y434797D01*
X7250684Y436829D01*
X7250531Y438810D01*
X7249312Y441350D01*
X7247737Y443077D01*
X7245350Y444246D01*
G37*
G36*
X7487208Y444093D02*
G01*
X7485125Y443738D01*
X7483449Y442468D01*
X7482027Y440334D01*
X7481519Y438556D01*
X7481519Y435914D01*
X7482230Y433933D01*
X7484008Y432206D01*
X7499603Y422960D01*
X7510881Y417118D01*
X7511897Y416915D01*
X7514031Y417423D01*
X7515707Y418338D01*
X7517434Y420166D01*
X7518501Y422452D01*
X7518501Y425196D01*
X7517790Y426821D01*
X7516114Y428599D01*
X7513523Y430530D01*
X7503312Y436676D01*
X7491831Y442874D01*
X7488224Y444093D01*
G37*
G36*
X7295438Y392988D02*
G01*
X7293152Y392328D01*
X7292035Y391769D01*
X7290663Y390550D01*
X7288834Y387959D01*
X7280198Y372973D01*
X7274915Y362458D01*
X7275271Y360324D01*
X7276084Y358546D01*
X7277557Y356920D01*
X7280148Y355600D01*
X7283602Y355600D01*
X7285431Y356463D01*
X7287412Y359105D01*
X7290612Y363982D01*
X7297674Y375970D01*
X7300925Y382117D01*
X7302042Y384708D01*
X7302195Y387451D01*
X7301230Y389534D01*
X7299452Y391210D01*
G37*
G36*
X7436103Y392633D02*
G01*
X7434325Y392176D01*
X7432395Y391210D01*
X7430770Y389585D01*
X7430008Y388061D01*
X7429652Y386029D01*
X7430363Y383641D01*
X7434732Y375259D01*
X7439202Y367487D01*
X7443266Y360984D01*
X7446467Y356514D01*
X7448397Y355600D01*
X7451852Y355600D01*
X7454138Y356717D01*
X7455814Y358444D01*
X7456728Y360222D01*
X7457084Y362305D01*
X7456017Y364845D01*
X7452969Y370687D01*
X7446670Y381863D01*
X7441895Y389585D01*
X7440269Y391414D01*
X7438136Y392480D01*
G37*
G36*
X7364831Y373634D02*
G01*
X7363155Y373176D01*
X7361224Y372008D01*
X7360158Y370433D01*
X7359599Y368046D01*
X7359243Y363118D01*
X7359192Y342950D01*
X7359599Y338531D01*
X7360158Y336194D01*
X7361224Y334619D01*
X7362342Y333806D01*
X7364272Y333044D01*
X7367879Y333044D01*
X7369809Y333959D01*
X7371232Y335229D01*
X7372045Y336651D01*
X7372400Y338836D01*
X7372756Y344017D01*
X7372959Y357327D01*
X7372603Y366572D01*
X7372197Y369620D01*
X7371334Y371297D01*
X7369962Y372516D01*
X7367727Y373532D01*
G37*
G36*
X7263079Y1968652D02*
G01*
X7200849Y1968144D01*
X7181240Y1967687D01*
X7179056Y1966823D01*
X7176058Y1964893D01*
X7173264Y1962150D01*
X7169861Y1956612D01*
X7169663Y1777847D01*
X7181138Y1777847D01*
X7181291Y1939391D01*
X7181646Y1952193D01*
X7181900Y1954377D01*
X7183272Y1955901D01*
X7184237Y1956358D01*
X7214209Y1956714D01*
X7479284Y1956866D01*
X7499959Y1956562D01*
X7504938Y1956155D01*
X7506411Y1955292D01*
X7507681Y1954022D01*
X7507884Y1932025D01*
X7508138Y1752701D01*
X7504836Y1748789D01*
X7361529Y1748536D01*
X7208215Y1748586D01*
X7185507Y1748840D01*
X7183323Y1749958D01*
X7182154Y1750872D01*
X7181646Y1753362D01*
X7181138Y1777847D01*
X7169663Y1777847D01*
X7170013Y1749653D01*
X7171639Y1745742D01*
X7173010Y1743710D01*
X7175601Y1741119D01*
X7178141Y1739392D01*
X7182256Y1737156D01*
X7305548Y1736750D01*
X7305548Y1731314D01*
X7372045Y1731314D01*
X7371943Y1713636D01*
X7317282Y1713636D01*
X7317181Y1731314D01*
X7305548Y1731314D01*
X7305548Y1722424D01*
X7259675Y1722424D01*
X7253020Y1722069D01*
X7248906Y1721357D01*
X7246924Y1720291D01*
X7244588Y1716989D01*
X7243724Y1714550D01*
X7243470Y1711706D01*
X7244029Y1709166D01*
X7245400Y1706372D01*
X7247585Y1704187D01*
X7249922Y1702968D01*
X7251496Y1702562D01*
X7255764Y1702257D01*
X7284974Y1701901D01*
X7412634Y1701901D01*
X7433157Y1702206D01*
X7437577Y1702562D01*
X7439304Y1702968D01*
X7441336Y1704035D01*
X7443673Y1706219D01*
X7444892Y1708404D01*
X7445552Y1710537D01*
X7445603Y1714296D01*
X7444638Y1717039D01*
X7443165Y1719224D01*
X7441996Y1720443D01*
X7440320Y1721357D01*
X7437678Y1721916D01*
X7433970Y1722272D01*
X7383678Y1722424D01*
X7383678Y1736750D01*
X7506970Y1737156D01*
X7510576Y1739036D01*
X7513472Y1740966D01*
X7516368Y1743862D01*
X7517841Y1746046D01*
X7518349Y1747774D01*
X7518857Y1751025D01*
X7519568Y1769313D01*
X7519314Y1956765D01*
X7516977Y1960676D01*
X7515250Y1963013D01*
X7513320Y1964791D01*
X7511389Y1966061D01*
X7509357Y1967077D01*
X7507224Y1967788D01*
X7494168Y1968195D01*
X7459472Y1968550D01*
G37*
G36*
X5188813Y191617D02*
G01*
X4612640Y191465D01*
X4607560Y189534D01*
X4605020Y189433D01*
X4594199Y183184D01*
X4586732Y175514D01*
X4583430Y170332D01*
X4583430Y169113D01*
X4581448Y167233D01*
X4580737Y163423D01*
X4578604Y159207D01*
X4578600Y150774D01*
X4597654Y150774D01*
X4598720Y157581D01*
X4601464Y162204D01*
X4607306Y168300D01*
X4610100Y169011D01*
X4611979Y170789D01*
X4617720Y171399D01*
X5188000Y171297D01*
X5194096Y167843D01*
X5196992Y165506D01*
X5199430Y162864D01*
X5202834Y156565D01*
X5203901Y150215D01*
X5204002Y-337769D01*
X5203037Y-373989D01*
X5200446Y-377901D01*
X5200446Y-378968D01*
X5194858Y-384962D01*
X5193741Y-384962D01*
X5190947Y-387400D01*
X5181396Y-389229D01*
X4615688Y-388874D01*
X4610557Y-387299D01*
X4607661Y-384962D01*
X4606493Y-384962D01*
X4601413Y-379425D01*
X4599076Y-375869D01*
X4598009Y-369925D01*
X4597654Y150774D01*
X4578600Y150774D01*
X4578350Y-380847D01*
X4582515Y-385013D01*
X4584039Y-388874D01*
X4590491Y-396900D01*
X4594555Y-400507D01*
X4597603Y-402894D01*
X4603496Y-405993D01*
X4605324Y-406044D01*
X4609592Y-408381D01*
X5191556Y-408381D01*
X5195824Y-406044D01*
X5197652Y-405993D01*
X5203393Y-402894D01*
X5207101Y-400253D01*
X5215178Y-391871D01*
X5217617Y-388213D01*
X5218328Y-385724D01*
X5221427Y-382320D01*
X5223256Y-382320D01*
X5223256Y159969D01*
X5221782Y159969D01*
X5219649Y167081D01*
X5214721Y175514D01*
X5206746Y183540D01*
X5204561Y184251D01*
X5201920Y186436D01*
X5197195Y189026D01*
X5191556Y190144D01*
G37*
G36*
X3954526Y183032D02*
G01*
X3944874Y181051D01*
X3939286Y178206D01*
X3938015Y176428D01*
X3935628Y175818D01*
X3930650Y170078D01*
X3926433Y163779D01*
X3925773Y161290D01*
X3924706Y158394D01*
X3923284Y158394D01*
X3923284Y3708D01*
X4027322Y3708D01*
X4027627Y42722D01*
X4028440Y44043D01*
X4036974Y44043D01*
X4037787Y42722D01*
X4038346Y-4165D01*
X4040581Y-8382D01*
X4040581Y-9601D01*
X4046931Y-13614D01*
X4061409Y-13614D01*
X4065371Y-9652D01*
X4068267Y-3657D01*
X4068775Y43027D01*
X4070299Y44043D01*
X4075480Y44043D01*
X4078173Y41452D01*
X4078173Y35306D01*
X4139082Y35306D01*
X4139082Y41198D01*
X4140352Y42875D01*
X4142384Y43992D01*
X4146092Y44043D01*
X4146702Y42367D01*
X4146702Y34645D01*
X4145263Y34086D01*
X4322927Y34086D01*
X4322927Y42926D01*
X4324705Y43992D01*
X4331512Y44043D01*
X4332579Y42011D01*
X4332579Y34696D01*
X4330903Y33223D01*
X4324705Y33578D01*
X4322927Y34086D01*
X4140301Y34036D01*
X4139082Y35306D01*
X4078173Y35306D01*
X4078173Y-2082D01*
X4075684Y-9448D01*
X4075176Y-12090D01*
X4069232Y-18694D01*
X4068165Y-18694D01*
X4066689Y-20370D01*
X4090873Y-20370D01*
X4091127Y25349D01*
X4094581Y25654D01*
X4096969Y25044D01*
X4099610Y20726D01*
X4102049Y23469D01*
X4103370Y23469D01*
X4106824Y26111D01*
X4117594Y26111D01*
X4120997Y23469D01*
X4122775Y23469D01*
X4126077Y18491D01*
X4127398Y8991D01*
X4127449Y-20218D01*
X4126938Y-20574D01*
X4139082Y-20574D01*
X4139082Y24028D01*
X4141114Y26111D01*
X4144772Y26111D01*
X4146702Y25044D01*
X4146702Y22047D01*
X4154322Y22047D01*
X4154322Y24993D01*
X4156100Y26111D01*
X4160469Y26111D01*
X4162856Y23418D01*
X4164482Y19913D01*
X4164533Y17932D01*
X4167022Y12700D01*
X4167022Y10566D01*
X4169562Y5283D01*
X4169562Y3048D01*
X4172661Y-3149D01*
X4175810Y-6146D01*
X4177944Y-1524D01*
X4179722Y1066D01*
X4179722Y3708D01*
X4182262Y8686D01*
X4182262Y10617D01*
X4184345Y14782D01*
X4185310Y19862D01*
X4187342Y22555D01*
X4187342Y24841D01*
X4188561Y26111D01*
X4192981Y26111D01*
X4194962Y25044D01*
X4194911Y21640D01*
X4192422Y17424D01*
X4192422Y14122D01*
X4190441Y11531D01*
X4189374Y6654D01*
X4187342Y3200D01*
X4187291Y558D01*
X4184802Y-3657D01*
X4184751Y-5740D01*
X4184259Y-6807D01*
X4200042Y-6807D01*
X4200042Y9448D01*
X4202430Y13716D01*
X4203141Y16865D01*
X4208627Y22555D01*
X4215028Y26060D01*
X4227271Y26111D01*
X4230725Y23469D01*
X4232097Y23469D01*
X4237075Y18643D01*
X4240682Y11836D01*
X4240936Y609D01*
X4236872Y-1727D01*
X4210151Y-1828D01*
X4209338Y-4114D01*
X4210812Y-9448D01*
X4213504Y-12395D01*
X4219346Y-15494D01*
X4224020Y-15494D01*
X4226763Y-13462D01*
X4229506Y-12750D01*
X4231386Y-8382D01*
X4234180Y-5537D01*
X4237380Y-6146D01*
X4240682Y-8737D01*
X4240631Y-11023D01*
X4237888Y-15290D01*
X4232515Y-20574D01*
X4250842Y-20574D01*
X4250842Y23926D01*
X4251452Y25603D01*
X4257243Y25603D01*
X4259427Y22504D01*
X4262628Y23774D01*
X4264152Y26111D01*
X4272584Y26111D01*
X4275683Y22047D01*
X4274261Y20777D01*
X4272584Y16103D01*
X4270044Y17881D01*
X4265320Y17932D01*
X4261002Y14376D01*
X4261002Y13208D01*
X4258716Y8991D01*
X4258476Y-9296D01*
X4276648Y-9296D01*
X4280154Y-7061D01*
X4283710Y-7061D01*
X4285792Y-8940D01*
X4286656Y-12598D01*
X4292193Y-16052D01*
X4301490Y-16052D01*
X4305401Y-12801D01*
X4306671Y-11074D01*
X4306671Y-6604D01*
X4301337Y-2997D01*
X4296308Y-2235D01*
X4292498Y-254D01*
X4289145Y-203D01*
X4282541Y3302D01*
X4278731Y8382D01*
X4278731Y17322D01*
X4283405Y23012D01*
X4286605Y24587D01*
X4289145Y26162D01*
X4302912Y25857D01*
X4303840Y25095D01*
X4322368Y25095D01*
X4324705Y26060D01*
X4330852Y26111D01*
X4332630Y24790D01*
X4332429Y-6299D01*
X4339945Y-6299D01*
X4340047Y11125D01*
X4342231Y15290D01*
X4342231Y16916D01*
X4348175Y23774D01*
X4353153Y26365D01*
X4366006Y26365D01*
X4369257Y23926D01*
X4370425Y25095D01*
X4370933Y43027D01*
X4372457Y44043D01*
X4380077Y43789D01*
X4380287Y-12903D01*
X4388459Y-12903D01*
X4388459Y-6146D01*
X4390593Y-1016D01*
X4394200Y2133D01*
X4398365Y4622D01*
X4407458Y6502D01*
X4416602Y7721D01*
X4419346Y8839D01*
X4420311Y11684D01*
X4418990Y14782D01*
X4416348Y17627D01*
X4413046Y18186D01*
X4408982Y18389D01*
X4404207Y18237D01*
X4401108Y15341D01*
X4398873Y10566D01*
X4391914Y10261D01*
X4390491Y11480D01*
X4390491Y15138D01*
X4392117Y18694D01*
X4396181Y23520D01*
X4401362Y26060D01*
X4412030Y26924D01*
X4420666Y26009D01*
X4425086Y23571D01*
X4428439Y19507D01*
X4430064Y11938D01*
X4430064Y5842D01*
X4436567Y5842D01*
X4438853Y14782D01*
X4441850Y19761D01*
X4445050Y23317D01*
X4450130Y26314D01*
X4462830Y26365D01*
X4466894Y24028D01*
X4468114Y24028D01*
X4468418Y43027D01*
X4469942Y44043D01*
X4476242Y44043D01*
X4477816Y42367D01*
X4477816Y-21285D01*
X4475784Y-23418D01*
X4470196Y-23418D01*
X4468469Y-19710D01*
X4467250Y-19710D01*
X4466894Y-20574D01*
X4461814Y-23672D01*
X4452670Y-23622D01*
X4446574Y-20726D01*
X4442663Y-16814D01*
X4439208Y-11430D01*
X4437075Y-5232D01*
X4436567Y5842D01*
X4430064Y5842D01*
X4430064Y-14173D01*
X4431842Y-21336D01*
X4430725Y-23164D01*
X4424375Y-23469D01*
X4421987Y-21844D01*
X4420412Y-18694D01*
X4419092Y-18694D01*
X4416704Y-21285D01*
X4414824Y-21285D01*
X4410506Y-23622D01*
X4399381Y-23622D01*
X4393742Y-20828D01*
X4390593Y-17373D01*
X4388459Y-12903D01*
X4380287Y-12903D01*
X4380331Y-22555D01*
X4379061Y-23418D01*
X4373321Y-23418D01*
X4372254Y-22098D01*
X4371543Y-19050D01*
X4370425Y-20574D01*
X4364380Y-23672D01*
X4355693Y-23672D01*
X4349140Y-20624D01*
X4345178Y-16814D01*
X4342485Y-12598D01*
X4339945Y-6299D01*
X4332429Y-6299D01*
X4332325Y-22402D01*
X4330801Y-23418D01*
X4324197Y-23418D01*
X4322673Y-22402D01*
X4322368Y25095D01*
X4303840Y25095D01*
X4305808Y23469D01*
X4308195Y23469D01*
X4309922Y20574D01*
X4311091Y19507D01*
X4312818Y14274D01*
X4311091Y12954D01*
X4307687Y12293D01*
X4305147Y12954D01*
X4303064Y17221D01*
X4299305Y18745D01*
X4297578Y19812D01*
X4292955Y19812D01*
X4291177Y18745D01*
X4287367Y17221D01*
X4286351Y14478D01*
X4286351Y11531D01*
X4290466Y8128D01*
X4296664Y7112D01*
X4300321Y5181D01*
X4305350Y4521D01*
X4306925Y3048D01*
X4310481Y1879D01*
X4314037Y-2590D01*
X4314393Y-12496D01*
X4312259Y-15494D01*
X4311294Y-18135D01*
X4305401Y-21234D01*
X4295190Y-24079D01*
X4290364Y-21844D01*
X4285335Y-21183D01*
X4278884Y-14732D01*
X4278223Y-11125D01*
X4276648Y-9296D01*
X4258476Y-9296D01*
X4258360Y-20472D01*
X4257294Y-21844D01*
X4252061Y-21844D01*
X4250842Y-20574D01*
X4232515Y-20574D01*
X4231792Y-21285D01*
X4228998Y-21285D01*
X4221530Y-23977D01*
X4217060Y-22250D01*
X4210862Y-20929D01*
X4208576Y-18948D01*
X4202582Y-12649D01*
X4202531Y-11023D01*
X4200042Y-6807D01*
X4184259Y-6807D01*
X4182262Y-11023D01*
X4182262Y-13157D01*
X4179773Y-17373D01*
X4179722Y-20015D01*
X4178808Y-21539D01*
X4172356Y-21894D01*
X4169816Y-20472D01*
X4169156Y-15747D01*
X4167022Y-12090D01*
X4167022Y-9448D01*
X4165041Y-6096D01*
X4163923Y-1727D01*
X4161942Y1625D01*
X4161942Y4013D01*
X4159402Y8991D01*
X4159402Y11734D01*
X4157421Y14376D01*
X4156354Y19405D01*
X4154322Y22047D01*
X4146702Y22047D01*
X4146702Y-20574D01*
X4145483Y-21844D01*
X4140301Y-21844D01*
X4139082Y-20574D01*
X4126938Y-20574D01*
X4125163Y-21844D01*
X4122369Y-21844D01*
X4119829Y-20624D01*
X4119829Y7670D01*
X4118610Y15036D01*
X4115511Y18135D01*
X4112463Y18338D01*
X4104741Y18237D01*
X4101541Y15240D01*
X4098747Y11125D01*
X4098442Y-20472D01*
X4097324Y-21844D01*
X4091990Y-21844D01*
X4090873Y-20370D01*
X4066689Y-20370D01*
X4066387Y-20726D01*
X4060647Y-21894D01*
X4054754Y-24079D01*
X4044492Y-23418D01*
X4041241Y-21285D01*
X4038701Y-21285D01*
X4029913Y-11988D01*
X4029913Y-9702D01*
X4028490Y-6096D01*
X4027322Y3708D01*
X3923284Y3708D01*
X3923284Y-144526D01*
X4014673Y-144526D01*
X4014673Y-80518D01*
X4015943Y-79197D01*
X4023360Y-79654D01*
X4024579Y-80924D01*
X4024884Y-143306D01*
X4024426Y-144373D01*
X4036517Y-144373D01*
X4036771Y-98552D01*
X4039463Y-96977D01*
X4044391Y-97993D01*
X4045559Y-100431D01*
X4046474Y-101396D01*
X4050385Y-98044D01*
X4055059Y-96672D01*
X4064203Y-97028D01*
X4068876Y-99161D01*
X4072890Y-103530D01*
X4075125Y-110693D01*
X4075125Y-124358D01*
X4082237Y-124358D01*
X4082237Y-119075D01*
X4083761Y-110286D01*
X4085793Y-107594D01*
X4085793Y-106426D01*
X4089247Y-101396D01*
X4093667Y-98247D01*
X4098645Y-96672D01*
X4104843Y-96672D01*
X4109415Y-97790D01*
X4112158Y-100533D01*
X4113733Y-99161D01*
X4113733Y-80314D01*
X4116019Y-79298D01*
X4122369Y-79756D01*
X4123240Y-80314D01*
X4279239Y-80314D01*
X4281525Y-79349D01*
X4287774Y-79298D01*
X4288942Y-80772D01*
X4288637Y-90068D01*
X4280103Y-90373D01*
X4279290Y-89052D01*
X4279239Y-80314D01*
X4123385Y-80416D01*
X4123385Y-99212D01*
X4133443Y-99212D01*
X4135221Y-97180D01*
X4140149Y-97180D01*
X4143095Y-98806D01*
X4143400Y-132791D01*
X4145483Y-136448D01*
X4148429Y-137922D01*
X4152595Y-138430D01*
X4157014Y-137160D01*
X4161586Y-132689D01*
X4162399Y-127508D01*
X4162450Y-98907D01*
X4164126Y-97485D01*
X4171137Y-97485D01*
X4172102Y-99060D01*
X4172102Y-130962D01*
X4179976Y-130962D01*
X4181195Y-129692D01*
X4186580Y-129285D01*
X4189018Y-130657D01*
X4190390Y-134772D01*
X4191660Y-136347D01*
X4196080Y-138328D01*
X4203547Y-138328D01*
X4207154Y-136499D01*
X4208983Y-133299D01*
X4208424Y-130149D01*
X4204462Y-127508D01*
X4189780Y-123545D01*
X4185564Y-120954D01*
X4182313Y-117500D01*
X4180230Y-111912D01*
X4180230Y-109524D01*
X4182160Y-103784D01*
X4188460Y-97840D01*
X4196232Y-96215D01*
X4203344Y-96672D01*
X4209034Y-97840D01*
X4215180Y-103530D01*
X4221378Y-103530D01*
X4221378Y-98856D01*
X4223613Y-97180D01*
X4226458Y-97180D01*
X4227474Y-94488D01*
X4227474Y-86461D01*
X4229150Y-84531D01*
X4230319Y-84531D01*
X4233773Y-81889D01*
X4234484Y-81889D01*
X4237126Y-82956D01*
X4236923Y-96215D01*
X4238396Y-97180D01*
X4242460Y-97180D01*
X4244746Y-98856D01*
X4244746Y-103530D01*
X4242714Y-105613D01*
X4238396Y-105664D01*
X4236974Y-106578D01*
X4237075Y-134721D01*
X4238650Y-137261D01*
X4242155Y-137261D01*
X4244695Y-138430D01*
X4245711Y-143560D01*
X4245181Y-145034D01*
X4250334Y-145034D01*
X4250334Y-98450D01*
X4251553Y-97180D01*
X4257446Y-97180D01*
X4259630Y-101041D01*
X4261866Y-98348D01*
X4264202Y-97078D01*
X4266793Y-96164D01*
X4272229Y-96672D01*
X4275632Y-98196D01*
X4276293Y-101854D01*
X4273397Y-107492D01*
X4265625Y-106578D01*
X4261561Y-109982D01*
X4259986Y-117144D01*
X4259986Y-144576D01*
X4259392Y-145034D01*
X4279239Y-145034D01*
X4279239Y-98298D01*
X4281017Y-97231D01*
X4287672Y-97180D01*
X4288891Y-98450D01*
X4288891Y-133350D01*
X4296003Y-133350D01*
X4296664Y-128574D01*
X4298086Y-125679D01*
X4301236Y-121920D01*
X4305503Y-118872D01*
X4310989Y-118110D01*
X4313529Y-117094D01*
X4325670Y-115773D01*
X4327601Y-113283D01*
X4327093Y-109169D01*
X4323791Y-105714D01*
X4319676Y-104952D01*
X4315053Y-105054D01*
X4310380Y-106222D01*
X4307179Y-111302D01*
X4307179Y-112420D01*
X4305249Y-113537D01*
X4302353Y-113537D01*
X4298543Y-112420D01*
X4297934Y-109829D01*
X4300118Y-104190D01*
X4304385Y-99974D01*
X4307941Y-97840D01*
X4317085Y-96266D01*
X4325213Y-96723D01*
X4330801Y-98399D01*
X4334052Y-101142D01*
X4336846Y-105359D01*
X4337558Y-132791D01*
X4338116Y-140817D01*
X4339285Y-143510D01*
X4338969Y-144881D01*
X4347311Y-144881D01*
X4347311Y-80518D01*
X4348581Y-79197D01*
X4355795Y-79654D01*
X4356963Y-80416D01*
X4356963Y-115976D01*
X4388358Y-115976D01*
X4391101Y-107137D01*
X4395978Y-100838D01*
X4400550Y-97688D01*
X4408322Y-96012D01*
X4414570Y-97282D01*
X4419803Y-100380D01*
X4420412Y-98704D01*
X4420412Y-80365D01*
X4422190Y-79298D01*
X4426966Y-79298D01*
X4429556Y-80518D01*
X4429556Y-126034D01*
X4437176Y-126034D01*
X4437176Y-117449D01*
X4438700Y-111353D01*
X4438700Y-109474D01*
X4440732Y-107594D01*
X4440732Y-106121D01*
X4445965Y-100380D01*
X4450334Y-97739D01*
X4455718Y-96164D01*
X4464862Y-96621D01*
X4469587Y-98298D01*
X4476699Y-104546D01*
X4477461Y-106933D01*
X4479290Y-109372D01*
X4479950Y-114350D01*
X4481372Y-119532D01*
X4481372Y-122935D01*
X4479747Y-124612D01*
X4449622Y-124612D01*
X4447336Y-125272D01*
X4447336Y-128219D01*
X4448200Y-128778D01*
X4449470Y-133350D01*
X4452670Y-136550D01*
X4457700Y-138328D01*
X4462627Y-138328D01*
X4465980Y-136855D01*
X4468672Y-134061D01*
X4470196Y-131013D01*
X4472432Y-129336D01*
X4477258Y-129336D01*
X4479950Y-130403D01*
X4479493Y-135432D01*
X4476242Y-140360D01*
X4470146Y-145288D01*
X4463846Y-147320D01*
X4455718Y-147320D01*
X4449114Y-145135D01*
X4444542Y-141782D01*
X4442002Y-139090D01*
X4438853Y-133807D01*
X4437176Y-126034D01*
X4429556Y-126034D01*
X4429556Y-144272D01*
X4427880Y-146202D01*
X4421479Y-146202D01*
X4419854Y-142951D01*
X4418126Y-144526D01*
X4411827Y-147269D01*
X4405884Y-147269D01*
X4399635Y-145084D01*
X4396130Y-142138D01*
X4391152Y-135940D01*
X4388764Y-129082D01*
X4388358Y-115976D01*
X4356963Y-115976D01*
X4356963Y-145034D01*
X4355338Y-146456D01*
X4348124Y-146202D01*
X4347311Y-144881D01*
X4338969Y-144881D01*
X4338675Y-146202D01*
X4330649Y-146202D01*
X4328515Y-141478D01*
X4325721Y-143256D01*
X4324096Y-144678D01*
X4316069Y-147269D01*
X4309516Y-147269D01*
X4302556Y-144983D01*
X4297070Y-138734D01*
X4296003Y-133350D01*
X4288891Y-133350D01*
X4288891Y-144881D01*
X4288078Y-146202D01*
X4280916Y-146456D01*
X4279239Y-145034D01*
X4259392Y-145034D01*
X4257395Y-146659D01*
X4251604Y-146050D01*
X4250334Y-145034D01*
X4245181Y-145034D01*
X4244797Y-146100D01*
X4240936Y-146862D01*
X4235551Y-146761D01*
X4231792Y-145084D01*
X4228490Y-141782D01*
X4227474Y-138023D01*
X4227474Y-106730D01*
X4225493Y-105613D01*
X4223410Y-105613D01*
X4221378Y-103530D01*
X4215180Y-103530D01*
X4215892Y-106933D01*
X4217314Y-109270D01*
X4216755Y-110744D01*
X4210710Y-112471D01*
X4208272Y-112471D01*
X4207154Y-108966D01*
X4203801Y-105664D01*
X4198315Y-104546D01*
X4194708Y-105257D01*
X4191000Y-106781D01*
X4189780Y-109778D01*
X4191152Y-112674D01*
X4197248Y-115214D01*
X4204868Y-117144D01*
X4211472Y-119583D01*
X4214520Y-121615D01*
X4217974Y-125730D01*
X4218076Y-136499D01*
X4214571Y-141782D01*
X4209948Y-145084D01*
X4203344Y-147269D01*
X4195064Y-147269D01*
X4188155Y-145034D01*
X4184954Y-142798D01*
X4182465Y-139649D01*
X4180078Y-135534D01*
X4179976Y-130962D01*
X4172102Y-130962D01*
X4172102Y-144170D01*
X4171035Y-146202D01*
X4165752Y-146202D01*
X4164634Y-145440D01*
X4163466Y-143103D01*
X4163466Y-140716D01*
X4161891Y-143052D01*
X4160570Y-143052D01*
X4159453Y-144475D01*
X4152239Y-147370D01*
X4145940Y-146913D01*
X4140352Y-144627D01*
X4136136Y-140360D01*
X4133799Y-135432D01*
X4133443Y-99212D01*
X4123385Y-99212D01*
X4123385Y-145186D01*
X4120591Y-146304D01*
X4115714Y-145846D01*
X4113377Y-143560D01*
X4112514Y-143560D01*
X4110939Y-145084D01*
X4104843Y-147269D01*
X4099814Y-147269D01*
X4093159Y-144475D01*
X4090263Y-141986D01*
X4089552Y-141986D01*
X4086098Y-137007D01*
X4083710Y-132384D01*
X4082237Y-124358D01*
X4075125Y-124358D01*
X4075125Y-144373D01*
X4074210Y-145796D01*
X4067759Y-146304D01*
X4065727Y-144729D01*
X4065219Y-110134D01*
X4062272Y-106121D01*
X4059631Y-105359D01*
X4052824Y-105511D01*
X4048302Y-108508D01*
X4045661Y-115519D01*
X4045661Y-143865D01*
X4044086Y-146202D01*
X4038650Y-146202D01*
X4036517Y-144373D01*
X4024426Y-144373D01*
X4023715Y-146202D01*
X4015282Y-146202D01*
X4014673Y-144526D01*
X3923284Y-144526D01*
X3923284Y-246583D01*
X4083659Y-246583D01*
X4085031Y-245414D01*
X4092397Y-244906D01*
X4093260Y-246075D01*
X4094022Y-249631D01*
X4096969Y-254508D01*
X4101287Y-257556D01*
X4106367Y-258978D01*
X4115308Y-258978D01*
X4120083Y-257759D01*
X4123334Y-255219D01*
X4125518Y-251358D01*
X4125620Y-247650D01*
X4123283Y-243738D01*
X4117035Y-240588D01*
X4110431Y-239064D01*
X4107383Y-237388D01*
X4103471Y-237388D01*
X4098239Y-235204D01*
X4092651Y-232359D01*
X4088434Y-228142D01*
X4087215Y-224231D01*
X4086301Y-223621D01*
X4086301Y-214833D01*
X4088790Y-209194D01*
X4091178Y-206552D01*
X4095546Y-202996D01*
X4100779Y-200863D01*
X4106875Y-200101D01*
X4111447Y-199999D01*
X4118559Y-201066D01*
X4125620Y-204673D01*
X4130903Y-210261D01*
X4133494Y-217474D01*
X4133494Y-220522D01*
X4130801Y-221640D01*
X4124147Y-221335D01*
X4123131Y-217576D01*
X4120896Y-213918D01*
X4118406Y-211480D01*
X4112971Y-210007D01*
X4105503Y-209956D01*
X4099864Y-211683D01*
X4096410Y-215239D01*
X4095800Y-220319D01*
X4098594Y-223723D01*
X4102811Y-225907D01*
X4117035Y-229565D01*
X4125163Y-232257D01*
X4129125Y-235000D01*
X4131767Y-237642D01*
X4133850Y-240792D01*
X4135526Y-246684D01*
X4135526Y-251206D01*
X4134021Y-256235D01*
X4141012Y-256235D01*
X4141673Y-250342D01*
X4144314Y-245567D01*
X4146956Y-243179D01*
X4152849Y-239979D01*
X4162196Y-239064D01*
X4164888Y-237998D01*
X4171086Y-237236D01*
X4172762Y-235966D01*
X4172051Y-230022D01*
X4168495Y-227177D01*
X4160520Y-226720D01*
X4156913Y-227431D01*
X4153763Y-230174D01*
X4151528Y-235000D01*
X4147820Y-235356D01*
X4143908Y-234238D01*
X4142638Y-233375D01*
X4144264Y-227685D01*
X4146448Y-224688D01*
X4148480Y-222300D01*
X4154576Y-219252D01*
X4164126Y-217881D01*
X4173372Y-219151D01*
X4178604Y-222605D01*
X4182008Y-227634D01*
X4182668Y-260858D01*
X4184345Y-265023D01*
X4184149Y-265938D01*
X4192422Y-265938D01*
X4192422Y-220217D01*
X4193641Y-218948D01*
X4198924Y-218948D01*
X4200550Y-219557D01*
X4200550Y-223113D01*
X4201363Y-223621D01*
X4203090Y-221589D01*
X4204716Y-221589D01*
X4207814Y-219252D01*
X4211472Y-218440D01*
X4220870Y-218846D01*
X4223094Y-220370D01*
X4236567Y-220370D01*
X4237685Y-219202D01*
X4242460Y-218135D01*
X4242104Y-209600D01*
X4243679Y-206400D01*
X4247388Y-205130D01*
X4249216Y-203200D01*
X4252112Y-204012D01*
X4252366Y-217932D01*
X4254957Y-218948D01*
X4258767Y-218948D01*
X4259986Y-220217D01*
X4259986Y-225755D01*
X4257700Y-227380D01*
X4253941Y-227380D01*
X4252366Y-227990D01*
X4252366Y-257048D01*
X4254042Y-258978D01*
X4257141Y-259029D01*
X4259427Y-259638D01*
X4259526Y-259994D01*
X4263390Y-259994D01*
X4263390Y-249529D01*
X4266031Y-245567D01*
X4269994Y-242163D01*
X4273905Y-240080D01*
X4282541Y-238963D01*
X4289653Y-237388D01*
X4292752Y-237388D01*
X4293971Y-236118D01*
X4293971Y-230632D01*
X4289806Y-227177D01*
X4281881Y-226720D01*
X4278223Y-227431D01*
X4274616Y-231190D01*
X4273346Y-235000D01*
X4270959Y-235356D01*
X4265676Y-234696D01*
X4263796Y-233273D01*
X4266590Y-226009D01*
X4270349Y-222148D01*
X4275429Y-219405D01*
X4283049Y-217982D01*
X4287621Y-217932D01*
X4295241Y-219354D01*
X4299305Y-221742D01*
X4301134Y-223367D01*
X4303877Y-228701D01*
X4304094Y-243078D01*
X4314291Y-243078D01*
X4314291Y-220573D01*
X4315917Y-218948D01*
X4320692Y-218948D01*
X4321911Y-220217D01*
X4321911Y-223012D01*
X4323283Y-224180D01*
X4325670Y-221589D01*
X4326686Y-221589D01*
X4330446Y-218846D01*
X4343146Y-219202D01*
X4345584Y-221589D01*
X4346600Y-221589D01*
X4349750Y-224993D01*
X4350512Y-227634D01*
X4352391Y-230124D01*
X4352391Y-252425D01*
X4360265Y-252425D01*
X4360265Y-234442D01*
X4361891Y-231851D01*
X4362653Y-228346D01*
X4367682Y-222046D01*
X4370171Y-221081D01*
X4372965Y-219049D01*
X4379976Y-217830D01*
X4386986Y-219100D01*
X4387900Y-220929D01*
X4389526Y-221589D01*
X4391507Y-220471D01*
X4391507Y-202133D01*
X4393285Y-201066D01*
X4400143Y-201015D01*
X4401159Y-203708D01*
X4401159Y-249936D01*
X4408678Y-249936D01*
X4409084Y-236067D01*
X4410760Y-232917D01*
X4410760Y-230886D01*
X4414266Y-225501D01*
X4417618Y-222148D01*
X4422698Y-219303D01*
X4428794Y-217982D01*
X4432046Y-217881D01*
X4439310Y-219456D01*
X4441901Y-221589D01*
X4443120Y-221589D01*
X4448403Y-227685D01*
X4451299Y-233578D01*
X4452569Y-244043D01*
X4451400Y-246329D01*
X4449114Y-246938D01*
X4419447Y-246583D01*
X4418482Y-249377D01*
X4421581Y-255574D01*
X4424222Y-258317D01*
X4430166Y-261213D01*
X4434332Y-260502D01*
X4437938Y-258267D01*
X4440936Y-254609D01*
X4442510Y-251358D01*
X4450486Y-251460D01*
X4451604Y-252679D01*
X4451502Y-256336D01*
X4448860Y-259588D01*
X4448860Y-260705D01*
X4444034Y-265379D01*
X4443272Y-265785D01*
X4460036Y-265785D01*
X4460036Y-221030D01*
X4462170Y-218795D01*
X4467301Y-219354D01*
X4469282Y-222097D01*
X4470755Y-222097D01*
X4473346Y-219202D01*
X4480864Y-218846D01*
X4483455Y-219506D01*
X4485335Y-222707D01*
X4483658Y-228701D01*
X4480712Y-229057D01*
X4477512Y-227228D01*
X4472228Y-229870D01*
X4469434Y-233934D01*
X4468926Y-266293D01*
X4467860Y-267411D01*
X4463186Y-268071D01*
X4460036Y-265785D01*
X4443272Y-265785D01*
X4437938Y-268630D01*
X4425238Y-268732D01*
X4418888Y-266090D01*
X4413402Y-260807D01*
X4410760Y-256844D01*
X4410760Y-254914D01*
X4408678Y-249936D01*
X4401159Y-249936D01*
X4401159Y-266141D01*
X4399534Y-268478D01*
X4393590Y-268478D01*
X4392015Y-266801D01*
X4392015Y-265988D01*
X4389221Y-266446D01*
X4385157Y-268732D01*
X4374997Y-268732D01*
X4368901Y-265684D01*
X4363720Y-259537D01*
X4360265Y-252425D01*
X4352391Y-252425D01*
X4352391Y-265379D01*
X4351324Y-267411D01*
X4345330Y-267411D01*
X4343755Y-265074D01*
X4343755Y-237337D01*
X4342079Y-230276D01*
X4338980Y-226821D01*
X4329684Y-226821D01*
X4325924Y-229920D01*
X4324908Y-230276D01*
X4323283Y-238709D01*
X4322673Y-265684D01*
X4321302Y-267411D01*
X4315663Y-267411D01*
X4314342Y-265582D01*
X4314291Y-243078D01*
X4304094Y-243078D01*
X4304385Y-262432D01*
X4305655Y-264718D01*
X4305655Y-267817D01*
X4302506Y-268478D01*
X4298492Y-268478D01*
X4296613Y-267411D01*
X4295952Y-264261D01*
X4295241Y-263804D01*
X4285589Y-268732D01*
X4272940Y-268681D01*
X4268368Y-266192D01*
X4265726Y-263448D01*
X4263390Y-259994D01*
X4259526Y-259994D01*
X4260596Y-264007D01*
X4260545Y-266954D01*
X4259326Y-268478D01*
X4249369Y-268478D01*
X4246016Y-266395D01*
X4243171Y-262686D01*
X4242206Y-257251D01*
X4242206Y-227939D01*
X4239412Y-227329D01*
X4236872Y-226009D01*
X4236567Y-220370D01*
X4223094Y-220370D01*
X4226356Y-222605D01*
X4228998Y-225907D01*
X4230776Y-229209D01*
X4231030Y-265582D01*
X4229709Y-268224D01*
X4224070Y-268427D01*
X4222140Y-267004D01*
X4221581Y-233934D01*
X4220311Y-229971D01*
X4216044Y-226771D01*
X4208932Y-227177D01*
X4204868Y-230073D01*
X4202328Y-233425D01*
X4202074Y-264007D01*
X4201515Y-267360D01*
X4198061Y-268528D01*
X4193387Y-267817D01*
X4192422Y-265938D01*
X4184149Y-265938D01*
X4183735Y-267919D01*
X4180230Y-268579D01*
X4175658Y-267868D01*
X4173880Y-264058D01*
X4172813Y-263702D01*
X4168952Y-266395D01*
X4164736Y-268020D01*
X4159656Y-269138D01*
X4151376Y-268528D01*
X4147464Y-266446D01*
X4142790Y-261772D01*
X4141012Y-256235D01*
X4134021Y-256235D01*
X4131208Y-260959D01*
X4125163Y-266192D01*
X4118559Y-268732D01*
X4102303Y-268681D01*
X4094175Y-265633D01*
X4085793Y-256895D01*
X4085793Y-254508D01*
X4084167Y-251358D01*
X4083659Y-246583D01*
X3923284Y-246583D01*
X3923284Y-382270D01*
X3927500Y-382574D01*
X3929684Y-386588D01*
X3933951Y-391769D01*
X3939387Y-395478D01*
X3940403Y-395478D01*
X3942130Y-397510D01*
X3945890Y-398221D01*
X3950309Y-400253D01*
X4524654Y-400253D01*
X4533900Y-397002D01*
X4535525Y-395478D01*
X4536236Y-395478D01*
X4542434Y-390144D01*
X4548479Y-382422D01*
X4551934Y-381762D01*
X4552492Y-380746D01*
X4552543Y152095D01*
X4550867Y155498D01*
X4550003Y161544D01*
X4547971Y164236D01*
X4547362Y167182D01*
X4538776Y176072D01*
X4535982Y178257D01*
X4533442Y179070D01*
X4531360Y181000D01*
X4522774Y182880D01*
G37*
G36*
X4888382Y115163D02*
G01*
X4882286Y113690D01*
X4877714Y113588D01*
X4875377Y112268D01*
X4875428Y-333502D01*
X4876495Y-334619D01*
X4919878Y-334619D01*
X4925110Y-333197D01*
X4926736Y-331368D01*
X4926482Y112776D01*
X4919370Y114808D01*
G37*
G36*
X4940096Y111048D02*
G01*
X4938877Y109524D01*
X4939182Y-137007D01*
X4998466Y-137261D01*
X4999837Y-138430D01*
X4999837Y-248920D01*
X4998262Y-250545D01*
X4990744Y-250545D01*
X4988153Y-249326D01*
X4988153Y-151180D01*
X4986578Y-148844D01*
X4939944Y-148844D01*
X4938928Y-150876D01*
X4938928Y-329488D01*
X4940249Y-330657D01*
X4948275Y-329082D01*
X4952847Y-327507D01*
X4958740Y-326390D01*
X4963007Y-324358D01*
X4965598Y-324358D01*
X4969306Y-322275D01*
X4974183Y-321056D01*
X4976215Y-319735D01*
X4981956Y-318008D01*
X4983124Y-316585D01*
X4986629Y-315976D01*
X4989322Y-313791D01*
X4990592Y-313791D01*
X5002936Y-307238D01*
X5014823Y-300177D01*
X5023459Y-293827D01*
X5027269Y-291642D01*
X5027269Y-290728D01*
X5030571Y-288544D01*
X5036820Y-283514D01*
X5044033Y-276656D01*
X5052415Y-268071D01*
X5054701Y-264820D01*
X5054701Y-83108D01*
X5052415Y-82448D01*
X4989931Y-82397D01*
X4988153Y-81026D01*
X4988153Y28549D01*
X4990236Y30886D01*
X4997602Y30886D01*
X4999583Y29362D01*
X4999837Y-70002D01*
X5000701Y-70866D01*
X5053126Y-70815D01*
X5054701Y-70205D01*
X5054701Y48260D01*
X5044033Y57759D01*
X5043373Y57759D01*
X5041087Y60096D01*
X5036159Y63754D01*
X5030673Y68275D01*
X5029962Y68275D01*
X5023612Y73558D01*
X5022596Y73558D01*
X5019751Y75946D01*
X5014468Y79095D01*
X5011775Y81229D01*
X5004155Y85598D01*
X5000091Y87630D01*
X4998720Y89357D01*
X4996942Y89357D01*
X4994503Y91338D01*
X4991963Y92151D01*
X4987798Y94640D01*
X4986324Y94640D01*
X4982870Y97282D01*
X4980787Y97282D01*
X4978552Y98907D01*
X4967071Y103124D01*
X4962956Y105156D01*
X4960721Y105156D01*
X4956810Y107238D01*
X4950764Y108254D01*
X4947259Y109778D01*
X4942179Y110540D01*
G37*
G36*
X4861966Y110439D02*
G01*
X4859934Y110388D01*
X4853838Y108356D01*
X4848047Y107238D01*
X4843678Y105206D01*
X4841138Y105156D01*
X4837480Y103124D01*
X4833010Y101904D01*
X4829454Y100025D01*
X4825898Y99212D01*
X4823510Y97282D01*
X4821428Y97282D01*
X4817262Y94792D01*
X4813452Y93472D01*
X4812436Y91490D01*
X4812436Y-251866D01*
X4811166Y-254508D01*
X4802936Y-254812D01*
X4800752Y-252018D01*
X4800752Y85648D01*
X4799939Y85648D01*
X4796485Y84023D01*
X4789728Y80416D01*
X4788458Y78841D01*
X4787442Y78841D01*
X4784293Y76352D01*
X4782108Y75641D01*
X4780330Y73558D01*
X4779467Y73558D01*
X4766259Y64109D01*
X4757521Y57454D01*
X4746447Y48107D01*
X4746447Y-265379D01*
X4764481Y-283616D01*
X4772101Y-290118D01*
X4774438Y-292354D01*
X4783785Y-298907D01*
X4785156Y-300634D01*
X4786122Y-300634D01*
X4791405Y-304292D01*
X4800041Y-309575D01*
X4805121Y-312216D01*
X4806645Y-313232D01*
X4810201Y-314858D01*
X4811674Y-315823D01*
X4818684Y-319074D01*
X4820208Y-319074D01*
X4823358Y-321106D01*
X4827778Y-322275D01*
X4830978Y-324358D01*
X4833823Y-324358D01*
X4837633Y-326339D01*
X4843221Y-327406D01*
X4847234Y-329031D01*
X4853940Y-330149D01*
X4860848Y-332384D01*
X4863236Y-331470D01*
X4863236Y109575D01*
G37*
G36*
X4457496Y18694D02*
G01*
X4452924Y17729D01*
X4449368Y14782D01*
X4448759Y12141D01*
X4447336Y9804D01*
X4446219Y1219D01*
X4447387Y-6451D01*
X4449318Y-10363D01*
X4451146Y-12496D01*
X4454855Y-14935D01*
X4459782Y-15595D01*
X4465574Y-12192D01*
X4468926Y-4724D01*
X4468926Y6908D01*
X4465980Y14478D01*
X4462170Y17678D01*
G37*
G36*
X4220616Y18643D02*
G01*
X4215739Y17881D01*
X4210659Y12598D01*
X4209796Y8737D01*
X4211320Y7416D01*
X4228236Y7061D01*
X4232300Y7975D01*
X4232554Y9550D01*
X4230522Y12039D01*
X4230522Y13462D01*
X4226915Y17627D01*
G37*
G36*
X4364177Y18237D02*
G01*
X4356201Y18186D01*
X4353153Y15290D01*
X4350410Y11531D01*
X4349242Y2286D01*
X4349953Y-6553D01*
X4352848Y-11023D01*
X4352899Y-12242D01*
X4358335Y-14985D01*
X4363516Y-14985D01*
X4367377Y-12598D01*
X4369663Y-9956D01*
X4370273Y-7366D01*
X4372203Y-1270D01*
X4372203Y3759D01*
X4369714Y12700D01*
G37*
G36*
X4417822Y-254D02*
G01*
X4410506Y-2438D01*
X4403801Y-3200D01*
X4400092Y-5588D01*
X4398619Y-7162D01*
X4398619Y-11226D01*
X4401159Y-14376D01*
X4404817Y-15646D01*
X4411065Y-15138D01*
X4415383Y-12852D01*
X4418330Y-9601D01*
X4419854Y-4724D01*
X4420514Y-1270D01*
G37*
G36*
X4102303Y-104648D02*
G01*
X4097375Y-106222D01*
X4094022Y-109677D01*
X4091279Y-119786D01*
X4091736Y-125933D01*
X4093870Y-133096D01*
X4096715Y-136601D01*
X4100931Y-138379D01*
X4104335Y-138938D01*
X4110177Y-136652D01*
X4111294Y-134366D01*
X4113276Y-132080D01*
X4114749Y-121767D01*
X4113276Y-112014D01*
X4110939Y-108610D01*
X4107891Y-105714D01*
G37*
G36*
X4409490Y-104749D02*
G01*
X4405020Y-105613D01*
X4401159Y-108407D01*
X4398365Y-114350D01*
X4398365Y-128574D01*
X4400854Y-133807D01*
X4403445Y-136804D01*
X4406849Y-138328D01*
X4411624Y-138328D01*
X4415078Y-137109D01*
X4417517Y-134874D01*
X4420412Y-128219D01*
X4420412Y-115366D01*
X4418380Y-111455D01*
X4418380Y-109474D01*
X4414266Y-106019D01*
G37*
G36*
X4459020Y-105105D02*
G01*
X4456734Y-105156D01*
X4453178Y-106527D01*
X4449419Y-110134D01*
X4447794Y-114858D01*
X4449572Y-116179D01*
X4468469Y-116179D01*
X4470349Y-114757D01*
X4468622Y-109372D01*
X4464659Y-106070D01*
X4461306Y-105105D01*
G37*
G36*
X4326382Y-124053D02*
G01*
X4320133Y-124663D01*
X4315561Y-126085D01*
X4310126Y-126746D01*
X4307840Y-128320D01*
X4306671Y-130962D01*
X4306671Y-134670D01*
X4307738Y-136702D01*
X4310989Y-138480D01*
X4315561Y-139242D01*
X4323130Y-136652D01*
X4326585Y-132994D01*
X4327652Y-125730D01*
G37*
G36*
X4427270Y-226771D02*
G01*
X4421987Y-230327D01*
X4419041Y-236220D01*
X4419904Y-237642D01*
X4439818Y-237998D01*
X4441748Y-236169D01*
X4441190Y-233934D01*
X4440123Y-231089D01*
X4434890Y-227177D01*
G37*
G36*
X4378045Y-226872D02*
G01*
X4376521Y-227634D01*
X4373626Y-229666D01*
X4370679Y-234137D01*
X4369562Y-242417D01*
X4370222Y-251002D01*
X4373676Y-257962D01*
X4374591Y-257962D01*
X4378502Y-260705D01*
X4383125Y-260705D01*
X4387240Y-258216D01*
X4390339Y-254508D01*
X4391710Y-248716D01*
X4391609Y-238709D01*
X4390085Y-232664D01*
X4387291Y-229209D01*
X4384344Y-227228D01*
G37*
G36*
X4170375Y-245313D02*
G01*
X4164126Y-247294D01*
X4155389Y-248412D01*
X4152341Y-250748D01*
X4151680Y-252831D01*
X4151731Y-257048D01*
X4155338Y-260807D01*
X4162704Y-261213D01*
X4168800Y-257860D01*
X4172000Y-253746D01*
X4172712Y-246684D01*
X4170883Y-245313D01*
G37*
G36*
X4292701Y-245313D02*
G01*
X4291177Y-245414D01*
X4289145Y-245922D01*
X4288078Y-246837D01*
X4277055Y-248513D01*
X4273753Y-251155D01*
X4273042Y-254304D01*
X4273702Y-257759D01*
X4275937Y-259994D01*
X4278833Y-261112D01*
X4284573Y-261061D01*
X4290212Y-258013D01*
X4293616Y-253593D01*
X4294124Y-246227D01*
G37*
G36*
X6913625Y-727964D02*
G01*
X6912254Y-728218D01*
X6910679Y-728980D01*
X6908850Y-730300D01*
X6901637Y-737412D01*
X6896353Y-742950D01*
X6898131Y-745236D01*
X6912102Y-737870D01*
X6914845Y-736244D01*
X6916623Y-734720D01*
X6917639Y-733247D01*
X6917944Y-731774D01*
X6917588Y-730199D01*
X6916623Y-729030D01*
X6915251Y-728218D01*
G37*
G36*
X6321298Y-749300D02*
G01*
X6316929Y-749604D01*
X6312712Y-750468D01*
X6308598Y-751941D01*
X6304686Y-753973D01*
X6301028Y-756513D01*
X6297726Y-759561D01*
X6294729Y-763168D01*
X6292189Y-767232D01*
X6290106Y-771804D01*
X6288582Y-776833D01*
X6287617Y-782269D01*
X6287262Y-788162D01*
X6298692Y-788162D01*
X6299047Y-781659D01*
X6300063Y-775462D01*
X6301740Y-769670D01*
X6304178Y-764590D01*
X6307328Y-760272D01*
X6311239Y-756970D01*
X6315862Y-754888D01*
X6321298Y-754126D01*
X6326682Y-754888D01*
X6331305Y-756970D01*
X6335115Y-760272D01*
X6338163Y-764590D01*
X6340500Y-769670D01*
X6342126Y-775462D01*
X6343091Y-781659D01*
X6343396Y-788162D01*
X6343091Y-794664D01*
X6342126Y-800912D01*
X6340500Y-806704D01*
X6338163Y-811885D01*
X6335115Y-816203D01*
X6331305Y-819556D01*
X6326682Y-821690D01*
X6321298Y-822452D01*
X6315862Y-821690D01*
X6311239Y-819556D01*
X6307328Y-816203D01*
X6304178Y-811885D01*
X6301740Y-806704D01*
X6300063Y-800912D01*
X6299047Y-794664D01*
X6298692Y-788162D01*
X6287262Y-788162D01*
X6287617Y-794258D01*
X6288582Y-799846D01*
X6290106Y-804926D01*
X6292189Y-809548D01*
X6294729Y-813562D01*
X6297726Y-817118D01*
X6301028Y-820115D01*
X6304686Y-822604D01*
X6308598Y-824534D01*
X6312712Y-825906D01*
X6316929Y-826719D01*
X6321298Y-827024D01*
X6325666Y-826719D01*
X6329883Y-825855D01*
X6333947Y-824433D01*
X6337858Y-822401D01*
X6341465Y-819912D01*
X6344767Y-816813D01*
X6347714Y-813257D01*
X6350203Y-809193D01*
X6352286Y-804621D01*
X6353810Y-799592D01*
X6354775Y-794105D01*
X6355080Y-788162D01*
X6354724Y-782116D01*
X6353759Y-776528D01*
X6352235Y-771499D01*
X6350152Y-766927D01*
X6347612Y-762863D01*
X6344666Y-759307D01*
X6341364Y-756259D01*
X6337757Y-753770D01*
X6333845Y-751840D01*
X6329781Y-750417D01*
X6325616Y-749604D01*
G37*
G36*
X6404864Y-749300D02*
G01*
X6399428Y-749655D01*
X6394297Y-750620D01*
X6389522Y-752195D01*
X6385102Y-754329D01*
X6381140Y-757072D01*
X6377584Y-760272D01*
X6374485Y-763930D01*
X6371844Y-768045D01*
X6369812Y-772566D01*
X6368288Y-777443D01*
X6367322Y-782624D01*
X6367018Y-788162D01*
X6367322Y-793750D01*
X6368237Y-798982D01*
X6369761Y-803859D01*
X6371793Y-808380D01*
X6374384Y-812495D01*
X6377432Y-816152D01*
X6380937Y-819353D01*
X6384950Y-822045D01*
X6389319Y-824179D01*
X6394043Y-825753D01*
X6399174Y-826719D01*
X6404610Y-827024D01*
X6411061Y-826617D01*
X6417157Y-825398D01*
X6422999Y-823366D01*
X6428740Y-820674D01*
X6428994Y-794512D01*
X6435852Y-794004D01*
X6435852Y-789940D01*
X6406896Y-789940D01*
X6406896Y-794004D01*
X6418580Y-794766D01*
X6418834Y-819912D01*
X6415684Y-820928D01*
X6412636Y-821639D01*
X6409537Y-822045D01*
X6406388Y-822198D01*
X6400241Y-821588D01*
X6394754Y-819861D01*
X6389979Y-817067D01*
X6385915Y-813155D01*
X6382715Y-808329D01*
X6380378Y-802487D01*
X6378956Y-795731D01*
X6378448Y-788162D01*
X6378956Y-780491D01*
X6380530Y-773734D01*
X6382969Y-767892D01*
X6386271Y-763066D01*
X6390284Y-759206D01*
X6394958Y-756412D01*
X6400190Y-754684D01*
X6405880Y-754126D01*
X6409385Y-754329D01*
X6412636Y-754938D01*
X6415684Y-755954D01*
X6418580Y-757428D01*
X6421374Y-771144D01*
X6427216Y-771144D01*
X6427216Y-754888D01*
X6422491Y-752398D01*
X6417259Y-750671D01*
X6411468Y-749655D01*
G37*
G36*
X6796278Y-749300D02*
G01*
X6790994Y-749655D01*
X6785965Y-750620D01*
X6781241Y-752195D01*
X6776872Y-754329D01*
X6772859Y-757072D01*
X6769252Y-760272D01*
X6766102Y-763930D01*
X6763461Y-768045D01*
X6761327Y-772566D01*
X6759752Y-777443D01*
X6758787Y-782624D01*
X6758431Y-788162D01*
X6758736Y-793800D01*
X6759702Y-799084D01*
X6761225Y-803960D01*
X6763258Y-808532D01*
X6765899Y-812596D01*
X6768947Y-816254D01*
X6772554Y-819403D01*
X6776516Y-822096D01*
X6780936Y-824179D01*
X6785711Y-825753D01*
X6790842Y-826719D01*
X6796278Y-827024D01*
X6802120Y-826719D01*
X6807809Y-825804D01*
X6813346Y-824128D01*
X6818630Y-821690D01*
X6818884Y-805434D01*
X6812788Y-805434D01*
X6809994Y-819403D01*
X6806742Y-820674D01*
X6803542Y-821537D01*
X6800291Y-822045D01*
X6797040Y-822198D01*
X6791350Y-821639D01*
X6786168Y-820013D01*
X6781596Y-817321D01*
X6777685Y-813562D01*
X6774484Y-808736D01*
X6772097Y-802894D01*
X6770624Y-796036D01*
X6770116Y-788162D01*
X6770674Y-780338D01*
X6772249Y-773531D01*
X6774789Y-767689D01*
X6778142Y-762863D01*
X6782155Y-759053D01*
X6786829Y-756361D01*
X6792010Y-754684D01*
X6797548Y-754126D01*
X6800392Y-754278D01*
X6803288Y-754735D01*
X6806133Y-755650D01*
X6808978Y-756920D01*
X6811772Y-771144D01*
X6817868Y-771144D01*
X6817614Y-754888D01*
X6812076Y-752195D01*
X6806590Y-750468D01*
X6801256Y-749554D01*
G37*
G36*
X6901688Y-749300D02*
G01*
X6897319Y-749604D01*
X6893102Y-750468D01*
X6888988Y-751941D01*
X6885076Y-753973D01*
X6881418Y-756513D01*
X6878116Y-759561D01*
X6875119Y-763168D01*
X6872579Y-767232D01*
X6870496Y-771804D01*
X6868972Y-776833D01*
X6868007Y-782269D01*
X6867652Y-788162D01*
X6879081Y-788162D01*
X6879386Y-781659D01*
X6880402Y-775462D01*
X6882079Y-769670D01*
X6884466Y-764590D01*
X6887616Y-760272D01*
X6891528Y-756970D01*
X6896201Y-754888D01*
X6901688Y-754126D01*
X6907022Y-754888D01*
X6911594Y-756970D01*
X6915353Y-760272D01*
X6918452Y-764590D01*
X6920788Y-769670D01*
X6922465Y-775462D01*
X6923481Y-781659D01*
X6923786Y-788162D01*
X6923481Y-794664D01*
X6922465Y-800912D01*
X6920788Y-806704D01*
X6918452Y-811885D01*
X6915353Y-816203D01*
X6911594Y-819556D01*
X6907022Y-821690D01*
X6901688Y-822452D01*
X6896201Y-821690D01*
X6891528Y-819556D01*
X6887616Y-816203D01*
X6884466Y-811885D01*
X6882079Y-806704D01*
X6880402Y-800912D01*
X6879386Y-794664D01*
X6879081Y-788162D01*
X6867652Y-788162D01*
X6867956Y-794258D01*
X6868922Y-799846D01*
X6870446Y-804926D01*
X6872528Y-809548D01*
X6875068Y-813562D01*
X6878015Y-817118D01*
X6881317Y-820115D01*
X6884974Y-822604D01*
X6888886Y-824534D01*
X6893001Y-825906D01*
X6897268Y-826719D01*
X6901688Y-827024D01*
X6906006Y-826719D01*
X6910171Y-825855D01*
X6914235Y-824433D01*
X6918147Y-822401D01*
X6921753Y-819912D01*
X6925056Y-816813D01*
X6928002Y-813257D01*
X6930542Y-809193D01*
X6932625Y-804621D01*
X6934149Y-799592D01*
X6935114Y-794105D01*
X6935470Y-788162D01*
X6935114Y-782116D01*
X6934149Y-776528D01*
X6932625Y-771499D01*
X6930542Y-766927D01*
X6928002Y-762863D01*
X6925056Y-759307D01*
X6921753Y-756259D01*
X6918147Y-753770D01*
X6914235Y-751840D01*
X6910171Y-750417D01*
X6906006Y-749604D01*
G37*
G36*
X6543548Y-750570D02*
G01*
X6527943Y-796544D01*
X6532626Y-796544D01*
X6544056Y-762000D01*
X6555740Y-796544D01*
X6527943Y-796544D01*
X6519926Y-820166D01*
X6511035Y-821690D01*
X6511035Y-825500D01*
X6535674Y-825500D01*
X6535674Y-821690D01*
X6524752Y-820166D01*
X6531356Y-800862D01*
X6557009Y-800862D01*
X6563614Y-820419D01*
X6552692Y-821690D01*
X6552692Y-825500D01*
X6582918Y-825500D01*
X6582918Y-821690D01*
X6574028Y-820674D01*
X6550152Y-750570D01*
G37*
G36*
X6716775Y-750570D02*
G01*
X6701171Y-796544D01*
X6705853Y-796544D01*
X6717284Y-762000D01*
X6728968Y-796544D01*
X6701171Y-796544D01*
X6693153Y-820166D01*
X6684264Y-821690D01*
X6684264Y-825500D01*
X6708902Y-825500D01*
X6708902Y-821690D01*
X6697980Y-820166D01*
X6704584Y-800862D01*
X6730238Y-800862D01*
X6736842Y-820419D01*
X6725920Y-821690D01*
X6725920Y-825500D01*
X6756146Y-825500D01*
X6756146Y-821690D01*
X6747256Y-820674D01*
X6723380Y-750570D01*
G37*
G36*
X6151880Y-751078D02*
G01*
X6151880Y-754888D01*
X6162040Y-755904D01*
X6162294Y-791210D01*
X6172454Y-791210D01*
X6172708Y-755396D01*
X6179820Y-755396D01*
X6188405Y-756564D01*
X6194450Y-760018D01*
X6197955Y-765556D01*
X6199124Y-773176D01*
X6198057Y-780491D01*
X6194602Y-786180D01*
X6188506Y-789889D01*
X6179566Y-791210D01*
X6162294Y-791210D01*
X6162040Y-820419D01*
X6151880Y-821690D01*
X6151880Y-825500D01*
X6183376Y-825500D01*
X6183376Y-821690D01*
X6172708Y-820419D01*
X6172454Y-795782D01*
X6178296Y-795782D01*
X6186119Y-795324D01*
X6192723Y-793953D01*
X6198108Y-791819D01*
X6202375Y-789076D01*
X6205626Y-785672D01*
X6207810Y-781862D01*
X6209131Y-777646D01*
X6209538Y-773176D01*
X6209131Y-768451D01*
X6207810Y-764133D01*
X6205677Y-760374D01*
X6202629Y-757174D01*
X6198717Y-754583D01*
X6193891Y-752652D01*
X6188202Y-751484D01*
X6181598Y-751078D01*
G37*
G36*
X6216396Y-751078D02*
G01*
X6216396Y-754888D01*
X6226556Y-755904D01*
X6226810Y-786384D01*
X6236970Y-786384D01*
X6237224Y-755396D01*
X6246876Y-755396D01*
X6254445Y-756412D01*
X6259779Y-759358D01*
X6262878Y-764082D01*
X6263894Y-770382D01*
X6262776Y-776833D01*
X6259474Y-781913D01*
X6253937Y-785215D01*
X6246114Y-786384D01*
X6226810Y-786384D01*
X6226556Y-820419D01*
X6216396Y-821690D01*
X6216396Y-825500D01*
X6247638Y-825500D01*
X6247638Y-821690D01*
X6237224Y-820419D01*
X6236970Y-790702D01*
X6242812Y-790702D01*
X6248857Y-791159D01*
X6253073Y-792886D01*
X6256020Y-796290D01*
X6258052Y-801878D01*
X6262624Y-819403D01*
X6263944Y-822756D01*
X6266129Y-824941D01*
X6269329Y-826160D01*
X6273800Y-826516D01*
X6278575Y-826312D01*
X6282436Y-825500D01*
X6282436Y-821690D01*
X6273800Y-820928D01*
X6268466Y-803402D01*
X6266281Y-797814D01*
X6263487Y-793750D01*
X6259880Y-791057D01*
X6255258Y-789432D01*
X6263589Y-786739D01*
X6269532Y-782421D01*
X6273139Y-776884D01*
X6274308Y-770636D01*
X6273850Y-766216D01*
X6272479Y-762304D01*
X6270294Y-759002D01*
X6267246Y-756208D01*
X6263386Y-753973D01*
X6258763Y-752398D01*
X6253429Y-751382D01*
X6247384Y-751078D01*
G37*
G36*
X6441440Y-751078D02*
G01*
X6441440Y-754888D01*
X6451854Y-755904D01*
X6452108Y-786384D01*
X6462268Y-786384D01*
X6462522Y-755396D01*
X6472174Y-755396D01*
X6479743Y-756412D01*
X6485077Y-759358D01*
X6488176Y-764082D01*
X6489192Y-770382D01*
X6488074Y-776833D01*
X6484670Y-781913D01*
X6479133Y-785215D01*
X6471412Y-786384D01*
X6452108Y-786384D01*
X6451854Y-820419D01*
X6441440Y-821690D01*
X6441440Y-825500D01*
X6472936Y-825500D01*
X6472936Y-821690D01*
X6462522Y-820419D01*
X6462268Y-790702D01*
X6468110Y-790702D01*
X6474155Y-791159D01*
X6478422Y-792886D01*
X6481318Y-796290D01*
X6483350Y-801878D01*
X6487922Y-819403D01*
X6489242Y-822756D01*
X6491427Y-824941D01*
X6494627Y-826160D01*
X6499098Y-826516D01*
X6503873Y-826312D01*
X6507480Y-825500D01*
X6507480Y-821690D01*
X6498844Y-820928D01*
X6493764Y-803402D01*
X6491579Y-797814D01*
X6488785Y-793750D01*
X6485178Y-791057D01*
X6480556Y-789432D01*
X6488887Y-786739D01*
X6494830Y-782421D01*
X6498437Y-776884D01*
X6499606Y-770636D01*
X6499148Y-766216D01*
X6497777Y-762304D01*
X6495592Y-759002D01*
X6492544Y-756208D01*
X6488684Y-753973D01*
X6484061Y-752398D01*
X6478727Y-751382D01*
X6472682Y-751078D01*
G37*
G36*
X6587236Y-751078D02*
G01*
X6587236Y-754888D01*
X6597396Y-756158D01*
X6597396Y-820166D01*
X6587236Y-821690D01*
X6587236Y-825500D01*
X6612128Y-825500D01*
X6612128Y-821690D01*
X6602475Y-820166D01*
X6602425Y-782370D01*
X6601968Y-761746D01*
X6627875Y-825500D01*
X6632702Y-825500D01*
X6657848Y-761492D01*
X6657594Y-820419D01*
X6647942Y-821690D01*
X6647942Y-825500D01*
X6678168Y-825500D01*
X6678168Y-821690D01*
X6668008Y-820419D01*
X6667753Y-778154D01*
X6668008Y-755904D01*
X6678168Y-754888D01*
X6678168Y-751078D01*
X6656831Y-751078D01*
X6632702Y-812800D01*
X6607556Y-751078D01*
G37*
G36*
X6828536Y-751078D02*
G01*
X6828536Y-754888D01*
X6838696Y-755904D01*
X6838950Y-798474D01*
X6838696Y-820419D01*
X6828536Y-821690D01*
X6828536Y-825500D01*
X6859778Y-825500D01*
X6859778Y-821690D01*
X6849364Y-820419D01*
X6849109Y-778154D01*
X6849364Y-755904D01*
X6859778Y-754888D01*
X6859778Y-751078D01*
G37*
G36*
X6943598Y-751078D02*
G01*
X6943598Y-754888D01*
X6951472Y-755904D01*
X6952488Y-757428D01*
X6952488Y-820419D01*
X6943090Y-821690D01*
X6943090Y-825500D01*
X6969252Y-825500D01*
X6969252Y-821690D01*
X6957568Y-820166D01*
X6957314Y-763778D01*
X7002780Y-826262D01*
X7006590Y-826262D01*
X7006844Y-756158D01*
X7015988Y-754888D01*
X7015988Y-751078D01*
X6989825Y-751078D01*
X6989825Y-754888D01*
X7001764Y-756412D01*
X7001764Y-807974D01*
X6960616Y-751078D01*
G37*
D10*
X2946400Y-1049528D02*
G01*
X2946400Y-1125981D01*
X2946400Y-1049528D02*
G01*
X2979165Y-1049528D01*
X2990088Y-1053084D01*
X2993643Y-1056894D01*
X2997200Y-1064005D01*
X2997200Y-1071371D01*
X2993643Y-1078737D01*
X2990088Y-1082294D01*
X2979165Y-1085850D01*
X2946400Y-1085850D02*
G01*
X2979165Y-1085850D01*
X2990088Y-1089660D01*
X2993643Y-1093215D01*
X2997200Y-1100581D01*
X2997200Y-1111504D01*
X2993643Y-1118615D01*
X2990088Y-1122426D01*
X2979165Y-1125981D01*
X2946400Y-1125981D01*
X3021329Y-1093215D02*
G01*
X3086861Y-1093215D01*
X2286000Y-1036828D02*
G01*
X2286000Y-1113281D01*
X2286000Y-1036828D02*
G01*
X2318765Y-1036828D01*
X2329688Y-1040384D01*
X2333243Y-1044194D01*
X2336800Y-1051305D01*
X2336800Y-1058671D01*
X2333243Y-1066037D01*
X2329688Y-1069594D01*
X2318765Y-1073150D01*
X2286000Y-1073150D02*
G01*
X2318765Y-1073150D01*
X2329688Y-1076960D01*
X2333243Y-1080515D01*
X2336800Y-1087881D01*
X2336800Y-1098804D01*
X2333243Y-1105915D01*
X2329688Y-1109726D01*
X2318765Y-1113281D01*
X2286000Y-1113281D01*
X2393695Y-1047750D02*
G01*
X2393695Y-1113281D01*
X2360929Y-1080515D02*
G01*
X2426461Y-1080515D01*
X6203950Y-25400D02*
G01*
X6196584Y-32512D01*
X6193027Y-43434D01*
X6193027Y-57912D01*
X6196584Y-68834D01*
X6203950Y-76200D01*
X6211315Y-76200D01*
X6218427Y-72644D01*
X6222238Y-68834D01*
X6225793Y-61721D01*
X6233159Y-39878D01*
X6236715Y-32512D01*
X6240272Y-28955D01*
X6247638Y-25400D01*
X6258559Y-25400D01*
X6265925Y-32512D01*
X6269481Y-43434D01*
X6269481Y-57912D01*
X6265925Y-68834D01*
X6258559Y-76200D01*
X6193027Y-1270D02*
G01*
X6269481Y-1270D01*
X6193027Y-1270D02*
G01*
X6193027Y24129D01*
X6196584Y35052D01*
X6203950Y42418D01*
X6211315Y45973D01*
X6222238Y49529D01*
X6240272Y49529D01*
X6251193Y45973D01*
X6258559Y42418D01*
X6265925Y35052D01*
X6269481Y24129D01*
X6269481Y-1270D01*
X6193027Y102615D02*
G01*
X6269481Y73660D01*
X6193027Y102615D02*
G01*
X6269481Y131826D01*
X6244081Y84581D02*
G01*
X6244081Y120904D01*
X6470650Y0D02*
G01*
X6463284Y-7112D01*
X6459727Y-18034D01*
X6459727Y-32512D01*
X6463284Y-43434D01*
X6470650Y-50800D01*
X6478015Y-50800D01*
X6485127Y-47244D01*
X6488938Y-43434D01*
X6492493Y-36321D01*
X6499859Y-14478D01*
X6503415Y-7112D01*
X6506972Y-3555D01*
X6514338Y0D01*
X6525259Y0D01*
X6532625Y-7112D01*
X6536181Y-18034D01*
X6536181Y-32512D01*
X6532625Y-43434D01*
X6525259Y-50800D01*
X6478015Y78739D02*
G01*
X6470650Y74929D01*
X6463284Y67818D01*
X6459727Y60452D01*
X6459727Y45973D01*
X6463284Y38607D01*
X6470650Y31495D01*
X6478015Y27686D01*
X6488938Y24129D01*
X6506972Y24129D01*
X6517893Y27686D01*
X6525259Y31495D01*
X6532625Y38607D01*
X6536181Y45973D01*
X6536181Y60452D01*
X6532625Y67818D01*
X6525259Y74929D01*
X6517893Y78739D01*
X6459727Y102615D02*
G01*
X6536181Y102615D01*
X6536181Y102615D02*
G01*
X6536181Y146304D01*
D11*
X3594100Y-1062228D02*
G01*
X3594100Y-1138681D01*
X3594100Y-1062228D02*
G01*
X3641343Y-1062228D01*
X3594100Y-1098550D02*
G01*
X3623309Y-1098550D01*
X3594100Y-1138681D02*
G01*
X3641343Y-1138681D01*
X3665474Y-1062228D02*
G01*
X3665474Y-1138681D01*
X3665474Y-1062228D02*
G01*
X3716274Y-1138681D01*
X3716274Y-1062228D02*
G01*
X3716274Y-1138681D01*
X5549900Y-1074928D02*
G01*
X5549900Y-1151381D01*
X5595620Y-1074928D02*
G01*
X5588508Y-1078484D01*
X5581141Y-1085850D01*
X5577586Y-1093215D01*
X5573775Y-1104137D01*
X5573775Y-1122171D01*
X5577586Y-1133094D01*
X5581141Y-1140460D01*
X5588508Y-1147826D01*
X5595620Y-1151381D01*
X5610352Y-1151381D01*
X5617463Y-1147826D01*
X5624829Y-1140460D01*
X5628386Y-1133094D01*
X5632195Y-1122171D01*
X5632195Y-1104137D01*
X5628386Y-1093215D01*
X5624829Y-1085850D01*
X5617463Y-1078484D01*
X5610352Y-1074928D01*
X5595620Y-1074928D01*
X5677915Y-1074928D02*
G01*
X5666993Y-1078484D01*
X5659627Y-1089405D01*
X5656072Y-1107694D01*
X5656072Y-1118615D01*
X5659627Y-1136904D01*
X5666993Y-1147826D01*
X5677915Y-1151381D01*
X5685281Y-1151381D01*
X5696204Y-1147826D01*
X5703315Y-1136904D01*
X5706872Y-1118615D01*
X5706872Y-1107694D01*
X5703315Y-1089405D01*
X5696204Y-1078484D01*
X5685281Y-1074928D01*
X5677915Y-1074928D01*
D12*
X3992372Y3352800D02*
G01*
X3915918Y3352800D01*
X3992372Y3352800D02*
G01*
X3992372Y3320034D01*
X3988815Y3309112D01*
X3985006Y3305555D01*
X3977893Y3302000D01*
X3970527Y3302000D01*
X3963161Y3305555D01*
X3959606Y3309112D01*
X3956050Y3320034D01*
X3956050Y3352800D01*
X3956050Y3327400D02*
G01*
X3915918Y3302000D01*
X3981450Y3234181D02*
G01*
X3988815Y3237992D01*
X3992372Y3248913D01*
X3992372Y3256026D01*
X3988815Y3266947D01*
X3977893Y3274313D01*
X3959606Y3277870D01*
X3941318Y3277870D01*
X3926840Y3274313D01*
X3919474Y3266947D01*
X3915918Y3256026D01*
X3915918Y3252470D01*
X3919474Y3241547D01*
X3926840Y3234181D01*
X3937761Y3230626D01*
X3941318Y3230626D01*
X3952240Y3234181D01*
X3959606Y3241547D01*
X3963161Y3252470D01*
X3963161Y3256026D01*
X3959606Y3266947D01*
X3952240Y3274313D01*
X3941318Y3277870D01*
X2449322Y867155D02*
G01*
X2459736Y877570D01*
X2464815Y893063D01*
X2464815Y913892D01*
X2459736Y929386D01*
X2449322Y939800D01*
X2438908Y939800D01*
X2428493Y934720D01*
X2423159Y929386D01*
X2418079Y918971D01*
X2407665Y887729D01*
X2402586Y877570D01*
X2397252Y872236D01*
X2386838Y867155D01*
X2371343Y867155D01*
X2360929Y877570D01*
X2355850Y893063D01*
X2355850Y913892D01*
X2360929Y929386D01*
X2371343Y939800D01*
X2464815Y832865D02*
G01*
X2355850Y806704D01*
X2464815Y780795D02*
G01*
X2355850Y806704D01*
X2464815Y780795D02*
G01*
X2355850Y754887D01*
X2464815Y728979D02*
G01*
X2355850Y754887D01*
X5803900Y3027171D02*
G01*
X5803900Y2950718D01*
X5803900Y3027171D02*
G01*
X5836665Y3027171D01*
X5847588Y3023615D01*
X5851143Y3019805D01*
X5854700Y3012694D01*
X5854700Y3001771D01*
X5851143Y2994405D01*
X5847588Y2990850D01*
X5836665Y2987039D01*
X5803900Y2987039D01*
X5878829Y3027171D02*
G01*
X5878829Y2972562D01*
X5882386Y2961639D01*
X5889752Y2954273D01*
X5900674Y2950718D01*
X5907786Y2950718D01*
X5918708Y2954273D01*
X5926074Y2961639D01*
X5929629Y2972562D01*
X5929629Y3027171D01*
X5953759Y3027171D02*
G01*
X5953759Y2950718D01*
X5953759Y2950718D02*
G01*
X5997447Y2950718D01*
X6072377Y3016250D02*
G01*
X6065011Y3023615D01*
X6054090Y3027171D01*
X6039611Y3027171D01*
X6028690Y3023615D01*
X6021324Y3016250D01*
X6021324Y3008884D01*
X6024879Y3001771D01*
X6028690Y2997962D01*
X6035802Y2994405D01*
X6057645Y2987039D01*
X6065011Y2983484D01*
X6068568Y2979928D01*
X6072377Y2972562D01*
X6072377Y2961639D01*
X6065011Y2954273D01*
X6054090Y2950718D01*
X6039611Y2950718D01*
X6028690Y2954273D01*
X6021324Y2961639D01*
X6125463Y3027171D02*
G01*
X6096254Y2950718D01*
X6125463Y3027171D02*
G01*
X6154420Y2950718D01*
X6107175Y2976118D02*
G01*
X6143497Y2976118D01*
X6178550Y3027171D02*
G01*
X6178550Y2950718D01*
X6178550Y3027171D02*
G01*
X6203950Y3027171D01*
X6214872Y3023615D01*
X6221984Y3016250D01*
X6225793Y3008884D01*
X6229350Y2997962D01*
X6229350Y2979928D01*
X6225793Y2969005D01*
X6221984Y2961639D01*
X6214872Y2954273D01*
X6203950Y2950718D01*
X6178550Y2950718D01*
X6275070Y3027171D02*
G01*
X6267958Y3023615D01*
X6260591Y3016250D01*
X6257036Y3008884D01*
X6253479Y2997962D01*
X6253479Y2979928D01*
X6257036Y2969005D01*
X6260591Y2961639D01*
X6267958Y2954273D01*
X6275070Y2950718D01*
X6289802Y2950718D01*
X6296913Y2954273D01*
X6304279Y2961639D01*
X6307836Y2969005D01*
X6311645Y2979928D01*
X6311645Y2997962D01*
X6307836Y3008884D01*
X6304279Y3016250D01*
X6296913Y3023615D01*
X6289802Y3027171D01*
X6275070Y3027171D01*
X6335522Y3027171D02*
G01*
X6335522Y2950718D01*
X6335522Y3027171D02*
G01*
X6368288Y3027171D01*
X6379209Y3023615D01*
X6382765Y3019805D01*
X6386322Y3012694D01*
X6386322Y3005328D01*
X6382765Y2997962D01*
X6379209Y2994405D01*
X6368288Y2990850D01*
X6335522Y2990850D01*
X6360922Y2990850D02*
G01*
X6386322Y2950718D01*
X6410452Y3027171D02*
G01*
X6410452Y2950718D01*
X6410452Y3027171D02*
G01*
X6457695Y3027171D01*
X6410452Y2990850D02*
G01*
X6439661Y2990850D01*
X6410452Y2950718D02*
G01*
X6457695Y2950718D01*
X6532625Y3016250D02*
G01*
X6525259Y3023615D01*
X6514338Y3027171D01*
X6499859Y3027171D01*
X6488938Y3023615D01*
X6481825Y3016250D01*
X6481825Y3008884D01*
X6485381Y3001771D01*
X6488938Y2997962D01*
X6496304Y2994405D01*
X6518147Y2987039D01*
X6525259Y2983484D01*
X6529070Y2979928D01*
X6532625Y2972562D01*
X6532625Y2961639D01*
X6525259Y2954273D01*
X6514338Y2950718D01*
X6499859Y2950718D01*
X6488938Y2954273D01*
X6481825Y2961639D01*
X3341115Y232410D02*
G01*
X3333750Y228600D01*
X3326384Y221487D01*
X3322827Y214121D01*
X3322827Y199644D01*
X3326384Y192278D01*
X3333750Y185165D01*
X3341115Y181355D01*
X3352038Y177800D01*
X3370072Y177800D01*
X3380993Y181355D01*
X3388359Y185165D01*
X3395725Y192278D01*
X3399281Y199644D01*
X3399281Y214121D01*
X3395725Y221487D01*
X3388359Y228600D01*
X3380993Y232410D01*
X3341115Y260095D02*
G01*
X3337306Y260095D01*
X3330193Y263652D01*
X3326384Y267207D01*
X3322827Y274573D01*
X3322827Y289052D01*
X3326384Y296418D01*
X3330193Y299973D01*
X3337306Y303529D01*
X3344672Y303529D01*
X3352038Y299973D01*
X3362959Y292607D01*
X3399281Y256286D01*
X3399281Y307339D01*
X1969515Y219710D02*
G01*
X1962150Y215900D01*
X1954784Y208787D01*
X1951227Y201421D01*
X1951227Y186944D01*
X1954784Y179578D01*
X1962150Y172465D01*
X1969515Y168655D01*
X1980438Y165100D01*
X1998472Y165100D01*
X2009393Y168655D01*
X2016759Y172465D01*
X2024125Y179578D01*
X2027681Y186944D01*
X2027681Y201421D01*
X2024125Y208787D01*
X2016759Y215900D01*
X2009393Y219710D01*
X1951227Y250952D02*
G01*
X1951227Y290829D01*
X1980438Y268986D01*
X1980438Y279907D01*
X1983993Y287273D01*
X1987550Y290829D01*
X1998472Y294639D01*
X2005838Y294639D01*
X2016759Y290829D01*
X2024125Y283718D01*
X2027681Y272795D01*
X2027681Y261873D01*
X2024125Y250952D01*
X2020315Y247395D01*
X2013204Y243586D01*
X2959100Y588771D02*
G01*
X2959100Y534162D01*
X2962656Y523239D01*
X2970022Y515873D01*
X2980943Y512318D01*
X2988309Y512318D01*
X2998977Y515873D01*
X3006343Y523239D01*
X3009900Y534162D01*
X3009900Y588771D01*
X3077718Y588771D02*
G01*
X3041395Y588771D01*
X3037586Y556005D01*
X3041395Y559562D01*
X3052063Y563371D01*
X3062986Y563371D01*
X3073908Y559562D01*
X3081274Y552450D01*
X3084829Y541528D01*
X3084829Y534162D01*
X3081274Y523239D01*
X3073908Y515873D01*
X3062986Y512318D01*
X3052063Y512318D01*
X3041395Y515873D01*
X3037586Y519684D01*
X3034029Y526795D01*
D13*
X6273800Y-296671D02*
G01*
X6273800Y-220218D01*
X6299200Y-296671D02*
G01*
X6248400Y-296671D01*
X6224270Y-296671D02*
G01*
X6173470Y-220218D01*
X6173470Y-296671D02*
G01*
X6224270Y-220218D01*
X6540500Y-296671D02*
G01*
X6540500Y-220218D01*
X6540500Y-296671D02*
G01*
X6507734Y-296671D01*
X6496811Y-293115D01*
X6493256Y-289305D01*
X6489700Y-282194D01*
X6489700Y-274828D01*
X6493256Y-267462D01*
X6496811Y-263905D01*
X6507734Y-260350D01*
X6540500Y-260350D01*
X6515100Y-260350D02*
G01*
X6489700Y-220218D01*
X6465570Y-296671D02*
G01*
X6414770Y-220218D01*
X6414770Y-296671D02*
G01*
X6465570Y-220218D01*
X6845300Y-296671D02*
G01*
X6816090Y-220218D01*
X6787134Y-296671D02*
G01*
X6816090Y-220218D01*
X6708647Y-278384D02*
G01*
X6712204Y-285750D01*
X6719570Y-293115D01*
X6726681Y-296671D01*
X6741413Y-296671D01*
X6748525Y-293115D01*
X6755891Y-285750D01*
X6759447Y-278384D01*
X6763004Y-267462D01*
X6763004Y-249428D01*
X6759447Y-238505D01*
X6755891Y-231139D01*
X6748525Y-223773D01*
X6741413Y-220218D01*
X6726681Y-220218D01*
X6719570Y-223773D01*
X6712204Y-231139D01*
X6708647Y-238505D01*
X6629908Y-278384D02*
G01*
X6633718Y-285750D01*
X6640829Y-293115D01*
X6648195Y-296671D01*
X6662674Y-296671D01*
X6670040Y-293115D01*
X6677406Y-285750D01*
X6680961Y-278384D01*
X6684518Y-267462D01*
X6684518Y-249428D01*
X6680961Y-238505D01*
X6677406Y-231139D01*
X6670040Y-223773D01*
X6662674Y-220218D01*
X6648195Y-220218D01*
X6640829Y-223773D01*
X6633718Y-231139D01*
X6629908Y-238505D01*
X7057390Y-278384D02*
G01*
X7061200Y-285750D01*
X7068311Y-293115D01*
X7075677Y-296671D01*
X7090156Y-296671D01*
X7097522Y-293115D01*
X7104634Y-285750D01*
X7108443Y-278384D01*
X7112000Y-267462D01*
X7112000Y-249428D01*
X7108443Y-238505D01*
X7104634Y-231139D01*
X7097522Y-223773D01*
X7090156Y-220218D01*
X7075677Y-220218D01*
X7068311Y-223773D01*
X7061200Y-231139D01*
X7057390Y-238505D01*
X7057390Y-249428D01*
X7075677Y-249428D02*
G01*
X7057390Y-249428D01*
X7033513Y-296671D02*
G01*
X7033513Y-220218D01*
X7033513Y-296671D02*
G01*
X6982459Y-220218D01*
X6982459Y-296671D02*
G01*
X6982459Y-220218D01*
X6958584Y-296671D02*
G01*
X6958584Y-220218D01*
X6958584Y-296671D02*
G01*
X6933184Y-296671D01*
X6922261Y-293115D01*
X6914895Y-285750D01*
X6911340Y-278384D01*
X6907529Y-267462D01*
X6907529Y-249428D01*
X6911340Y-238505D01*
X6914895Y-231139D01*
X6922261Y-223773D01*
X6933184Y-220218D01*
X6958584Y-220218D01*
G36*
X6642100Y63500D02*
G01*
X6642100Y-139700D01*
X6680200Y-139700D01*
X6680200Y63500D01*
G37*
D14*
X3937203Y-705510D02*
G01*
X3937203Y-645490D01*
X3327196Y-640511D01*
X3327196Y-705510D01*
X3937203Y-945489D02*
G01*
X3937203Y-1010488D01*
X3327196Y-1010488D01*
X3327196Y-945489D01*
X5321096Y-945489D02*
G01*
X5321096Y-1005509D01*
X5931103Y-1010488D01*
X5931103Y-945489D01*
X5321096Y-705510D02*
G01*
X5321096Y-640511D01*
X5931103Y-640511D01*
X5931103Y-705510D01*
D15*
X6680200Y63500D02*
G01*
X6642100Y63500D01*
X6642100Y-139700D01*
X6680200Y-139700D01*
X7086600Y63500D02*
G01*
X6680200Y63500D01*
X6680200Y-139700D01*
X7086600Y-139700D01*
X7086600Y63500D01*
D12*
X3692890Y3267080D02*
G01*
X3692890Y3138586D01*
X3876309Y3138586D01*
X3876309Y3267080D01*
X3692890Y3362319D02*
G01*
X3692890Y3490813D01*
X3876309Y3490813D01*
X3876309Y3362319D01*
D16*
X3545177Y3175698D02*
G01*
X3465174Y3175698D01*
X3576162Y3286673D02*
G01*
X3576162Y3206676D01*
X3434196Y3286673D02*
G01*
X3434196Y3206676D01*
X3576744Y3344263D02*
G01*
X3576744Y3424262D01*
X3545761Y3455245D02*
G01*
X3465763Y3455245D01*
X3434783Y3344263D02*
G01*
X3434783Y3424262D01*
X2155799Y980074D02*
G01*
X2155799Y724804D01*
X2275799Y980074D02*
G01*
X2275799Y1104900D01*
X2155799Y1104900D01*
X2275799Y724804D02*
G01*
X2275799Y596900D01*
X2155799Y596900D01*
X2275799Y724804D02*
G01*
X2275799Y980074D01*
X2155799Y596900D02*
G01*
X1695800Y596900D01*
X1695800Y1104900D02*
G01*
X2155799Y1104900D01*
X2155799Y724804D02*
G01*
X2275799Y724804D01*
X2155799Y980074D02*
G01*
X2275799Y980074D01*
X1695800Y1104900D02*
G01*
X1695800Y596900D01*
X6227528Y798321D02*
G01*
X6227528Y718520D01*
X6991700Y718520D01*
X6991700Y798321D01*
X6108700Y366521D02*
G01*
X6108700Y366521D01*
X6108700Y239521D01*
X7124700Y239521D01*
X7124700Y798321D01*
X6108700Y798321D01*
X6108700Y366521D01*
X6227528Y1458721D02*
G01*
X6227528Y1378920D01*
X6991700Y1378920D01*
X6991700Y1458721D01*
X6108700Y1026921D02*
G01*
X6108700Y1026921D01*
X6108700Y899921D01*
X7124700Y899921D01*
X7124700Y1458721D01*
X6108700Y1458721D01*
X6108700Y1026921D01*
X6227528Y2119121D02*
G01*
X6227528Y2039320D01*
X6991700Y2039320D01*
X6991700Y2119121D01*
X6108700Y1687321D02*
G01*
X6108700Y1687321D01*
X6108700Y1560321D01*
X7124700Y1560321D01*
X7124700Y2119121D01*
X6108700Y2119121D01*
X6108700Y1687321D01*
X2802171Y1843399D02*
G01*
X2802171Y1923201D01*
X2037999Y1923201D01*
X2037999Y1843399D01*
X2921000Y2275199D02*
G01*
X2921000Y2275199D01*
X2921000Y2402199D01*
X1905000Y2402199D01*
X1905000Y1843399D01*
X2921000Y1843399D01*
X2921000Y2275199D01*
X5778500Y2463800D02*
G01*
X5778500Y2336800D01*
X6540500Y2336800D01*
X6540500Y2895600D01*
X5778500Y2895600D01*
X5778500Y2463800D01*
X5842000Y2438400D02*
G01*
X6477000Y2438400D01*
X6477000Y2343150D01*
X5842000Y2343150D01*
X5842000Y2438400D01*
X3175000Y2609199D02*
G01*
X1905000Y2609199D01*
X3175000Y3069198D02*
G01*
X1905000Y3069198D01*
X3175000Y2489200D02*
G01*
X3175000Y3069198D01*
X1905000Y2489200D02*
G01*
X1905000Y3069198D01*
X3175000Y2489200D02*
G01*
X1905000Y2489200D01*
D12*
X3084639Y435119D02*
G01*
X3084639Y294119D01*
X3265360Y294119D02*
G01*
X3265360Y435119D01*
X3250120Y450359D02*
G01*
X3099879Y450359D01*
X3084639Y72880D02*
G01*
X3084639Y213880D01*
X3265360Y213880D02*
G01*
X3265360Y72880D01*
X3250120Y57640D02*
G01*
X3099879Y57640D01*
X2055939Y397019D02*
G01*
X2055939Y256019D01*
X2236660Y256019D02*
G01*
X2236660Y397019D01*
X2221420Y412259D02*
G01*
X2071179Y412259D01*
X2055939Y34780D02*
G01*
X2055939Y175780D01*
X2236660Y175780D02*
G01*
X2236660Y34780D01*
X2221420Y19540D02*
G01*
X2071179Y19540D01*
X2372479Y416539D02*
G01*
X3037720Y416539D01*
X3037720Y142260D01*
X2372479Y142260D01*
X2372479Y416539D01*
D16*
X3793977Y2364196D02*
G01*
X3793977Y2763197D01*
X4110977Y2763197D01*
X4110977Y2466197D01*
X4390976Y2466197D01*
X4390976Y2763197D01*
X4730976Y2763197D01*
X4730976Y2466197D01*
X5012977Y2466197D01*
X5012977Y2762196D01*
X5310974Y2762196D01*
X5310974Y2288197D01*
X5236298Y2762196D02*
G01*
X5236298Y2301196D01*
X3797300Y2236698D02*
G01*
X5321300Y2236698D01*
X3660140Y2925038D02*
G01*
X3660140Y2248890D01*
X3660140Y451586D02*
G01*
X3660140Y374878D01*
X5458459Y2925038D02*
G01*
X5458459Y2248890D01*
X5458459Y451586D02*
G01*
X5458459Y374878D01*
X3660140Y374878D02*
G01*
X3917188Y374878D01*
X5206491Y374878D02*
G01*
X5458459Y374878D01*
X3660140Y2919117D02*
G01*
X5458459Y2919117D01*
D14*
G75*
G01*
X4192194Y-805510D02*
G03*
X4182212Y-805510I-4991J-356D01*
G75*
G01*
X4182212Y-805510D02*
G03*
X4192194Y-805510I4991J356D01*
G75*
G01*
X5066106Y-845490D02*
G03*
X5076088Y-845490I4991J356D01*
G75*
G01*
X5076088Y-845490D02*
G03*
X5066106Y-845490I-4991J-356D01*
D16*
G75*
G01*
X3545761Y3455251D02*
G02*
X3576744Y3424268I0J-30983D01*
G75*
G01*
X3434778Y3424268D02*
G02*
X3465764Y3455251I30983J0D01*
G75*
G01*
X3576163Y3206681D02*
G02*
X3545177Y3175699I-30983J0D01*
G75*
G01*
X3465180Y3175699D02*
G02*
X3434197Y3206681I0J30982D01*
D12*
G75*
G01*
X3265360Y435120D02*
G03*
X3250121Y450360I-15240J0D01*
G75*
G01*
X3099879Y450360D02*
G03*
X3084640Y435120I1J-15240D01*
G75*
G01*
X3265360Y72880D02*
G02*
X3250121Y57640I-15240J0D01*
G75*
G01*
X3099879Y57640D02*
G02*
X3084640Y72880I1J15240D01*
G75*
G01*
X2236660Y397020D02*
G03*
X2221421Y412260I-15240J0D01*
G75*
G01*
X2071179Y412260D02*
G03*
X2055940Y397020I1J-15240D01*
G75*
G01*
X2236660Y34780D02*
G02*
X2221421Y19540I-15240J0D01*
G75*
G01*
X2071179Y19540D02*
G02*
X2055940Y34780I1J15240D01*
D17*
G75*
G01
X3602304Y2279701D02*
G03X3602304Y2279701I-19990J0D01*
M02*
