G04 Layer: BottomPasteMaskLayer*
G04 EasyEDA v6.5.34, 2023-09-27 10:23:30*
G04 87bef9fe7c554d65b7a66a9a83d39501,21748b100a60428d983dd69a996fde11,10*
G04 Gerber Generator version 0.2*
G04 Scale: 100 percent, Rotated: No, Reflected: No *
G04 Dimensions in millimeters *
G04 leading zeros omitted , absolute positions ,4 integer and 5 decimal *
%FSLAX45Y45*%
%MOMM*%

%AMMACRO1*21,1,$1,$2,0,0,$3*%
%ADD10O,1.499997X0.3999992*%
%ADD11MACRO1,0.6X1.2X-90.0000*%
%ADD12MACRO1,3.3X2.4X90.0000*%
%ADD13MACRO1,0.532X1.072X90.0000*%

%LPD*%
G36*
X3783787Y-248513D02*
G01*
X3778808Y-253492D01*
X3778300Y-294487D01*
X3823309Y-294487D01*
X3823309Y-339496D01*
X3779316Y-339496D01*
X3778808Y-381508D01*
X3783787Y-386486D01*
X3898798Y-386486D01*
X3903827Y-381508D01*
X3903827Y-253492D01*
X3898798Y-248513D01*
G37*
G36*
X3568801Y-248513D02*
G01*
X3563823Y-253492D01*
X3563823Y-381508D01*
X3568801Y-386486D01*
X3683812Y-386486D01*
X3688791Y-381508D01*
X3688791Y-339496D01*
X3644290Y-339496D01*
X3644290Y-294487D01*
X3688283Y-294487D01*
X3688791Y-253492D01*
X3683812Y-248513D01*
G37*
G36*
X3783787Y5486D02*
G01*
X3778808Y508D01*
X3778300Y-40487D01*
X3823309Y-40487D01*
X3823309Y-85496D01*
X3779316Y-85496D01*
X3778808Y-127508D01*
X3783787Y-132486D01*
X3898798Y-132486D01*
X3903827Y-127508D01*
X3903827Y508D01*
X3898798Y5486D01*
G37*
G36*
X3568801Y5486D02*
G01*
X3563823Y508D01*
X3563823Y-127508D01*
X3568801Y-132486D01*
X3683812Y-132486D01*
X3688791Y-127508D01*
X3688791Y-85496D01*
X3644290Y-85496D01*
X3644290Y-40487D01*
X3688283Y-40487D01*
X3688791Y508D01*
X3683812Y5486D01*
G37*
G36*
X4447590Y587705D02*
G01*
X4442612Y582676D01*
X4442612Y454710D01*
X4447590Y449681D01*
X4562602Y449681D01*
X4567580Y454710D01*
X4568088Y495706D01*
X4523079Y495706D01*
X4523079Y540715D01*
X4567123Y540715D01*
X4567580Y582676D01*
X4562602Y587705D01*
G37*
G36*
X4662576Y587705D02*
G01*
X4657598Y582676D01*
X4657598Y540715D01*
X4702098Y540715D01*
X4702098Y495706D01*
X4658106Y495706D01*
X4657598Y454710D01*
X4662576Y449681D01*
X4777587Y449681D01*
X4782616Y454710D01*
X4782616Y582676D01*
X4777587Y587705D01*
G37*
G36*
X5233822Y-69291D02*
G01*
X5228793Y-74320D01*
X5228793Y-98501D01*
X5265775Y-98501D01*
X5265775Y-131521D01*
X5228793Y-131521D01*
X5228793Y-154279D01*
X5233822Y-159308D01*
X5313781Y-159308D01*
X5318810Y-154279D01*
X5318810Y-74320D01*
X5313781Y-69291D01*
G37*
G36*
X5074818Y-69291D02*
G01*
X5069789Y-74320D01*
X5069789Y-154279D01*
X5074818Y-159308D01*
X5153812Y-159308D01*
X5158790Y-154279D01*
X5158790Y-131521D01*
X5120792Y-131521D01*
X5120792Y-98501D01*
X5158790Y-98501D01*
X5158790Y-74320D01*
X5153812Y-69291D01*
G37*
G36*
X4049420Y569010D02*
G01*
X4044391Y563981D01*
X4044391Y484022D01*
X4049420Y478993D01*
X4073601Y478993D01*
X4073601Y516026D01*
X4106621Y516026D01*
X4106621Y478993D01*
X4129379Y478993D01*
X4134408Y484022D01*
X4134408Y563981D01*
X4129379Y569010D01*
G37*
G36*
X4049420Y408990D02*
G01*
X4044391Y404012D01*
X4044391Y325018D01*
X4049420Y319989D01*
X4129379Y319989D01*
X4134408Y325018D01*
X4134408Y404012D01*
X4129379Y408990D01*
X4106621Y408990D01*
X4106621Y370992D01*
X4073601Y370992D01*
X4073601Y408990D01*
G37*
G36*
X5246522Y172008D02*
G01*
X5241493Y166979D01*
X5241493Y142798D01*
X5278475Y142798D01*
X5278475Y109778D01*
X5241493Y109778D01*
X5241493Y87020D01*
X5246522Y81991D01*
X5326481Y81991D01*
X5331510Y87020D01*
X5331510Y166979D01*
X5326481Y172008D01*
G37*
G36*
X5087518Y172008D02*
G01*
X5082489Y166979D01*
X5082489Y87020D01*
X5087518Y81991D01*
X5166512Y81991D01*
X5171490Y87020D01*
X5171490Y109778D01*
X5133492Y109778D01*
X5133492Y142798D01*
X5171490Y142798D01*
X5171490Y166979D01*
X5166512Y172008D01*
G37*
G36*
X4285488Y-462280D02*
G01*
X4285488Y-592277D01*
X4345482Y-592277D01*
X4345482Y-462280D01*
G37*
G36*
X4695494Y-462280D02*
G01*
X4695494Y-592277D01*
X4725517Y-592277D01*
X4725517Y-462280D01*
G37*
G36*
X4925517Y-462280D02*
G01*
X4925517Y-592277D01*
X4985512Y-592277D01*
X4985512Y-462280D01*
G37*
G36*
X4595520Y-462280D02*
G01*
X4595520Y-592277D01*
X4625492Y-592277D01*
X4625492Y-462280D01*
G37*
G36*
X4445508Y-462280D02*
G01*
X4445508Y-592277D01*
X4475480Y-592277D01*
X4475480Y-462280D01*
G37*
G36*
X4745482Y-462280D02*
G01*
X4745482Y-592277D01*
X4775504Y-592277D01*
X4775504Y-462280D01*
G37*
G36*
X4495546Y-462280D02*
G01*
X4495546Y-592277D01*
X4525518Y-592277D01*
X4525518Y-462280D01*
G37*
G36*
X4545482Y-462280D02*
G01*
X4545482Y-592277D01*
X4575505Y-592277D01*
X4575505Y-462280D01*
G37*
G36*
X4795520Y-462280D02*
G01*
X4795520Y-592277D01*
X4825492Y-592277D01*
X4825492Y-462280D01*
G37*
G36*
X4645507Y-462280D02*
G01*
X4645507Y-592277D01*
X4675479Y-592277D01*
X4675479Y-462280D01*
G37*
G36*
X4845507Y-462280D02*
G01*
X4845507Y-592277D01*
X4905502Y-592277D01*
X4905502Y-462280D01*
G37*
G36*
X5066538Y-504139D02*
G01*
X5060543Y-504596D01*
X5054650Y-505612D01*
X5048910Y-507238D01*
X5043322Y-509422D01*
X5037988Y-512165D01*
X5033010Y-515416D01*
X5028336Y-519125D01*
X5024018Y-523290D01*
X5020208Y-527913D01*
X5016804Y-532841D01*
X5013960Y-538073D01*
X5011623Y-543610D01*
X5009845Y-549300D01*
X5008676Y-555193D01*
X5008067Y-561136D01*
X5008016Y-644144D01*
X5008321Y-650087D01*
X5009184Y-656031D01*
X5010658Y-661822D01*
X5012740Y-667410D01*
X5015331Y-672795D01*
X5018430Y-677926D01*
X5022037Y-682701D01*
X5026101Y-687070D01*
X5030622Y-691032D01*
X5035448Y-694537D01*
X5040630Y-697534D01*
X5046065Y-699973D01*
X5051755Y-701852D01*
X5057597Y-703224D01*
X5063540Y-703935D01*
X5069484Y-704088D01*
X5075478Y-703630D01*
X5081371Y-702614D01*
X5087112Y-700989D01*
X5092700Y-698804D01*
X5098034Y-696061D01*
X5103012Y-692861D01*
X5107736Y-689102D01*
X5112004Y-684936D01*
X5115864Y-680364D01*
X5119217Y-675386D01*
X5122062Y-670153D01*
X5124399Y-664616D01*
X5126177Y-658926D01*
X5127345Y-653084D01*
X5127955Y-647090D01*
X5128006Y-564134D01*
X5127701Y-558139D01*
X5126837Y-552246D01*
X5125364Y-546455D01*
X5123281Y-540816D01*
X5120690Y-535432D01*
X5117592Y-530301D01*
X5113985Y-525576D01*
X5109921Y-521157D01*
X5105400Y-517194D01*
X5100574Y-513740D01*
X5095392Y-510743D01*
X5089906Y-508254D01*
X5084267Y-506374D01*
X5078425Y-505053D01*
X5072481Y-504291D01*
G37*
G36*
X4201515Y-504139D02*
G01*
X4195521Y-504596D01*
X4189628Y-505612D01*
X4183887Y-507238D01*
X4178300Y-509422D01*
X4172965Y-512165D01*
X4167987Y-515416D01*
X4163263Y-519125D01*
X4158996Y-523290D01*
X4155135Y-527913D01*
X4151782Y-532841D01*
X4148937Y-538073D01*
X4146600Y-543610D01*
X4144822Y-549300D01*
X4143654Y-555193D01*
X4143044Y-561136D01*
X4142994Y-644144D01*
X4143298Y-650087D01*
X4144162Y-656031D01*
X4145635Y-661822D01*
X4147718Y-667410D01*
X4150309Y-672795D01*
X4153408Y-677926D01*
X4157014Y-682701D01*
X4161078Y-687070D01*
X4165600Y-691032D01*
X4170426Y-694537D01*
X4175607Y-697534D01*
X4181094Y-699973D01*
X4186732Y-701852D01*
X4192574Y-703224D01*
X4198518Y-703935D01*
X4204462Y-704088D01*
X4210456Y-703630D01*
X4216349Y-702614D01*
X4222089Y-700989D01*
X4227677Y-698804D01*
X4233011Y-696061D01*
X4237990Y-692861D01*
X4242663Y-689102D01*
X4246981Y-684936D01*
X4250791Y-680364D01*
X4254195Y-675386D01*
X4257040Y-670153D01*
X4259376Y-664616D01*
X4261154Y-658926D01*
X4262323Y-653084D01*
X4262932Y-647090D01*
X4262983Y-564134D01*
X4262678Y-558139D01*
X4261815Y-552246D01*
X4260342Y-546455D01*
X4258259Y-540816D01*
X4255668Y-535432D01*
X4252569Y-530301D01*
X4248962Y-525576D01*
X4244898Y-521157D01*
X4240377Y-517194D01*
X4235551Y-513740D01*
X4230370Y-510743D01*
X4224934Y-508254D01*
X4219244Y-506374D01*
X4213402Y-505053D01*
X4207459Y-504291D01*
G37*
G36*
X5066538Y-932129D02*
G01*
X5060543Y-932586D01*
X5054650Y-933602D01*
X5048910Y-935228D01*
X5043322Y-937412D01*
X5037988Y-940155D01*
X5033010Y-943406D01*
X5028336Y-947115D01*
X5024018Y-951280D01*
X5020208Y-955903D01*
X5016804Y-960831D01*
X5013960Y-966063D01*
X5011623Y-971600D01*
X5009845Y-977290D01*
X5008676Y-983183D01*
X5008067Y-989126D01*
X5008016Y-1052118D01*
X5008321Y-1058062D01*
X5009184Y-1064006D01*
X5010658Y-1069797D01*
X5012740Y-1075436D01*
X5015331Y-1080820D01*
X5018430Y-1085900D01*
X5022037Y-1090676D01*
X5026101Y-1095044D01*
X5030622Y-1099007D01*
X5035448Y-1102512D01*
X5040630Y-1105509D01*
X5046065Y-1107948D01*
X5051755Y-1109878D01*
X5057597Y-1111199D01*
X5063540Y-1111961D01*
X5069484Y-1112113D01*
X5075478Y-1111656D01*
X5081371Y-1110589D01*
X5087112Y-1108964D01*
X5092700Y-1106779D01*
X5098034Y-1104087D01*
X5103012Y-1100836D01*
X5107736Y-1097076D01*
X5112004Y-1092911D01*
X5115864Y-1088339D01*
X5119217Y-1083411D01*
X5122062Y-1078128D01*
X5124399Y-1072642D01*
X5126177Y-1066901D01*
X5127345Y-1061059D01*
X5127955Y-1055116D01*
X5128006Y-992124D01*
X5127701Y-986129D01*
X5126837Y-980236D01*
X5125364Y-974445D01*
X5123281Y-968806D01*
X5120690Y-963421D01*
X5117592Y-958291D01*
X5113985Y-953566D01*
X5109921Y-949147D01*
X5105400Y-945184D01*
X5100574Y-941730D01*
X5095392Y-938733D01*
X5089906Y-936244D01*
X5084267Y-934364D01*
X5078425Y-933043D01*
X5072481Y-932281D01*
G37*
G36*
X4201515Y-932129D02*
G01*
X4195521Y-932586D01*
X4189628Y-933602D01*
X4183887Y-935228D01*
X4178300Y-937412D01*
X4172965Y-940155D01*
X4167987Y-943406D01*
X4163263Y-947115D01*
X4158996Y-951280D01*
X4155135Y-955903D01*
X4151782Y-960831D01*
X4148937Y-966063D01*
X4146600Y-971600D01*
X4144822Y-977290D01*
X4143654Y-983183D01*
X4143044Y-989126D01*
X4142994Y-1052118D01*
X4143298Y-1058062D01*
X4144162Y-1064006D01*
X4145635Y-1069797D01*
X4147718Y-1075436D01*
X4150309Y-1080820D01*
X4153408Y-1085900D01*
X4157014Y-1090676D01*
X4161078Y-1095044D01*
X4165600Y-1099007D01*
X4170426Y-1102512D01*
X4175607Y-1105509D01*
X4181094Y-1107948D01*
X4186732Y-1109878D01*
X4192574Y-1111199D01*
X4198518Y-1111961D01*
X4204462Y-1112113D01*
X4210456Y-1111656D01*
X4216349Y-1110589D01*
X4222089Y-1108964D01*
X4227677Y-1106779D01*
X4233011Y-1104087D01*
X4237990Y-1100836D01*
X4242663Y-1097076D01*
X4246981Y-1092911D01*
X4250791Y-1088339D01*
X4254195Y-1083411D01*
X4257040Y-1078128D01*
X4259376Y-1072642D01*
X4261154Y-1066901D01*
X4262323Y-1061059D01*
X4262932Y-1055116D01*
X4262983Y-992124D01*
X4262678Y-986129D01*
X4261815Y-980236D01*
X4260342Y-974445D01*
X4258259Y-968806D01*
X4255668Y-963421D01*
X4252569Y-958291D01*
X4248962Y-953566D01*
X4244898Y-949147D01*
X4240377Y-945184D01*
X4235551Y-941730D01*
X4230370Y-938733D01*
X4224934Y-936244D01*
X4219244Y-934364D01*
X4213402Y-933043D01*
X4207459Y-932281D01*
G37*
G36*
X4365498Y-462280D02*
G01*
X4365498Y-592277D01*
X4425492Y-592277D01*
X4425492Y-462280D01*
G37*
D10*
G01*
X4561840Y986510D03*
G01*
X4561840Y921486D03*
G01*
X4561840Y856462D03*
G01*
X4561840Y791438D03*
G01*
X3921759Y986510D03*
G01*
X3921759Y921486D03*
G01*
X3921759Y856462D03*
G01*
X3921759Y791438D03*
D11*
G01*
X4875530Y177800D03*
G01*
X4875530Y50800D03*
G01*
X4875530Y-76200D03*
G01*
X4875530Y-203200D03*
G01*
X4293869Y-203200D03*
G01*
X4293869Y-76200D03*
G01*
X4293869Y50800D03*
G01*
X4293869Y177800D03*
D12*
G01*
X4584700Y-12701D03*
D13*
G01*
X4799990Y794003D03*
G01*
X4799990Y889000D03*
G01*
X4799990Y983996D03*
G01*
X5029809Y983996D03*
G01*
X5029809Y889000D03*
G01*
X5029809Y794003D03*
M02*
