G04 Layer: TopLayer*
G04 EasyEDA v6.5.34, 2023-09-27 10:23:30*
G04 87bef9fe7c554d65b7a66a9a83d39501,21748b100a60428d983dd69a996fde11,10*
G04 Gerber Generator version 0.2*
G04 Scale: 100 percent, Rotated: No, Reflected: No *
G04 Dimensions in millimeters *
G04 leading zeros omitted , absolute positions ,4 integer and 5 decimal *
%FSLAX45Y45*%
%MOMM*%

%AMMACRO1*21,1,$1,$2,0,0,$3*%
%ADD10C,0.2540*%
%ADD11C,0.4000*%
%ADD12R,2.4000X2.1001*%
%ADD13R,1.2000X1.5000*%
%ADD14MACRO1,1.377X1.1325X0.0000*%
%ADD15R,1.3770X1.1325*%
%ADD16R,0.9000X0.8000*%
%ADD17MACRO1,1.35X1.41X0.0000*%
%ADD18R,1.3500X1.4100*%
%ADD19R,0.9800X2.4700*%
%ADD20MACRO1,3.6X2.47X0.0000*%
%ADD21R,1.8000X1.0008*%
%ADD22R,1.0008X1.8000*%
%ADD23R,4.0000X4.0000*%
%ADD24O,1.524X2.54*%
%ADD25O,1.1999976X1.7999964*%
%ADD26O,1.1999976X1.9999959999999999*%
%ADD27C,1.8000*%
%ADD28C,1.6000*%
%ADD29C,1.5240*%
%ADD30R,1.8000X1.8000*%
%ADD31O,1.499997X2.999994*%
%ADD32C,4.5000*%
%ADD33C,1.2000*%
%ADD34C,0.0145*%

%LPD*%
G36*
X2157272Y2763164D02*
G01*
X2153615Y2764536D01*
X2150719Y2767177D01*
X2149094Y2770733D01*
X2146808Y2779725D01*
X2141474Y2793542D01*
X2134463Y2806649D01*
X2125878Y2818739D01*
X2115870Y2829712D01*
X2104593Y2839364D01*
X2092248Y2847543D01*
X2078939Y2854147D01*
X2064969Y2859074D01*
X2050491Y2862275D01*
X2035708Y2863646D01*
X2020874Y2863189D01*
X2006244Y2860903D01*
X1991969Y2856839D01*
X1978304Y2851048D01*
X1965452Y2843631D01*
X1953615Y2834690D01*
X1942947Y2824378D01*
X1940864Y2821787D01*
X1937664Y2819146D01*
X1933702Y2818028D01*
X1929587Y2818587D01*
X1926031Y2820720D01*
X1923643Y2824124D01*
X1922830Y2828137D01*
X1922830Y2860802D01*
X1923592Y2864662D01*
X1925777Y2867964D01*
X1958035Y2900222D01*
X1961337Y2902407D01*
X1965198Y2903169D01*
X3088640Y2903169D01*
X3092500Y2902407D01*
X3095802Y2900222D01*
X3115005Y2881071D01*
X3117189Y2877769D01*
X3117951Y2873857D01*
X3117189Y2869996D01*
X3115005Y2866694D01*
X3111703Y2864459D01*
X3107791Y2863697D01*
X2958490Y2863697D01*
X2952038Y2863088D01*
X2946349Y2861360D01*
X2941066Y2858516D01*
X2936443Y2854756D01*
X2932684Y2850134D01*
X2929839Y2844850D01*
X2928112Y2839161D01*
X2927502Y2832709D01*
X2927502Y2785872D01*
X2926689Y2781960D01*
X2924454Y2778607D01*
X2921152Y2776423D01*
X2917190Y2775712D01*
X2913278Y2776524D01*
X2910027Y2778810D01*
X2907842Y2782214D01*
X2903474Y2793542D01*
X2896463Y2806649D01*
X2887878Y2818739D01*
X2877870Y2829712D01*
X2866593Y2839364D01*
X2854248Y2847543D01*
X2840939Y2854147D01*
X2826969Y2859074D01*
X2812491Y2862275D01*
X2797708Y2863646D01*
X2782874Y2863189D01*
X2768244Y2860903D01*
X2753969Y2856839D01*
X2740304Y2851048D01*
X2727452Y2843631D01*
X2715615Y2834690D01*
X2704947Y2824378D01*
X2695651Y2812796D01*
X2687828Y2800197D01*
X2681630Y2786735D01*
X2675483Y2767685D01*
X2672791Y2764891D01*
X2669184Y2763316D01*
X2665272Y2763164D01*
X2661615Y2764536D01*
X2658719Y2767177D01*
X2657094Y2770733D01*
X2654808Y2779725D01*
X2649474Y2793542D01*
X2642463Y2806649D01*
X2633878Y2818739D01*
X2623870Y2829712D01*
X2612593Y2839364D01*
X2600248Y2847543D01*
X2586939Y2854147D01*
X2572969Y2859074D01*
X2558491Y2862275D01*
X2543708Y2863646D01*
X2528874Y2863189D01*
X2514244Y2860903D01*
X2499969Y2856839D01*
X2486304Y2851048D01*
X2473452Y2843631D01*
X2461615Y2834690D01*
X2450947Y2824378D01*
X2441651Y2812796D01*
X2433828Y2800197D01*
X2427630Y2786735D01*
X2421483Y2767685D01*
X2418791Y2764891D01*
X2415184Y2763316D01*
X2411272Y2763164D01*
X2407615Y2764536D01*
X2404719Y2767177D01*
X2403094Y2770733D01*
X2400808Y2779725D01*
X2395474Y2793542D01*
X2388463Y2806649D01*
X2379878Y2818739D01*
X2369870Y2829712D01*
X2358593Y2839364D01*
X2346248Y2847543D01*
X2332939Y2854147D01*
X2318969Y2859074D01*
X2304491Y2862275D01*
X2289708Y2863646D01*
X2274874Y2863189D01*
X2260244Y2860903D01*
X2245969Y2856839D01*
X2232304Y2851048D01*
X2219452Y2843631D01*
X2207615Y2834690D01*
X2196947Y2824378D01*
X2187651Y2812796D01*
X2179828Y2800197D01*
X2173630Y2786735D01*
X2167483Y2767685D01*
X2164791Y2764891D01*
X2161184Y2763316D01*
G37*

%LPD*%
G36*
X3164840Y1973580D02*
G01*
X3160979Y1974392D01*
X3157677Y1976577D01*
X3155492Y1979879D01*
X3154730Y1983739D01*
X3154730Y2254199D01*
X3155391Y2257856D01*
X3157270Y2260955D01*
X3160166Y2263241D01*
X3168751Y2267712D01*
X3179318Y2275078D01*
X3183382Y2276754D01*
X3187750Y2276551D01*
X3191662Y2274519D01*
X3194354Y2271014D01*
X3195320Y2266746D01*
X3195320Y2068474D01*
X3196488Y2060193D01*
X3199028Y2052675D01*
X3202889Y2045716D01*
X3208274Y2039213D01*
X3256534Y1990953D01*
X3258769Y1987651D01*
X3259531Y1983739D01*
X3258769Y1979879D01*
X3256534Y1976577D01*
X3253232Y1974392D01*
X3249371Y1973580D01*
G37*

%LPD*%
G36*
X3408934Y1964943D02*
G01*
X3405073Y1965756D01*
X3401771Y1967941D01*
X3284677Y2085035D01*
X3282492Y2088337D01*
X3281730Y2092198D01*
X3281730Y3229102D01*
X3282492Y3232962D01*
X3284677Y3236264D01*
X3387039Y3338626D01*
X3390341Y3340811D01*
X3394201Y3341573D01*
X3421938Y3341573D01*
X3426104Y3340709D01*
X3429558Y3338118D01*
X3434892Y3327755D01*
X3439414Y3322574D01*
X3442157Y3319068D01*
X3443122Y3314700D01*
X3442157Y3310331D01*
X3434892Y3301644D01*
X3432048Y3296361D01*
X3430320Y3290671D01*
X3429711Y3284220D01*
X3429711Y3266389D01*
X3428898Y3262528D01*
X3426714Y3259226D01*
X3384600Y3217062D01*
X3379622Y3210407D01*
X3376066Y3203295D01*
X3373882Y3195624D01*
X3373120Y3187242D01*
X3373120Y2246274D01*
X3374288Y2237994D01*
X3376828Y2230475D01*
X3380689Y2223516D01*
X3386074Y2217013D01*
X3436213Y2166874D01*
X3437737Y2164943D01*
X3441141Y2156460D01*
X3443071Y2153005D01*
X3445306Y2149703D01*
X3447897Y2146655D01*
X3450691Y2143810D01*
X3453790Y2141270D01*
X3457041Y2139035D01*
X3460546Y2137054D01*
X3464204Y2135479D01*
X3467963Y2134209D01*
X3471875Y2133295D01*
X3475837Y2132736D01*
X3480054Y2132533D01*
X3543909Y2132533D01*
X3547567Y2131872D01*
X3550716Y2129891D01*
X3553002Y2126945D01*
X3554018Y2123389D01*
X3554374Y2119782D01*
X3556101Y2114042D01*
X3558946Y2108758D01*
X3562705Y2104186D01*
X3567328Y2100376D01*
X3572611Y2097582D01*
X3578301Y2095804D01*
X3584752Y2095195D01*
X3761740Y2095195D01*
X3765651Y2094433D01*
X3768902Y2092198D01*
X3771137Y2088946D01*
X3771900Y2085035D01*
X3771900Y2012442D01*
X3771137Y2008530D01*
X3768902Y2005279D01*
X3765651Y2003043D01*
X3761740Y2002282D01*
X3584752Y2002282D01*
X3578301Y2001672D01*
X3572611Y1999894D01*
X3567328Y1997100D01*
X3562705Y1993290D01*
X3558946Y1988718D01*
X3556101Y1983435D01*
X3554374Y1977694D01*
X3554018Y1974138D01*
X3553002Y1970582D01*
X3550716Y1967585D01*
X3547567Y1965655D01*
X3543909Y1964943D01*
G37*

%LPD*%
G36*
X5887212Y1831746D02*
G01*
X5883351Y1832813D01*
X5878931Y1834997D01*
X5871260Y1837182D01*
X5862878Y1837943D01*
X5574690Y1837943D01*
X5571032Y1838655D01*
X5567883Y1840585D01*
X5565597Y1843582D01*
X5564581Y1847138D01*
X5564225Y1850694D01*
X5562854Y1855266D01*
X5562396Y1858213D01*
X5562854Y1861210D01*
X5564225Y1865782D01*
X5564581Y1869389D01*
X5565597Y1872945D01*
X5567883Y1875891D01*
X5571032Y1877872D01*
X5574690Y1878533D01*
X5871616Y1878533D01*
X5875223Y1877872D01*
X5878372Y1875942D01*
X5880608Y1873097D01*
X5887212Y1860448D01*
X5895390Y1848713D01*
X5897422Y1845310D01*
X5898032Y1841347D01*
X5897016Y1837486D01*
X5894628Y1834286D01*
X5891174Y1832305D01*
G37*

%LPD*%
G36*
X3291840Y1637588D02*
G01*
X3287928Y1638350D01*
X3284677Y1640535D01*
X3157677Y1767535D01*
X3155492Y1770837D01*
X3154730Y1774698D01*
X3154730Y1932939D01*
X3155492Y1936851D01*
X3157677Y1940102D01*
X3160979Y1942338D01*
X3164840Y1943100D01*
X3285083Y1943100D01*
X3288995Y1942338D01*
X3292297Y1940102D01*
X3299002Y1933397D01*
X3301237Y1930095D01*
X3302000Y1926183D01*
X3302000Y1647748D01*
X3301237Y1643837D01*
X3299002Y1640535D01*
X3295751Y1638350D01*
G37*

%LPD*%
G36*
X3345484Y1583944D02*
G01*
X3341573Y1584706D01*
X3338271Y1586941D01*
X3335477Y1589735D01*
X3333292Y1593037D01*
X3332530Y1596898D01*
X3332530Y1889709D01*
X3333292Y1893620D01*
X3335477Y1896922D01*
X3338779Y1899107D01*
X3343401Y1899869D01*
X3347262Y1899107D01*
X3350564Y1896922D01*
X3360165Y1887321D01*
X3363315Y1884476D01*
X3366465Y1882089D01*
X3369868Y1879955D01*
X3373475Y1878177D01*
X3377184Y1876755D01*
X3380994Y1875637D01*
X3384956Y1874926D01*
X3388918Y1874570D01*
X3392881Y1874570D01*
X3396843Y1874926D01*
X3400806Y1875637D01*
X3407156Y1877771D01*
X3411016Y1878533D01*
X3543909Y1878533D01*
X3547567Y1877872D01*
X3550716Y1875942D01*
X3553002Y1872945D01*
X3554018Y1869389D01*
X3554374Y1865782D01*
X3555746Y1861210D01*
X3556203Y1858213D01*
X3555746Y1855266D01*
X3554374Y1850694D01*
X3553764Y1844293D01*
X3553764Y1745183D01*
X3554374Y1738782D01*
X3555746Y1734210D01*
X3556203Y1731213D01*
X3555746Y1728266D01*
X3554374Y1723694D01*
X3553764Y1717293D01*
X3553764Y1618183D01*
X3554374Y1611782D01*
X3555746Y1607210D01*
X3556203Y1604213D01*
X3555746Y1601266D01*
X3554374Y1596694D01*
X3554018Y1593088D01*
X3553002Y1589532D01*
X3550716Y1586585D01*
X3547567Y1584604D01*
X3543909Y1583944D01*
G37*

%LPD*%
G36*
X5979160Y1553768D02*
G01*
X5975248Y1554530D01*
X5971946Y1556766D01*
X5829198Y1699463D01*
X5822543Y1704441D01*
X5815431Y1707997D01*
X5807760Y1710182D01*
X5799378Y1710943D01*
X5574690Y1710943D01*
X5571032Y1711655D01*
X5567883Y1713585D01*
X5565597Y1716582D01*
X5564581Y1720138D01*
X5564225Y1723694D01*
X5562854Y1728266D01*
X5562396Y1731213D01*
X5562854Y1734210D01*
X5564225Y1738782D01*
X5564581Y1742389D01*
X5565597Y1745945D01*
X5567883Y1748942D01*
X5571032Y1750872D01*
X5574690Y1751533D01*
X5841238Y1751533D01*
X5845098Y1750771D01*
X5848400Y1748586D01*
X5986322Y1610664D01*
X5988507Y1607362D01*
X5989320Y1603502D01*
X5989320Y1563928D01*
X5988507Y1560068D01*
X5986322Y1556766D01*
X5983020Y1554530D01*
G37*

%LPD*%
G36*
X5902960Y1452168D02*
G01*
X5899048Y1452930D01*
X5895746Y1455166D01*
X5778449Y1572412D01*
X5771794Y1577441D01*
X5764682Y1580997D01*
X5757011Y1583182D01*
X5748578Y1583944D01*
X5574690Y1583944D01*
X5571032Y1584604D01*
X5567883Y1586585D01*
X5565597Y1589532D01*
X5564581Y1593088D01*
X5564225Y1596694D01*
X5562854Y1601266D01*
X5562396Y1604213D01*
X5562854Y1607210D01*
X5564225Y1611782D01*
X5564581Y1615389D01*
X5565597Y1618945D01*
X5567883Y1621942D01*
X5571032Y1623872D01*
X5574690Y1624533D01*
X5777738Y1624533D01*
X5781598Y1623771D01*
X5784900Y1621586D01*
X5910122Y1496364D01*
X5912307Y1493062D01*
X5913120Y1489202D01*
X5913120Y1462328D01*
X5912307Y1458468D01*
X5910122Y1455166D01*
X5906820Y1452930D01*
G37*

%LPD*%
G36*
X5839460Y1147368D02*
G01*
X5835548Y1148130D01*
X5832246Y1150366D01*
X5664098Y1318412D01*
X5657494Y1323441D01*
X5650331Y1326997D01*
X5642711Y1329182D01*
X5634278Y1329944D01*
X5574690Y1329944D01*
X5571032Y1330604D01*
X5567883Y1332585D01*
X5565597Y1335532D01*
X5564581Y1339088D01*
X5564225Y1342694D01*
X5562854Y1347266D01*
X5562396Y1350213D01*
X5562854Y1353210D01*
X5564225Y1357782D01*
X5564886Y1364183D01*
X5564886Y1463294D01*
X5564225Y1469694D01*
X5562854Y1474266D01*
X5562396Y1477213D01*
X5562854Y1480210D01*
X5564225Y1484782D01*
X5564581Y1488389D01*
X5565597Y1491945D01*
X5567883Y1494891D01*
X5571032Y1496872D01*
X5574690Y1497533D01*
X5726988Y1497533D01*
X5730849Y1496771D01*
X5734151Y1494536D01*
X5846622Y1382064D01*
X5848807Y1378762D01*
X5849620Y1374902D01*
X5849620Y1157528D01*
X5848807Y1153668D01*
X5846622Y1150366D01*
X5843320Y1148130D01*
G37*

%LPD*%
G36*
X2715260Y1083868D02*
G01*
X2711348Y1084630D01*
X2708046Y1086866D01*
X2598877Y1196035D01*
X2596692Y1199337D01*
X2595930Y1203198D01*
X2595930Y1581150D01*
X2596591Y1584858D01*
X2598623Y1588058D01*
X2601671Y1590294D01*
X2606903Y1592834D01*
X2618790Y1600555D01*
X2629560Y1609750D01*
X2639060Y1620215D01*
X2647188Y1631848D01*
X2648508Y1634337D01*
X2650896Y1637385D01*
X2654300Y1639265D01*
X2658160Y1639773D01*
X2661920Y1638807D01*
X2665018Y1636471D01*
X2674112Y1619148D01*
X2682240Y1607515D01*
X2691739Y1597050D01*
X2702509Y1587855D01*
X2714396Y1580134D01*
X2719628Y1577594D01*
X2722676Y1575358D01*
X2724708Y1572158D01*
X2725420Y1568450D01*
X2725420Y1094028D01*
X2724607Y1090168D01*
X2722422Y1086866D01*
X2719120Y1084630D01*
G37*

%LPD*%
G36*
X3535476Y1075944D02*
G01*
X3531362Y1076807D01*
X3527958Y1079296D01*
X3525824Y1082903D01*
X3525367Y1087069D01*
X3526739Y1101344D01*
X3526282Y1115517D01*
X3523996Y1129487D01*
X3519982Y1143050D01*
X3514242Y1156004D01*
X3506927Y1168095D01*
X3498087Y1179169D01*
X3487928Y1189024D01*
X3476548Y1197508D01*
X3464255Y1204468D01*
X3451098Y1209751D01*
X3437432Y1213358D01*
X3423361Y1215186D01*
X3409238Y1215186D01*
X3395167Y1213358D01*
X3381501Y1209751D01*
X3368344Y1204468D01*
X3356051Y1197508D01*
X3348736Y1192072D01*
X3344672Y1190244D01*
X3340201Y1190345D01*
X3336239Y1192326D01*
X3333496Y1195832D01*
X3332530Y1200200D01*
X3332530Y1487373D01*
X3333292Y1491284D01*
X3335477Y1494536D01*
X3338779Y1496771D01*
X3342640Y1497533D01*
X3543909Y1497533D01*
X3547567Y1496872D01*
X3550716Y1494891D01*
X3553002Y1491945D01*
X3554018Y1488389D01*
X3554374Y1484782D01*
X3555746Y1480210D01*
X3556203Y1477213D01*
X3555746Y1474266D01*
X3554374Y1469694D01*
X3553764Y1463294D01*
X3553764Y1364183D01*
X3554374Y1357782D01*
X3555746Y1353210D01*
X3556203Y1350213D01*
X3555746Y1347266D01*
X3554374Y1342694D01*
X3553764Y1336294D01*
X3553764Y1237183D01*
X3554374Y1230782D01*
X3555746Y1226210D01*
X3556203Y1223213D01*
X3555746Y1220266D01*
X3554374Y1215694D01*
X3553764Y1209294D01*
X3553764Y1110183D01*
X3554374Y1103782D01*
X3555746Y1099210D01*
X3556203Y1096213D01*
X3555746Y1093266D01*
X3554374Y1088694D01*
X3554018Y1085088D01*
X3553002Y1081532D01*
X3550716Y1078585D01*
X3547567Y1076604D01*
X3543909Y1075944D01*
G37*

%LPD*%
G36*
X5763260Y1058468D02*
G01*
X5759348Y1059230D01*
X5756046Y1061466D01*
X5625998Y1191463D01*
X5619343Y1196441D01*
X5612231Y1199997D01*
X5604560Y1202182D01*
X5596178Y1202944D01*
X5574690Y1202944D01*
X5571032Y1203655D01*
X5567883Y1205585D01*
X5565597Y1208582D01*
X5564581Y1212138D01*
X5564225Y1215694D01*
X5562854Y1220266D01*
X5562396Y1223213D01*
X5562854Y1226210D01*
X5564225Y1230782D01*
X5564581Y1234389D01*
X5565597Y1237945D01*
X5567883Y1240891D01*
X5571032Y1242872D01*
X5574690Y1243533D01*
X5612638Y1243533D01*
X5616549Y1242771D01*
X5619851Y1240536D01*
X5770422Y1089964D01*
X5772607Y1086662D01*
X5773420Y1082802D01*
X5773420Y1068628D01*
X5772607Y1064768D01*
X5770422Y1061466D01*
X5767120Y1059230D01*
G37*

%LPD*%
G36*
X3344672Y910844D02*
G01*
X3340201Y910945D01*
X3336239Y912926D01*
X3333496Y916432D01*
X3332530Y920800D01*
X3332530Y1009446D01*
X3333242Y1013206D01*
X3335274Y1016457D01*
X3338423Y1018692D01*
X3342132Y1019606D01*
X3345942Y1019048D01*
X3362096Y1008634D01*
X3374847Y1002487D01*
X3388258Y998016D01*
X3402177Y995324D01*
X3416300Y994410D01*
X3430422Y995324D01*
X3444341Y998016D01*
X3452317Y1000658D01*
X3455517Y1001217D01*
X3458718Y1000658D01*
X3461613Y999134D01*
X3465728Y996035D01*
X3472891Y992479D01*
X3480511Y990295D01*
X3488944Y989533D01*
X3543909Y989533D01*
X3547567Y988872D01*
X3550716Y986891D01*
X3553002Y983945D01*
X3554018Y980389D01*
X3554374Y976782D01*
X3555746Y972210D01*
X3556203Y969213D01*
X3555746Y966266D01*
X3554374Y961694D01*
X3554018Y958087D01*
X3553002Y954532D01*
X3550716Y951585D01*
X3547567Y949604D01*
X3543909Y948944D01*
X3494887Y948893D01*
X3486658Y947775D01*
X3479088Y945235D01*
X3472027Y941273D01*
X3467303Y937564D01*
X3462172Y932484D01*
X3458921Y930351D01*
X3455060Y929589D01*
X3451098Y930351D01*
X3437432Y933958D01*
X3423361Y935786D01*
X3409238Y935786D01*
X3395167Y933958D01*
X3381501Y930351D01*
X3368344Y925068D01*
X3356051Y918108D01*
X3348736Y912672D01*
G37*

%LPD*%
G36*
X5672480Y418998D02*
G01*
X5668416Y420776D01*
X5665470Y424078D01*
X5661710Y430784D01*
X5656326Y437286D01*
X5567832Y525780D01*
X5565648Y529082D01*
X5564886Y532942D01*
X5564886Y574294D01*
X5564225Y580694D01*
X5562854Y585266D01*
X5562396Y588213D01*
X5562854Y591210D01*
X5564225Y595782D01*
X5564886Y602183D01*
X5564886Y701294D01*
X5564225Y707694D01*
X5562854Y712266D01*
X5562396Y715213D01*
X5562854Y718210D01*
X5564225Y722782D01*
X5564886Y729183D01*
X5564886Y828294D01*
X5564225Y834694D01*
X5562854Y839266D01*
X5562396Y842213D01*
X5562854Y845210D01*
X5564225Y849782D01*
X5564886Y856183D01*
X5564886Y955294D01*
X5564225Y961694D01*
X5562854Y966266D01*
X5562396Y969213D01*
X5562854Y972210D01*
X5564225Y976782D01*
X5564886Y983183D01*
X5564886Y1082294D01*
X5564225Y1088694D01*
X5562854Y1093266D01*
X5562396Y1096213D01*
X5562854Y1099210D01*
X5564225Y1103782D01*
X5564581Y1107236D01*
X5565648Y1110894D01*
X5567984Y1113891D01*
X5571236Y1115822D01*
X5574995Y1116380D01*
X5578703Y1115568D01*
X5581853Y1113434D01*
X5681522Y1013764D01*
X5683707Y1010462D01*
X5684520Y1006602D01*
X5684520Y429006D01*
X5683554Y424688D01*
X5680811Y421182D01*
X5676900Y419150D01*
G37*

%LPD*%
G36*
X5383530Y269341D02*
G01*
X5379872Y270154D01*
X5376824Y272288D01*
X5329377Y319735D01*
X5327192Y323037D01*
X5326430Y326898D01*
X5326430Y438302D01*
X5327243Y442417D01*
X5329682Y445770D01*
X5333238Y447903D01*
X5337352Y448462D01*
X5341366Y447293D01*
X5342686Y446582D01*
X5348427Y444804D01*
X5354878Y444195D01*
X5522976Y444195D01*
X5526887Y443433D01*
X5530189Y441198D01*
X5579922Y391464D01*
X5582107Y388162D01*
X5582920Y384302D01*
X5582920Y300177D01*
X5582158Y296367D01*
X5580024Y293065D01*
X5576824Y290880D01*
X5573064Y290017D01*
X5569204Y290626D01*
X5565902Y292658D01*
X5555284Y302260D01*
X5543651Y310388D01*
X5531104Y316941D01*
X5517845Y321818D01*
X5504027Y324967D01*
X5489956Y326339D01*
X5475782Y325882D01*
X5461812Y323596D01*
X5448249Y319582D01*
X5435295Y313842D01*
X5423204Y306527D01*
X5412130Y297688D01*
X5402275Y287528D01*
X5393791Y276148D01*
X5392877Y274472D01*
X5390438Y271627D01*
X5387187Y269849D01*
G37*

%LPD*%
G36*
X3520490Y237947D02*
G01*
X3516629Y238709D01*
X3513277Y240893D01*
X3511092Y244195D01*
X3510330Y248107D01*
X3510279Y395325D01*
X3509111Y403606D01*
X3506571Y411124D01*
X3502710Y418084D01*
X3497326Y424586D01*
X3335477Y586435D01*
X3333292Y589737D01*
X3332530Y593598D01*
X3332530Y730046D01*
X3333242Y733806D01*
X3335274Y737057D01*
X3338423Y739292D01*
X3342132Y740206D01*
X3345942Y739648D01*
X3362096Y729234D01*
X3374847Y723087D01*
X3388258Y718616D01*
X3402177Y715924D01*
X3416300Y715010D01*
X3430422Y715924D01*
X3444341Y718616D01*
X3457752Y723087D01*
X3470503Y729234D01*
X3482390Y736955D01*
X3493160Y746150D01*
X3502660Y756615D01*
X3510787Y768248D01*
X3517341Y780796D01*
X3522218Y794054D01*
X3525367Y807872D01*
X3526739Y821944D01*
X3526282Y836117D01*
X3523894Y850747D01*
X3524148Y855065D01*
X3526180Y858926D01*
X3529685Y861568D01*
X3533901Y862533D01*
X3543909Y862533D01*
X3547567Y861872D01*
X3550716Y859891D01*
X3553002Y856945D01*
X3554018Y853389D01*
X3554374Y849782D01*
X3555746Y845210D01*
X3556203Y842213D01*
X3555746Y839266D01*
X3554374Y834694D01*
X3553764Y828294D01*
X3553764Y729183D01*
X3554374Y722782D01*
X3555746Y718210D01*
X3556203Y715213D01*
X3555746Y712266D01*
X3554374Y707694D01*
X3553764Y701294D01*
X3553764Y602183D01*
X3554374Y595782D01*
X3555746Y591210D01*
X3556203Y588213D01*
X3555746Y585266D01*
X3554374Y580694D01*
X3553764Y574294D01*
X3553764Y475183D01*
X3554374Y468782D01*
X3556101Y463042D01*
X3558946Y457758D01*
X3562705Y453186D01*
X3567328Y449376D01*
X3572611Y446582D01*
X3574491Y445973D01*
X3578250Y443890D01*
X3580790Y440435D01*
X3581704Y436270D01*
X3581704Y307238D01*
X3581095Y303834D01*
X3579418Y300837D01*
X3576777Y298551D01*
X3569004Y293827D01*
X3557930Y284988D01*
X3548075Y274828D01*
X3539591Y263448D01*
X3532632Y251155D01*
X3529888Y244297D01*
X3527704Y240944D01*
X3524402Y238709D01*
G37*

%LPD*%
G36*
X1686814Y228600D02*
G01*
X1682953Y229362D01*
X1679651Y231597D01*
X1677416Y234848D01*
X1676654Y238760D01*
X1676654Y389026D01*
X1677466Y393090D01*
X1679905Y396494D01*
X1683461Y398627D01*
X1687575Y399186D01*
X1691589Y398018D01*
X1694789Y395325D01*
X1696618Y391617D01*
X1698548Y384302D01*
X1703832Y371144D01*
X1710791Y358851D01*
X1719275Y347472D01*
X1729130Y337312D01*
X1740204Y328472D01*
X1752295Y321157D01*
X1754124Y320344D01*
X1757324Y318109D01*
X1759457Y314858D01*
X1760220Y311048D01*
X1760220Y238760D01*
X1759407Y234848D01*
X1757222Y231597D01*
X1753920Y229362D01*
X1750060Y228600D01*
G37*

%LPD*%
G36*
X5565546Y68173D02*
G01*
X5561685Y68935D01*
X5558028Y71424D01*
X5546648Y79908D01*
X5534355Y86868D01*
X5520944Y92303D01*
X5517540Y94488D01*
X5515305Y97891D01*
X5514594Y101854D01*
X5515457Y105816D01*
X5517794Y109118D01*
X5521248Y111252D01*
X5531104Y114858D01*
X5543651Y121412D01*
X5555284Y129539D01*
X5565902Y139141D01*
X5569204Y141173D01*
X5573064Y141782D01*
X5576824Y140919D01*
X5580024Y138734D01*
X5582158Y135432D01*
X5582920Y131622D01*
X5582920Y85598D01*
X5582107Y81737D01*
X5579922Y78435D01*
X5572658Y71170D01*
X5569407Y68986D01*
G37*

%LPD*%
G36*
X3413760Y-21031D02*
G01*
X3409848Y-20269D01*
X3406546Y-18034D01*
X3386277Y2235D01*
X3384092Y5537D01*
X3383330Y9398D01*
X3383330Y391871D01*
X3384092Y395732D01*
X3386277Y399034D01*
X3389579Y401269D01*
X3393440Y402031D01*
X3397351Y401269D01*
X3400653Y399034D01*
X3420922Y378764D01*
X3423107Y375462D01*
X3423920Y371602D01*
X3423920Y-10871D01*
X3423107Y-14732D01*
X3420922Y-18034D01*
X3417620Y-20269D01*
G37*

%LPD*%
G36*
X6056579Y-199593D02*
G01*
X6052667Y-198374D01*
X6042355Y-192532D01*
X6029198Y-187248D01*
X6015532Y-183642D01*
X6001461Y-181813D01*
X5987338Y-181813D01*
X5973267Y-183642D01*
X5959449Y-187299D01*
X5955588Y-188010D01*
X5951728Y-187248D01*
X5948476Y-185064D01*
X5938977Y-175564D01*
X5936792Y-172262D01*
X5936030Y-168402D01*
X5936030Y-78028D01*
X5936792Y-74168D01*
X5938977Y-70866D01*
X5942279Y-68630D01*
X5946190Y-67868D01*
X5950051Y-68630D01*
X5953353Y-70866D01*
X6064808Y-182321D01*
X6067094Y-185775D01*
X6067806Y-189839D01*
X6066790Y-193852D01*
X6064300Y-197154D01*
X6060694Y-199186D01*
G37*

%LPD*%
G36*
X2842260Y-203200D02*
G01*
X2838348Y-202438D01*
X2835097Y-200202D01*
X2832862Y-196951D01*
X2832100Y-193040D01*
X2832100Y398729D01*
X2832862Y402640D01*
X2835097Y405942D01*
X2838348Y408127D01*
X2842260Y408889D01*
X2884576Y408889D01*
X2891028Y409549D01*
X2896768Y411276D01*
X2901950Y414070D01*
X2908249Y419303D01*
X2910230Y422148D01*
X2913227Y427735D01*
X2914954Y433476D01*
X2915615Y439877D01*
X2915615Y685901D01*
X2914954Y692353D01*
X2913227Y698042D01*
X2910433Y703326D01*
X2906623Y707948D01*
X2902000Y711708D01*
X2896768Y714552D01*
X2891028Y716280D01*
X2884576Y716889D01*
X2525623Y716889D01*
X2519172Y716280D01*
X2513431Y714552D01*
X2508199Y711708D01*
X2503576Y707948D01*
X2499766Y703326D01*
X2496972Y698042D01*
X2495448Y693013D01*
X2493365Y689254D01*
X2489911Y686714D01*
X2485694Y685800D01*
X2397760Y685800D01*
X2393848Y686562D01*
X2390597Y688797D01*
X2388362Y692048D01*
X2387600Y695960D01*
X2387600Y1233728D01*
X2388057Y1236726D01*
X2389327Y1239418D01*
X2391105Y1242060D01*
X2397252Y1254556D01*
X2401773Y1267764D01*
X2404465Y1281480D01*
X2405430Y1295755D01*
X2405430Y1396644D01*
X2404465Y1410919D01*
X2401773Y1424635D01*
X2397252Y1437843D01*
X2391105Y1450340D01*
X2389327Y1452981D01*
X2388057Y1455674D01*
X2387600Y1458671D01*
X2387600Y1932939D01*
X2388362Y1936851D01*
X2390597Y1940102D01*
X2393848Y1942338D01*
X2397760Y1943100D01*
X3058160Y1943100D01*
X3062020Y1942338D01*
X3065322Y1940102D01*
X3067507Y1936851D01*
X3068320Y1932939D01*
X3068320Y1750974D01*
X3069488Y1742693D01*
X3072028Y1735175D01*
X3075889Y1728216D01*
X3081274Y1721713D01*
X3292703Y1510284D01*
X3297986Y1506067D01*
X3300120Y1503832D01*
X3301542Y1501038D01*
X3302000Y1497939D01*
X3302000Y644448D01*
X3301237Y640537D01*
X3299002Y637235D01*
X3295751Y635050D01*
X3291840Y634288D01*
X3287928Y635050D01*
X3284677Y637235D01*
X2814777Y1107135D01*
X2812592Y1110437D01*
X2811830Y1114298D01*
X2811830Y1568450D01*
X2812491Y1572158D01*
X2814523Y1575358D01*
X2817571Y1577594D01*
X2822803Y1580134D01*
X2834690Y1587855D01*
X2845460Y1597050D01*
X2854960Y1607515D01*
X2863088Y1619148D01*
X2869641Y1631696D01*
X2874518Y1644954D01*
X2877667Y1658772D01*
X2879039Y1672843D01*
X2878582Y1687017D01*
X2876296Y1700987D01*
X2872282Y1714550D01*
X2866542Y1727504D01*
X2859227Y1739595D01*
X2850388Y1750669D01*
X2840228Y1760524D01*
X2828848Y1769008D01*
X2816555Y1775968D01*
X2803398Y1781251D01*
X2789732Y1784857D01*
X2775661Y1786686D01*
X2761538Y1786686D01*
X2747467Y1784857D01*
X2733802Y1781251D01*
X2720644Y1775968D01*
X2708351Y1769008D01*
X2696972Y1760524D01*
X2686812Y1750669D01*
X2677972Y1739595D01*
X2672435Y1730451D01*
X2669387Y1727301D01*
X2665323Y1725675D01*
X2660904Y1725980D01*
X2657043Y1728063D01*
X2654452Y1731619D01*
X2650642Y1740204D01*
X2643327Y1752295D01*
X2634488Y1763369D01*
X2624328Y1773224D01*
X2612948Y1781708D01*
X2600655Y1788668D01*
X2587498Y1793951D01*
X2573832Y1797557D01*
X2559761Y1799386D01*
X2545638Y1799386D01*
X2531567Y1797557D01*
X2517902Y1793951D01*
X2504744Y1788668D01*
X2492451Y1781708D01*
X2481072Y1773224D01*
X2470912Y1763369D01*
X2462072Y1752295D01*
X2454757Y1740204D01*
X2449017Y1727250D01*
X2445004Y1713687D01*
X2442718Y1699717D01*
X2442260Y1685543D01*
X2443632Y1671472D01*
X2446782Y1657654D01*
X2451658Y1644396D01*
X2458212Y1631848D01*
X2466340Y1620215D01*
X2475839Y1609750D01*
X2486609Y1600555D01*
X2498496Y1592834D01*
X2503728Y1590294D01*
X2506776Y1588058D01*
X2508808Y1584858D01*
X2509520Y1581150D01*
X2509520Y1179474D01*
X2510688Y1171194D01*
X2513228Y1163675D01*
X2517089Y1156716D01*
X2522474Y1150213D01*
X3293922Y378764D01*
X3296107Y375462D01*
X3296920Y371602D01*
X3296920Y264160D01*
X3296107Y260248D01*
X3293922Y256997D01*
X3290620Y254762D01*
X3286760Y254000D01*
X3251149Y254000D01*
X3241903Y255016D01*
X3108096Y255016D01*
X3098850Y254000D01*
X3061716Y254000D01*
X3060700Y252984D01*
X3060700Y-193040D01*
X3059938Y-196951D01*
X3057702Y-200202D01*
X3054451Y-202438D01*
X3050540Y-203200D01*
G37*

%LPD*%
G36*
X6588556Y-418185D02*
G01*
X6584543Y-416864D01*
X6581444Y-413969D01*
X6579768Y-410108D01*
X6578904Y-405688D01*
X6574434Y-392633D01*
X6568338Y-380238D01*
X6560667Y-368808D01*
X6551574Y-358394D01*
X6541211Y-349300D01*
X6529730Y-341630D01*
X6517385Y-335534D01*
X6500266Y-329844D01*
X6497878Y-328066D01*
X6078677Y91135D01*
X6076492Y94437D01*
X6075730Y98298D01*
X6075680Y1627225D01*
X6074511Y1635506D01*
X6071971Y1643024D01*
X6068110Y1649984D01*
X6062726Y1656486D01*
X5911037Y1808175D01*
X5908751Y1811680D01*
X5908090Y1815846D01*
X5909208Y1819960D01*
X5911850Y1823212D01*
X5915609Y1825142D01*
X5919825Y1825345D01*
X5923788Y1823872D01*
X5927496Y1821434D01*
X5940247Y1815287D01*
X5953658Y1810816D01*
X5967577Y1808124D01*
X5981700Y1807210D01*
X5995822Y1808124D01*
X6009741Y1810816D01*
X6023152Y1815287D01*
X6035903Y1821434D01*
X6047790Y1829155D01*
X6058560Y1838350D01*
X6068060Y1848815D01*
X6076188Y1860448D01*
X6082741Y1872996D01*
X6087618Y1886254D01*
X6090767Y1900072D01*
X6092139Y1914143D01*
X6091682Y1928317D01*
X6089396Y1942287D01*
X6085382Y1955850D01*
X6079642Y1968804D01*
X6072327Y1980895D01*
X6063488Y1991969D01*
X6053328Y2001824D01*
X6041948Y2010308D01*
X6029655Y2017268D01*
X6016498Y2022551D01*
X6002832Y2026157D01*
X5988761Y2027986D01*
X5974638Y2027986D01*
X5960567Y2026157D01*
X5946902Y2022551D01*
X5933744Y2017268D01*
X5921451Y2010308D01*
X5910072Y2001824D01*
X5899912Y1991969D01*
X5891072Y1980895D01*
X5884367Y1969820D01*
X5882081Y1967230D01*
X5879084Y1965553D01*
X5875680Y1964943D01*
X5574690Y1964943D01*
X5571032Y1965604D01*
X5567883Y1967585D01*
X5565597Y1970532D01*
X5564581Y1974088D01*
X5564225Y1977694D01*
X5562854Y1982266D01*
X5562396Y1985213D01*
X5562854Y1988210D01*
X5564225Y1992782D01*
X5564886Y1999183D01*
X5564886Y2098294D01*
X5564225Y2104694D01*
X5562498Y2110435D01*
X5559653Y2115718D01*
X5555894Y2120290D01*
X5551271Y2124100D01*
X5545988Y2126894D01*
X5540298Y2128672D01*
X5533847Y2129282D01*
X5354878Y2129282D01*
X5348427Y2128672D01*
X5342686Y2126894D01*
X5337454Y2124100D01*
X5332831Y2120290D01*
X5329021Y2115718D01*
X5326227Y2110435D01*
X5324500Y2104694D01*
X5323840Y2098294D01*
X5323840Y1999183D01*
X5324500Y1992782D01*
X5325872Y1988210D01*
X5326329Y1985213D01*
X5325872Y1982266D01*
X5324500Y1977694D01*
X5323840Y1971293D01*
X5323840Y1872183D01*
X5324500Y1865782D01*
X5325872Y1861210D01*
X5326329Y1858213D01*
X5325872Y1855266D01*
X5324500Y1850694D01*
X5323840Y1844293D01*
X5323840Y1745183D01*
X5324500Y1738782D01*
X5325872Y1734210D01*
X5326329Y1731213D01*
X5325872Y1728266D01*
X5324500Y1723694D01*
X5323840Y1717293D01*
X5323840Y1618183D01*
X5324500Y1611782D01*
X5325872Y1607210D01*
X5326329Y1604213D01*
X5325872Y1601266D01*
X5324500Y1596694D01*
X5323840Y1590294D01*
X5323840Y1491183D01*
X5324500Y1484782D01*
X5325872Y1480210D01*
X5326329Y1477213D01*
X5325872Y1474266D01*
X5324500Y1469694D01*
X5323840Y1463294D01*
X5323840Y1364183D01*
X5324500Y1357782D01*
X5325872Y1353210D01*
X5326329Y1350213D01*
X5325872Y1347266D01*
X5324500Y1342694D01*
X5323840Y1336294D01*
X5323840Y1237183D01*
X5324500Y1230782D01*
X5325872Y1226210D01*
X5326329Y1223213D01*
X5325872Y1220266D01*
X5324500Y1215694D01*
X5323840Y1209294D01*
X5323840Y1110183D01*
X5324500Y1103782D01*
X5325872Y1099210D01*
X5326329Y1096213D01*
X5325872Y1093266D01*
X5324500Y1088694D01*
X5323840Y1082294D01*
X5323840Y983183D01*
X5324500Y976782D01*
X5325872Y972210D01*
X5326329Y969213D01*
X5325872Y966266D01*
X5324500Y961694D01*
X5323840Y955294D01*
X5323840Y856183D01*
X5324500Y849782D01*
X5325872Y845210D01*
X5326329Y842213D01*
X5325872Y839266D01*
X5324500Y834694D01*
X5323840Y828294D01*
X5323840Y729183D01*
X5324500Y722782D01*
X5325872Y718210D01*
X5326329Y715213D01*
X5325872Y712266D01*
X5324500Y707694D01*
X5323840Y701294D01*
X5323840Y664768D01*
X5323078Y660857D01*
X5320893Y657555D01*
X5251500Y588162D01*
X5246522Y581507D01*
X5242966Y574395D01*
X5240782Y566724D01*
X5240020Y558342D01*
X5240020Y303174D01*
X5241188Y294894D01*
X5243728Y287375D01*
X5247589Y280416D01*
X5252974Y273913D01*
X5342737Y184200D01*
X5349392Y179222D01*
X5356504Y175666D01*
X5364276Y173431D01*
X5370271Y172770D01*
X5378297Y172669D01*
X5381802Y172059D01*
X5384850Y170281D01*
X5387086Y167538D01*
X5393791Y155651D01*
X5402275Y144272D01*
X5412130Y134112D01*
X5423204Y125272D01*
X5435295Y117957D01*
X5448249Y112217D01*
X5450890Y111404D01*
X5454548Y109474D01*
X5457139Y106172D01*
X5458155Y102158D01*
X5457545Y98094D01*
X5455310Y94589D01*
X5451856Y92252D01*
X5438444Y86868D01*
X5426151Y79908D01*
X5414772Y71424D01*
X5404612Y61569D01*
X5395772Y50495D01*
X5388457Y38404D01*
X5382717Y25450D01*
X5378704Y11887D01*
X5376418Y-2082D01*
X5375960Y-16256D01*
X5377332Y-30327D01*
X5380482Y-44145D01*
X5385358Y-57404D01*
X5391912Y-69951D01*
X5400040Y-81584D01*
X5409539Y-92049D01*
X5420309Y-101244D01*
X5432196Y-108966D01*
X5444947Y-115112D01*
X5458358Y-119583D01*
X5472277Y-122275D01*
X5486400Y-123189D01*
X5500522Y-122275D01*
X5514441Y-119583D01*
X5527852Y-115112D01*
X5540603Y-108966D01*
X5552490Y-101244D01*
X5563260Y-92049D01*
X5572760Y-81584D01*
X5580888Y-69951D01*
X5587441Y-57404D01*
X5592318Y-44145D01*
X5595416Y-30480D01*
X5596432Y-27838D01*
X5598160Y-25552D01*
X5657799Y34137D01*
X5662777Y40792D01*
X5665216Y45669D01*
X5668111Y49174D01*
X5672175Y51104D01*
X5676646Y51054D01*
X5680710Y49072D01*
X5683504Y45567D01*
X5684520Y41148D01*
X5684520Y-28702D01*
X5683707Y-32562D01*
X5681522Y-35864D01*
X5573064Y-144322D01*
X5569762Y-146507D01*
X5565902Y-147320D01*
X3654298Y-147320D01*
X3650437Y-146507D01*
X3647135Y-144322D01*
X3513277Y-10464D01*
X3511092Y-7162D01*
X3510330Y-3302D01*
X3510330Y158292D01*
X3511092Y162204D01*
X3513277Y165506D01*
X3516629Y167690D01*
X3520490Y168452D01*
X3524402Y167690D01*
X3527704Y165455D01*
X3529888Y162102D01*
X3532632Y155244D01*
X3539591Y142951D01*
X3548075Y131572D01*
X3557930Y121412D01*
X3569004Y112572D01*
X3581095Y105257D01*
X3594049Y99517D01*
X3607612Y95504D01*
X3621582Y93218D01*
X3635756Y92760D01*
X3649827Y94132D01*
X3663645Y97282D01*
X3676904Y102158D01*
X3689451Y108712D01*
X3701084Y116839D01*
X3711549Y126339D01*
X3720744Y137109D01*
X3728465Y148996D01*
X3734612Y161747D01*
X3739083Y175158D01*
X3741775Y189077D01*
X3742690Y203200D01*
X3741775Y217322D01*
X3739083Y231241D01*
X3734612Y244652D01*
X3728465Y257403D01*
X3720744Y269290D01*
X3711549Y280060D01*
X3701084Y289560D01*
X3685286Y300634D01*
X3683355Y303784D01*
X3682695Y307390D01*
X3682695Y434035D01*
X3683457Y437946D01*
X3685692Y441198D01*
X3688994Y443433D01*
X3692855Y444195D01*
X3763721Y444195D01*
X3770172Y444804D01*
X3775913Y446582D01*
X3781145Y449376D01*
X3785768Y453186D01*
X3789578Y457758D01*
X3792372Y463042D01*
X3794099Y468782D01*
X3794760Y475183D01*
X3794760Y574294D01*
X3794099Y580694D01*
X3792728Y585266D01*
X3792270Y588213D01*
X3792728Y591210D01*
X3794099Y595782D01*
X3794760Y602183D01*
X3794760Y701294D01*
X3794099Y707694D01*
X3792728Y712266D01*
X3792270Y715213D01*
X3792728Y718210D01*
X3794099Y722782D01*
X3794760Y729183D01*
X3794760Y828294D01*
X3794099Y834694D01*
X3792728Y839266D01*
X3792270Y842213D01*
X3792728Y845210D01*
X3794099Y849782D01*
X3794760Y856183D01*
X3794760Y955294D01*
X3794099Y961694D01*
X3792728Y966266D01*
X3792270Y969213D01*
X3792728Y972210D01*
X3794099Y976782D01*
X3794760Y983183D01*
X3794760Y1082294D01*
X3794099Y1088694D01*
X3792728Y1093266D01*
X3792270Y1096213D01*
X3792728Y1099210D01*
X3794099Y1103782D01*
X3794760Y1110183D01*
X3794760Y1209294D01*
X3794099Y1215694D01*
X3792728Y1220266D01*
X3792270Y1223213D01*
X3792728Y1226210D01*
X3794099Y1230782D01*
X3794760Y1237183D01*
X3794760Y1336294D01*
X3794099Y1342694D01*
X3792728Y1347266D01*
X3792270Y1350213D01*
X3792728Y1353210D01*
X3794099Y1357782D01*
X3794760Y1364183D01*
X3794760Y1463294D01*
X3794099Y1469694D01*
X3792728Y1474266D01*
X3792270Y1477213D01*
X3792728Y1480210D01*
X3794099Y1484782D01*
X3794760Y1491183D01*
X3794760Y1590294D01*
X3794099Y1596694D01*
X3792728Y1601266D01*
X3792270Y1604213D01*
X3792728Y1607210D01*
X3794099Y1611782D01*
X3794760Y1618183D01*
X3794760Y1717293D01*
X3794099Y1723694D01*
X3792728Y1728266D01*
X3792270Y1731213D01*
X3792728Y1734210D01*
X3794099Y1738782D01*
X3794760Y1745183D01*
X3794760Y1844293D01*
X3794099Y1850694D01*
X3792728Y1855266D01*
X3792270Y1858213D01*
X3792728Y1861210D01*
X3794099Y1865782D01*
X3794760Y1872183D01*
X3794760Y1957476D01*
X3795166Y1960372D01*
X3796385Y1963013D01*
X3799738Y1968804D01*
X3801719Y1974850D01*
X3802430Y1981454D01*
X3802430Y2107946D01*
X3801719Y2114550D01*
X3799738Y2120595D01*
X3796588Y2126132D01*
X3792321Y2130856D01*
X3787140Y2134616D01*
X3781298Y2137206D01*
X3775100Y2138527D01*
X3771646Y2138680D01*
X3710940Y2138680D01*
X3707079Y2139492D01*
X3703777Y2141677D01*
X3701592Y2144979D01*
X3700830Y2148840D01*
X3700830Y2195677D01*
X3701592Y2199589D01*
X3703777Y2202840D01*
X3707028Y2205075D01*
X3710889Y2205837D01*
X5638749Y2217369D01*
X5645353Y2218131D01*
X5651398Y2220112D01*
X5656884Y2223363D01*
X5661609Y2227630D01*
X5665317Y2232863D01*
X5667857Y2238705D01*
X5669127Y2244902D01*
X5669330Y2248154D01*
X5669330Y2969209D01*
X5670092Y2973120D01*
X5672277Y2976422D01*
X5675579Y2978607D01*
X5679490Y2979369D01*
X6601307Y2979369D01*
X6605168Y2978607D01*
X6608470Y2976422D01*
X6610705Y2973120D01*
X6611467Y2969209D01*
X6607911Y1932939D01*
X6606895Y1928571D01*
X6604152Y1925066D01*
X6600139Y1923084D01*
X6595668Y1923034D01*
X6591604Y1924862D01*
X6588759Y1928266D01*
X6584188Y1937004D01*
X6576059Y1948586D01*
X6566560Y1959102D01*
X6555790Y1968246D01*
X6543903Y1975967D01*
X6531152Y1982114D01*
X6517741Y1986584D01*
X6503822Y1989277D01*
X6489700Y1990191D01*
X6475577Y1989277D01*
X6461658Y1986584D01*
X6448247Y1982114D01*
X6435496Y1975967D01*
X6423609Y1968246D01*
X6412839Y1959102D01*
X6403340Y1948586D01*
X6395212Y1937004D01*
X6388658Y1924456D01*
X6383782Y1911146D01*
X6380632Y1897380D01*
X6379260Y1883257D01*
X6379718Y1869135D01*
X6382004Y1855114D01*
X6386017Y1841550D01*
X6391757Y1828596D01*
X6399072Y1816506D01*
X6407912Y1805432D01*
X6418072Y1795576D01*
X6429451Y1787143D01*
X6441744Y1780184D01*
X6454902Y1774850D01*
X6468567Y1771294D01*
X6482638Y1769465D01*
X6496761Y1769465D01*
X6510832Y1771294D01*
X6524498Y1774850D01*
X6537655Y1780184D01*
X6549948Y1787143D01*
X6561328Y1795576D01*
X6571488Y1805432D01*
X6580327Y1816506D01*
X6590334Y1832813D01*
X6593636Y1834946D01*
X6597548Y1835657D01*
X6601358Y1834845D01*
X6604609Y1832610D01*
X6606794Y1829307D01*
X6607556Y1825447D01*
X6605676Y1276807D01*
X6604660Y1272489D01*
X6601917Y1268984D01*
X6597903Y1267002D01*
X6593433Y1266901D01*
X6589369Y1268780D01*
X6586474Y1272184D01*
X6584188Y1276604D01*
X6576059Y1288186D01*
X6566560Y1298702D01*
X6555790Y1307846D01*
X6543903Y1315567D01*
X6531152Y1321714D01*
X6517741Y1326184D01*
X6503822Y1328877D01*
X6489700Y1329791D01*
X6475577Y1328877D01*
X6461658Y1326184D01*
X6448247Y1321714D01*
X6435496Y1315567D01*
X6423609Y1307846D01*
X6412839Y1298702D01*
X6403340Y1288186D01*
X6395212Y1276604D01*
X6388658Y1264056D01*
X6383782Y1250746D01*
X6380632Y1236980D01*
X6379260Y1222857D01*
X6379718Y1208735D01*
X6382004Y1194714D01*
X6386017Y1181150D01*
X6391757Y1168196D01*
X6399072Y1156106D01*
X6407912Y1145032D01*
X6418072Y1135176D01*
X6429451Y1126744D01*
X6441744Y1119784D01*
X6454902Y1114450D01*
X6468567Y1110894D01*
X6482638Y1109065D01*
X6496761Y1109065D01*
X6510832Y1110894D01*
X6524498Y1114450D01*
X6537655Y1119784D01*
X6549948Y1126744D01*
X6561328Y1135176D01*
X6571488Y1145032D01*
X6580327Y1156106D01*
X6586423Y1166164D01*
X6589420Y1169314D01*
X6593484Y1170940D01*
X6597853Y1170686D01*
X6601714Y1168603D01*
X6604355Y1165148D01*
X6605270Y1160881D01*
X6603390Y620725D01*
X6602425Y616407D01*
X6599631Y612902D01*
X6595668Y610920D01*
X6591198Y610819D01*
X6587134Y612648D01*
X6584188Y616204D01*
X6576059Y627786D01*
X6566560Y638302D01*
X6555790Y647446D01*
X6543903Y655167D01*
X6531152Y661314D01*
X6517741Y665784D01*
X6503822Y668477D01*
X6489700Y669391D01*
X6475577Y668477D01*
X6461658Y665784D01*
X6448247Y661314D01*
X6435496Y655167D01*
X6423609Y647446D01*
X6412839Y638302D01*
X6403340Y627786D01*
X6395212Y616204D01*
X6388658Y603656D01*
X6383782Y590346D01*
X6380632Y576580D01*
X6379260Y562457D01*
X6379718Y548335D01*
X6382004Y534314D01*
X6386017Y520750D01*
X6391757Y507796D01*
X6399072Y495706D01*
X6407912Y484632D01*
X6418072Y474776D01*
X6429451Y466343D01*
X6441744Y459384D01*
X6454902Y454050D01*
X6468567Y450494D01*
X6482638Y448665D01*
X6496761Y448665D01*
X6510832Y450494D01*
X6524498Y454050D01*
X6537655Y459384D01*
X6549948Y466343D01*
X6561328Y474776D01*
X6571488Y484632D01*
X6580327Y495706D01*
X6584137Y502005D01*
X6587134Y505155D01*
X6591198Y506780D01*
X6595567Y506526D01*
X6599428Y504494D01*
X6602069Y500989D01*
X6602984Y496722D01*
X6599885Y-408127D01*
X6598970Y-412292D01*
X6596481Y-415696D01*
X6592773Y-417779D01*
G37*

%LPC*%
G36*
X4067810Y269138D02*
G01*
X4166870Y269138D01*
X4173321Y269798D01*
X4177893Y271170D01*
X4180840Y271627D01*
X4183786Y271170D01*
X4188358Y269798D01*
X4194810Y269138D01*
X4293870Y269138D01*
X4300321Y269798D01*
X4304893Y271170D01*
X4307840Y271627D01*
X4310786Y271170D01*
X4315358Y269798D01*
X4321810Y269138D01*
X4420870Y269138D01*
X4427321Y269798D01*
X4431893Y271170D01*
X4434840Y271627D01*
X4437786Y271170D01*
X4442358Y269798D01*
X4448810Y269138D01*
X4547870Y269138D01*
X4554321Y269798D01*
X4558893Y271170D01*
X4561840Y271627D01*
X4564786Y271170D01*
X4569358Y269798D01*
X4575810Y269138D01*
X4674870Y269138D01*
X4681321Y269798D01*
X4685893Y271170D01*
X4688840Y271627D01*
X4691786Y271170D01*
X4696358Y269798D01*
X4702810Y269138D01*
X4801870Y269138D01*
X4808321Y269798D01*
X4812893Y271170D01*
X4815840Y271627D01*
X4818786Y271170D01*
X4823358Y269798D01*
X4829810Y269138D01*
X4928870Y269138D01*
X4935321Y269798D01*
X4939893Y271170D01*
X4942840Y271627D01*
X4945786Y271170D01*
X4950358Y269798D01*
X4956810Y269138D01*
X5055870Y269138D01*
X5062321Y269798D01*
X5066893Y271170D01*
X5069840Y271627D01*
X5072786Y271170D01*
X5077358Y269798D01*
X5083810Y269138D01*
X5182870Y269138D01*
X5189321Y269798D01*
X5195011Y271526D01*
X5200294Y274320D01*
X5204917Y278130D01*
X5208676Y282752D01*
X5211521Y287985D01*
X5213248Y293725D01*
X5213908Y300177D01*
X5213908Y479145D01*
X5213248Y485597D01*
X5211521Y491337D01*
X5208676Y496570D01*
X5204917Y501192D01*
X5200294Y505002D01*
X5195011Y507796D01*
X5189321Y509524D01*
X5182870Y510184D01*
X5083810Y510184D01*
X5077358Y509524D01*
X5072786Y508152D01*
X5069840Y507695D01*
X5066893Y508152D01*
X5062321Y509524D01*
X5055870Y510184D01*
X4956810Y510184D01*
X4950358Y509524D01*
X4945786Y508152D01*
X4942840Y507695D01*
X4939893Y508152D01*
X4935321Y509524D01*
X4928870Y510184D01*
X4829810Y510184D01*
X4823358Y509524D01*
X4818786Y508152D01*
X4815840Y507695D01*
X4812893Y508152D01*
X4808321Y509524D01*
X4801870Y510184D01*
X4702810Y510184D01*
X4696358Y509524D01*
X4691786Y508152D01*
X4688840Y507695D01*
X4685893Y508152D01*
X4681321Y509524D01*
X4674870Y510184D01*
X4575810Y510184D01*
X4569358Y509524D01*
X4564786Y508152D01*
X4561840Y507695D01*
X4558893Y508152D01*
X4554321Y509524D01*
X4547870Y510184D01*
X4448810Y510184D01*
X4442358Y509524D01*
X4437786Y508152D01*
X4434840Y507695D01*
X4431893Y508152D01*
X4427321Y509524D01*
X4420870Y510184D01*
X4321810Y510184D01*
X4315358Y509524D01*
X4310786Y508152D01*
X4307840Y507695D01*
X4304893Y508152D01*
X4300321Y509524D01*
X4293870Y510184D01*
X4194810Y510184D01*
X4188358Y509524D01*
X4183786Y508152D01*
X4180840Y507695D01*
X4177893Y508152D01*
X4173321Y509524D01*
X4166870Y510184D01*
X4067810Y510184D01*
X4061358Y509524D01*
X4055668Y507796D01*
X4050385Y505002D01*
X4045762Y501192D01*
X4042003Y496570D01*
X4039158Y491337D01*
X4037431Y485597D01*
X4036822Y479145D01*
X4036822Y300177D01*
X4037431Y293725D01*
X4039158Y287985D01*
X4042003Y282752D01*
X4045762Y278130D01*
X4050385Y274320D01*
X4055668Y271526D01*
X4061358Y269798D01*
G37*
G36*
X6228638Y448665D02*
G01*
X6242761Y448665D01*
X6256832Y450494D01*
X6270498Y454050D01*
X6283655Y459384D01*
X6295948Y466343D01*
X6307328Y474776D01*
X6317488Y484632D01*
X6326327Y495706D01*
X6333642Y507796D01*
X6339382Y520750D01*
X6343396Y534314D01*
X6345682Y548335D01*
X6346139Y562457D01*
X6344767Y576580D01*
X6341618Y590346D01*
X6336741Y603656D01*
X6330188Y616204D01*
X6322060Y627786D01*
X6312560Y638302D01*
X6301790Y647446D01*
X6289903Y655167D01*
X6277152Y661314D01*
X6263741Y665784D01*
X6249822Y668477D01*
X6235700Y669391D01*
X6221577Y668477D01*
X6207658Y665784D01*
X6194247Y661314D01*
X6181496Y655167D01*
X6169609Y647446D01*
X6158839Y638302D01*
X6149340Y627786D01*
X6141212Y616204D01*
X6134658Y603656D01*
X6129782Y590346D01*
X6126632Y576580D01*
X6125260Y562457D01*
X6125718Y548335D01*
X6128004Y534314D01*
X6132017Y520750D01*
X6137757Y507796D01*
X6145072Y495706D01*
X6153912Y484632D01*
X6164072Y474776D01*
X6175451Y466343D01*
X6187744Y459384D01*
X6200902Y454050D01*
X6214567Y450494D01*
G37*
G36*
X6228638Y1109065D02*
G01*
X6242761Y1109065D01*
X6256832Y1110894D01*
X6270498Y1114450D01*
X6283655Y1119784D01*
X6295948Y1126744D01*
X6307328Y1135176D01*
X6317488Y1145032D01*
X6326327Y1156106D01*
X6333642Y1168196D01*
X6339382Y1181150D01*
X6343396Y1194714D01*
X6345682Y1208735D01*
X6346139Y1222857D01*
X6344767Y1236980D01*
X6341618Y1250746D01*
X6336741Y1264056D01*
X6330188Y1276604D01*
X6322060Y1288186D01*
X6312560Y1298702D01*
X6301790Y1307846D01*
X6289903Y1315567D01*
X6277152Y1321714D01*
X6263741Y1326184D01*
X6249822Y1328877D01*
X6235700Y1329791D01*
X6221577Y1328877D01*
X6207658Y1326184D01*
X6194247Y1321714D01*
X6181496Y1315567D01*
X6169609Y1307846D01*
X6158839Y1298702D01*
X6149340Y1288186D01*
X6141212Y1276604D01*
X6134658Y1264056D01*
X6129782Y1250746D01*
X6126632Y1236980D01*
X6125260Y1222857D01*
X6125718Y1208735D01*
X6128004Y1194714D01*
X6132017Y1181150D01*
X6137757Y1168196D01*
X6145072Y1156106D01*
X6153912Y1145032D01*
X6164072Y1135176D01*
X6175451Y1126744D01*
X6187744Y1119784D01*
X6200902Y1114450D01*
X6214567Y1110894D01*
G37*
G36*
X4289755Y1204163D02*
G01*
X4688789Y1204163D01*
X4695240Y1204823D01*
X4700930Y1206550D01*
X4706213Y1209344D01*
X4710836Y1213154D01*
X4714595Y1217777D01*
X4717440Y1223010D01*
X4719167Y1228750D01*
X4719777Y1235202D01*
X4719777Y1634185D01*
X4719167Y1640636D01*
X4717440Y1646326D01*
X4714595Y1651609D01*
X4710836Y1656232D01*
X4706213Y1659991D01*
X4700930Y1662836D01*
X4695240Y1664563D01*
X4688789Y1665173D01*
X4289755Y1665173D01*
X4283354Y1664563D01*
X4277614Y1662836D01*
X4272381Y1659991D01*
X4267758Y1656232D01*
X4263948Y1651609D01*
X4261154Y1646326D01*
X4259427Y1640636D01*
X4258767Y1634185D01*
X4258767Y1235202D01*
X4259427Y1228750D01*
X4261154Y1223010D01*
X4263948Y1217777D01*
X4267758Y1213154D01*
X4272381Y1209344D01*
X4277614Y1206550D01*
X4283354Y1204823D01*
G37*
G36*
X6228638Y1769465D02*
G01*
X6242761Y1769465D01*
X6256832Y1771294D01*
X6270498Y1774850D01*
X6283655Y1780184D01*
X6295948Y1787143D01*
X6307328Y1795576D01*
X6317488Y1805432D01*
X6326327Y1816506D01*
X6333642Y1828596D01*
X6339382Y1841550D01*
X6343396Y1855114D01*
X6345682Y1869135D01*
X6346139Y1883257D01*
X6344767Y1897380D01*
X6341618Y1911146D01*
X6336741Y1924456D01*
X6330188Y1937004D01*
X6322060Y1948586D01*
X6312560Y1959102D01*
X6301790Y1968246D01*
X6289903Y1975967D01*
X6277152Y1982114D01*
X6263741Y1986584D01*
X6249822Y1989277D01*
X6235700Y1990191D01*
X6221577Y1989277D01*
X6207658Y1986584D01*
X6194247Y1982114D01*
X6181496Y1975967D01*
X6169609Y1968246D01*
X6158839Y1959102D01*
X6149340Y1948586D01*
X6141212Y1937004D01*
X6134658Y1924456D01*
X6129782Y1911146D01*
X6126632Y1897380D01*
X6125260Y1883257D01*
X6125718Y1869135D01*
X6128004Y1855114D01*
X6132017Y1841550D01*
X6137757Y1828596D01*
X6145072Y1816506D01*
X6153912Y1805432D01*
X6164072Y1795576D01*
X6175451Y1787143D01*
X6187744Y1780184D01*
X6200902Y1774850D01*
X6214567Y1771294D01*
G37*
G36*
X5905500Y2484120D02*
G01*
X5919419Y2485034D01*
X5933135Y2487726D01*
X5946343Y2492248D01*
X5958840Y2498394D01*
X5970422Y2506167D01*
X5980938Y2515362D01*
X5990132Y2525877D01*
X5997905Y2537460D01*
X6004052Y2549956D01*
X6008573Y2563164D01*
X6011265Y2576880D01*
X6012180Y2590800D01*
X6011265Y2604719D01*
X6008573Y2618435D01*
X6004052Y2631643D01*
X5997905Y2644140D01*
X5990132Y2655722D01*
X5980938Y2666238D01*
X5970422Y2675432D01*
X5958840Y2683205D01*
X5946343Y2689352D01*
X5933135Y2693873D01*
X5919419Y2696565D01*
X5905500Y2697480D01*
X5891580Y2696565D01*
X5877864Y2693873D01*
X5864656Y2689352D01*
X5852160Y2683205D01*
X5840577Y2675432D01*
X5830062Y2666238D01*
X5820867Y2655722D01*
X5813094Y2644140D01*
X5806948Y2631643D01*
X5802426Y2618435D01*
X5799734Y2604719D01*
X5798820Y2590800D01*
X5799734Y2576880D01*
X5802426Y2563164D01*
X5806948Y2549956D01*
X5813094Y2537460D01*
X5820867Y2525877D01*
X5830062Y2515362D01*
X5840577Y2506167D01*
X5852160Y2498394D01*
X5864656Y2492248D01*
X5877864Y2487726D01*
X5891580Y2485034D01*
G37*
G36*
X6159500Y2484120D02*
G01*
X6173419Y2485034D01*
X6187135Y2487726D01*
X6200343Y2492248D01*
X6212840Y2498394D01*
X6224422Y2506167D01*
X6234938Y2515362D01*
X6244132Y2525877D01*
X6251905Y2537460D01*
X6258052Y2549956D01*
X6262573Y2563164D01*
X6265265Y2576880D01*
X6266180Y2590800D01*
X6265265Y2604719D01*
X6262573Y2618435D01*
X6258052Y2631643D01*
X6251905Y2644140D01*
X6244132Y2655722D01*
X6234938Y2666238D01*
X6224422Y2675432D01*
X6212840Y2683205D01*
X6200343Y2689352D01*
X6187135Y2693873D01*
X6173419Y2696565D01*
X6159500Y2697480D01*
X6145580Y2696565D01*
X6131864Y2693873D01*
X6118656Y2689352D01*
X6106160Y2683205D01*
X6094577Y2675432D01*
X6084062Y2666238D01*
X6074867Y2655722D01*
X6067094Y2644140D01*
X6060948Y2631643D01*
X6056426Y2618435D01*
X6053734Y2604719D01*
X6052820Y2590800D01*
X6053734Y2576880D01*
X6056426Y2563164D01*
X6060948Y2549956D01*
X6067094Y2537460D01*
X6074867Y2525877D01*
X6084062Y2515362D01*
X6094577Y2506167D01*
X6106160Y2498394D01*
X6118656Y2492248D01*
X6131864Y2487726D01*
X6145580Y2485034D01*
G37*

%LPD*%
G36*
X6639610Y-698500D02*
G01*
X6635699Y-697738D01*
X6632397Y-695502D01*
X6630212Y-692200D01*
X6629450Y-688289D01*
X6642100Y3008934D01*
X6641084Y3009900D01*
X5672378Y3009900D01*
X5669330Y3010357D01*
X5666536Y3011728D01*
X5664301Y3013862D01*
X5661507Y3017520D01*
X5656884Y3021736D01*
X5651398Y3024987D01*
X5645353Y3026968D01*
X5638749Y3027730D01*
X3480257Y3040380D01*
X3476751Y3040227D01*
X3471570Y3039262D01*
X3467150Y3039364D01*
X3463188Y3041396D01*
X3460496Y3044901D01*
X3459530Y3049219D01*
X3459530Y3164027D01*
X3460292Y3167938D01*
X3462477Y3171240D01*
X3465779Y3173425D01*
X3469640Y3174187D01*
X3549700Y3174187D01*
X3556152Y3174847D01*
X3561842Y3176574D01*
X3567125Y3179368D01*
X3571748Y3183178D01*
X3575507Y3187801D01*
X3578351Y3193034D01*
X3580079Y3198774D01*
X3580688Y3205226D01*
X3580688Y3284220D01*
X3580079Y3290671D01*
X3578351Y3296361D01*
X3575507Y3301644D01*
X3570986Y3306826D01*
X3568242Y3310331D01*
X3567277Y3314700D01*
X3568242Y3319068D01*
X3575507Y3327755D01*
X3580790Y3338017D01*
X3584244Y3340608D01*
X3588461Y3341471D01*
X3685336Y3341471D01*
X3689705Y3340506D01*
X3693210Y3337763D01*
X3694226Y3336544D01*
X3698849Y3332734D01*
X3704082Y3329940D01*
X3709822Y3328212D01*
X3716274Y3327552D01*
X3852976Y3327552D01*
X3859377Y3328212D01*
X3865118Y3329940D01*
X3870350Y3332734D01*
X3874973Y3336544D01*
X3878783Y3341166D01*
X3881577Y3346399D01*
X3883304Y3352139D01*
X3883964Y3358591D01*
X3883964Y3470808D01*
X3883304Y3477260D01*
X3881577Y3483000D01*
X3878783Y3488232D01*
X3874973Y3492855D01*
X3870350Y3496665D01*
X3865118Y3499459D01*
X3859377Y3501186D01*
X3852976Y3501847D01*
X3716274Y3501847D01*
X3709822Y3501186D01*
X3704082Y3499459D01*
X3698849Y3496665D01*
X3694226Y3492855D01*
X3690416Y3488232D01*
X3687622Y3483000D01*
X3685895Y3477260D01*
X3685235Y3470808D01*
X3685235Y3438042D01*
X3684473Y3434181D01*
X3682288Y3430879D01*
X3678986Y3428695D01*
X3675075Y3427882D01*
X3588410Y3427882D01*
X3584244Y3428796D01*
X3580790Y3431387D01*
X3575507Y3441598D01*
X3571748Y3446221D01*
X3567125Y3450031D01*
X3561842Y3452825D01*
X3556152Y3454552D01*
X3549700Y3455212D01*
X3460699Y3455212D01*
X3454247Y3454552D01*
X3448558Y3452825D01*
X3443274Y3450031D01*
X3438651Y3446221D01*
X3434892Y3441598D01*
X3429660Y3431489D01*
X3426206Y3428898D01*
X3421989Y3427984D01*
X3370478Y3427984D01*
X3362198Y3426815D01*
X3354679Y3424275D01*
X3347720Y3420414D01*
X3341217Y3415029D01*
X3206800Y3280562D01*
X3201822Y3273907D01*
X3198266Y3266795D01*
X3196082Y3259124D01*
X3195320Y3250742D01*
X3195320Y2947466D01*
X3194507Y2943606D01*
X3192322Y2940304D01*
X3189020Y2938068D01*
X3185109Y2937306D01*
X3181248Y2938068D01*
X3177946Y2940304D01*
X3140100Y2978099D01*
X3133445Y2983077D01*
X3126333Y2986633D01*
X3118662Y2988818D01*
X3110280Y2989580D01*
X1941474Y2989580D01*
X1933193Y2988411D01*
X1925675Y2985871D01*
X1918716Y2982010D01*
X1912213Y2976626D01*
X1847900Y2912262D01*
X1842922Y2905607D01*
X1839366Y2898495D01*
X1837182Y2890824D01*
X1836420Y2882442D01*
X1836420Y1784451D01*
X1835657Y1780641D01*
X1833524Y1777390D01*
X1830324Y1775155D01*
X1828495Y1774342D01*
X1816404Y1767027D01*
X1805330Y1758188D01*
X1795475Y1748028D01*
X1786991Y1736648D01*
X1780032Y1724355D01*
X1774748Y1711198D01*
X1771142Y1697532D01*
X1769364Y1683461D01*
X1769364Y1669338D01*
X1771142Y1655267D01*
X1774748Y1641602D01*
X1780032Y1628444D01*
X1786991Y1616151D01*
X1795475Y1604772D01*
X1805330Y1594612D01*
X1816404Y1585772D01*
X1828495Y1578457D01*
X1841449Y1572717D01*
X1855012Y1568704D01*
X1868982Y1566418D01*
X1883156Y1565960D01*
X1897227Y1567332D01*
X1911045Y1570482D01*
X1924304Y1575358D01*
X1936851Y1581912D01*
X1948484Y1590040D01*
X1958949Y1599539D01*
X1968144Y1610309D01*
X1975866Y1622196D01*
X1982012Y1634947D01*
X1986483Y1648358D01*
X1989175Y1662277D01*
X1990089Y1676400D01*
X1989175Y1690522D01*
X1986483Y1704441D01*
X1982012Y1717852D01*
X1975866Y1730603D01*
X1968144Y1742490D01*
X1958949Y1753260D01*
X1948484Y1762760D01*
X1936851Y1770888D01*
X1928266Y1775358D01*
X1925370Y1777644D01*
X1923491Y1780743D01*
X1922830Y1784400D01*
X1922830Y2014321D01*
X1923694Y2018436D01*
X1926234Y2021890D01*
X1929942Y2023973D01*
X1934159Y2024380D01*
X1938172Y2023008D01*
X1941322Y2020112D01*
X1945639Y2013915D01*
X1955139Y2003450D01*
X1965909Y1994255D01*
X1977796Y1986534D01*
X1990547Y1980387D01*
X2003958Y1975916D01*
X2017877Y1973224D01*
X2032000Y1972310D01*
X2046122Y1973224D01*
X2060041Y1975916D01*
X2073452Y1980387D01*
X2086203Y1986534D01*
X2098090Y1994255D01*
X2108860Y2003450D01*
X2118360Y2013915D01*
X2126488Y2025548D01*
X2133041Y2038096D01*
X2137918Y2051354D01*
X2141067Y2065172D01*
X2142439Y2079243D01*
X2141982Y2093417D01*
X2139696Y2107387D01*
X2135682Y2120950D01*
X2129942Y2133904D01*
X2122627Y2145995D01*
X2113788Y2157069D01*
X2103628Y2166924D01*
X2092248Y2175408D01*
X2079955Y2182368D01*
X2066798Y2187651D01*
X2053132Y2191258D01*
X2039061Y2193036D01*
X2024938Y2193036D01*
X2010867Y2191258D01*
X1997202Y2187651D01*
X1984044Y2182368D01*
X1971751Y2175408D01*
X1960372Y2166924D01*
X1950212Y2157069D01*
X1940915Y2145385D01*
X1937715Y2142744D01*
X1933752Y2141575D01*
X1929638Y2142134D01*
X1926082Y2144268D01*
X1923643Y2147671D01*
X1922830Y2151735D01*
X1922830Y2658262D01*
X1923643Y2662275D01*
X1926031Y2665679D01*
X1929587Y2667812D01*
X1933702Y2668371D01*
X1937664Y2667254D01*
X1940864Y2664612D01*
X1942947Y2662021D01*
X1953615Y2651709D01*
X1965452Y2642768D01*
X1978304Y2635351D01*
X1991969Y2629560D01*
X2006244Y2625496D01*
X2020874Y2623210D01*
X2035708Y2622753D01*
X2050491Y2624124D01*
X2064969Y2627325D01*
X2078939Y2632252D01*
X2092248Y2638856D01*
X2104593Y2647035D01*
X2115870Y2656687D01*
X2125878Y2667660D01*
X2134463Y2679750D01*
X2141474Y2692857D01*
X2146808Y2706674D01*
X2149094Y2715666D01*
X2150719Y2719222D01*
X2153615Y2721864D01*
X2157272Y2723235D01*
X2161184Y2723083D01*
X2164791Y2721508D01*
X2167483Y2718714D01*
X2173630Y2699664D01*
X2179828Y2686202D01*
X2187651Y2673604D01*
X2196947Y2662021D01*
X2207615Y2651709D01*
X2219452Y2642768D01*
X2232304Y2635351D01*
X2245969Y2629560D01*
X2260244Y2625496D01*
X2274874Y2623210D01*
X2289708Y2622753D01*
X2304491Y2624124D01*
X2318969Y2627325D01*
X2332939Y2632252D01*
X2346248Y2638856D01*
X2358593Y2647035D01*
X2369870Y2656687D01*
X2379878Y2667660D01*
X2388463Y2679750D01*
X2395474Y2692857D01*
X2400808Y2706674D01*
X2403094Y2715666D01*
X2404719Y2719222D01*
X2407615Y2721864D01*
X2411272Y2723235D01*
X2415184Y2723083D01*
X2418791Y2721508D01*
X2421483Y2718714D01*
X2427630Y2699664D01*
X2433828Y2686202D01*
X2441651Y2673604D01*
X2450947Y2662021D01*
X2461615Y2651709D01*
X2473452Y2642768D01*
X2486304Y2635351D01*
X2499969Y2629560D01*
X2514244Y2625496D01*
X2528874Y2623210D01*
X2543708Y2622753D01*
X2558491Y2624124D01*
X2572969Y2627325D01*
X2586939Y2632252D01*
X2600248Y2638856D01*
X2612593Y2647035D01*
X2623870Y2656687D01*
X2633878Y2667660D01*
X2642463Y2679750D01*
X2649474Y2692857D01*
X2654808Y2706674D01*
X2657094Y2715666D01*
X2658719Y2719222D01*
X2661615Y2721864D01*
X2665272Y2723235D01*
X2669184Y2723083D01*
X2672791Y2721508D01*
X2675483Y2718714D01*
X2681630Y2699664D01*
X2687828Y2686202D01*
X2695651Y2673604D01*
X2704947Y2662021D01*
X2715615Y2651709D01*
X2727452Y2642768D01*
X2740304Y2635351D01*
X2753969Y2629560D01*
X2768244Y2625496D01*
X2782874Y2623210D01*
X2797708Y2622753D01*
X2812491Y2624124D01*
X2826969Y2627325D01*
X2840939Y2632252D01*
X2854248Y2638856D01*
X2866593Y2647035D01*
X2877870Y2656687D01*
X2887878Y2667660D01*
X2896463Y2679750D01*
X2903474Y2692857D01*
X2907842Y2704185D01*
X2910027Y2707589D01*
X2913278Y2709875D01*
X2917190Y2710688D01*
X2921152Y2709976D01*
X2924454Y2707792D01*
X2926689Y2704439D01*
X2927502Y2700528D01*
X2927502Y2653690D01*
X2928112Y2647238D01*
X2929839Y2641549D01*
X2932684Y2636266D01*
X2936443Y2631643D01*
X2941066Y2627884D01*
X2946349Y2625039D01*
X2952038Y2623312D01*
X2958490Y2622702D01*
X3137509Y2622702D01*
X3143961Y2623312D01*
X3149650Y2625039D01*
X3154934Y2627884D01*
X3159556Y2631643D01*
X3163316Y2636266D01*
X3166160Y2641549D01*
X3167888Y2647238D01*
X3168497Y2653690D01*
X3168497Y2802991D01*
X3169259Y2806903D01*
X3171494Y2810205D01*
X3174796Y2812389D01*
X3178657Y2813151D01*
X3182569Y2812389D01*
X3185871Y2810205D01*
X3192322Y2803702D01*
X3194507Y2800400D01*
X3195320Y2796540D01*
X3195320Y2457653D01*
X3194354Y2453386D01*
X3191662Y2449880D01*
X3187750Y2447848D01*
X3183382Y2447645D01*
X3179318Y2449322D01*
X3168751Y2456688D01*
X3156204Y2463241D01*
X3142945Y2468118D01*
X3129127Y2471267D01*
X3115056Y2472639D01*
X3100882Y2472182D01*
X3086912Y2469896D01*
X3073349Y2465882D01*
X3060395Y2460142D01*
X3048304Y2452827D01*
X3037230Y2443988D01*
X3027375Y2433828D01*
X3018891Y2422448D01*
X3011932Y2410155D01*
X3006648Y2396998D01*
X3003042Y2383332D01*
X3001264Y2369261D01*
X3001264Y2355138D01*
X3003042Y2341067D01*
X3006648Y2327402D01*
X3011932Y2314244D01*
X3018891Y2301951D01*
X3027375Y2290572D01*
X3037230Y2280412D01*
X3048304Y2271572D01*
X3060395Y2264257D01*
X3062224Y2263444D01*
X3065424Y2261209D01*
X3067558Y2257958D01*
X3068320Y2254148D01*
X3068320Y1983739D01*
X3067507Y1979879D01*
X3065322Y1976577D01*
X3062020Y1974392D01*
X3058160Y1973580D01*
X2862580Y1973580D01*
X2858363Y1974494D01*
X2854909Y1977085D01*
X2852826Y1980895D01*
X2852521Y1985162D01*
X2853994Y1989226D01*
X2857042Y1992274D01*
X2860090Y1994255D01*
X2870860Y2003450D01*
X2880360Y2013915D01*
X2888488Y2025548D01*
X2895041Y2038096D01*
X2899918Y2051354D01*
X2903067Y2065172D01*
X2904439Y2079243D01*
X2903982Y2093417D01*
X2901696Y2107387D01*
X2897682Y2120950D01*
X2891942Y2133904D01*
X2884627Y2145995D01*
X2875788Y2157069D01*
X2865628Y2166924D01*
X2854248Y2175408D01*
X2841955Y2182368D01*
X2828798Y2187651D01*
X2815132Y2191258D01*
X2801061Y2193036D01*
X2786938Y2193036D01*
X2772867Y2191258D01*
X2759202Y2187651D01*
X2746044Y2182368D01*
X2733751Y2175408D01*
X2722372Y2166924D01*
X2712212Y2157069D01*
X2703372Y2145995D01*
X2696057Y2133904D01*
X2690317Y2120950D01*
X2686304Y2107387D01*
X2684018Y2093417D01*
X2683560Y2079243D01*
X2684932Y2065172D01*
X2688082Y2051354D01*
X2692958Y2038096D01*
X2699512Y2025548D01*
X2707640Y2013915D01*
X2717139Y2003450D01*
X2727909Y1994255D01*
X2730957Y1992274D01*
X2734005Y1989226D01*
X2735478Y1985162D01*
X2735173Y1980895D01*
X2733090Y1977085D01*
X2729636Y1974494D01*
X2725420Y1973580D01*
X2608580Y1973580D01*
X2604363Y1974494D01*
X2600909Y1977085D01*
X2598826Y1980895D01*
X2598521Y1985162D01*
X2599994Y1989226D01*
X2603042Y1992274D01*
X2606090Y1994255D01*
X2616860Y2003450D01*
X2626360Y2013915D01*
X2634488Y2025548D01*
X2641041Y2038096D01*
X2645918Y2051354D01*
X2649067Y2065172D01*
X2650439Y2079243D01*
X2649982Y2093417D01*
X2647696Y2107387D01*
X2643682Y2120950D01*
X2637942Y2133904D01*
X2630627Y2145995D01*
X2621788Y2157069D01*
X2611628Y2166924D01*
X2600248Y2175408D01*
X2587955Y2182368D01*
X2574798Y2187651D01*
X2561132Y2191258D01*
X2547061Y2193036D01*
X2532938Y2193036D01*
X2518867Y2191258D01*
X2505202Y2187651D01*
X2492044Y2182368D01*
X2479751Y2175408D01*
X2468372Y2166924D01*
X2458212Y2157069D01*
X2449372Y2145995D01*
X2442057Y2133904D01*
X2436317Y2120950D01*
X2432304Y2107387D01*
X2430018Y2093417D01*
X2429560Y2079243D01*
X2430932Y2065172D01*
X2434082Y2051354D01*
X2438958Y2038096D01*
X2445512Y2025548D01*
X2453640Y2013915D01*
X2463139Y2003450D01*
X2473909Y1994255D01*
X2476957Y1992274D01*
X2480005Y1989226D01*
X2481478Y1985162D01*
X2481173Y1980895D01*
X2479090Y1977085D01*
X2475636Y1974494D01*
X2471420Y1973580D01*
X2387854Y1973580D01*
X2381250Y1972919D01*
X2375204Y1970938D01*
X2369667Y1967788D01*
X2364943Y1963521D01*
X2361184Y1958339D01*
X2358593Y1952498D01*
X2357272Y1946300D01*
X2357120Y1942846D01*
X2357120Y1503222D01*
X2356256Y1499209D01*
X2353919Y1495856D01*
X2350465Y1493723D01*
X2346401Y1493113D01*
X2342438Y1494129D01*
X2339543Y1495552D01*
X2326335Y1500073D01*
X2312619Y1502765D01*
X2298700Y1503680D01*
X2284780Y1502765D01*
X2271064Y1500073D01*
X2257856Y1495552D01*
X2245360Y1489405D01*
X2233777Y1481632D01*
X2223262Y1472438D01*
X2214067Y1461922D01*
X2206294Y1450340D01*
X2200148Y1437843D01*
X2195626Y1424635D01*
X2192934Y1410919D01*
X2192020Y1396644D01*
X2192020Y1295755D01*
X2192934Y1281480D01*
X2195626Y1267764D01*
X2200148Y1254556D01*
X2206294Y1242060D01*
X2214067Y1230477D01*
X2223262Y1219962D01*
X2233777Y1210767D01*
X2245360Y1202994D01*
X2257856Y1196848D01*
X2271064Y1192326D01*
X2284780Y1189634D01*
X2298700Y1188720D01*
X2312619Y1189634D01*
X2326335Y1192326D01*
X2339543Y1196848D01*
X2342438Y1198270D01*
X2346401Y1199286D01*
X2350465Y1198676D01*
X2353919Y1196543D01*
X2356256Y1193190D01*
X2357120Y1189177D01*
X2357120Y686054D01*
X2357780Y679450D01*
X2359761Y673404D01*
X2362911Y667867D01*
X2367178Y663143D01*
X2372360Y659384D01*
X2378202Y656793D01*
X2384399Y655472D01*
X2387854Y655269D01*
X2821940Y655269D01*
X2825851Y654507D01*
X2829102Y652322D01*
X2831338Y649020D01*
X2832100Y645109D01*
X2832100Y458419D01*
X2831236Y454304D01*
X2828798Y450951D01*
X2825191Y448818D01*
X2819501Y446887D01*
X2814167Y443788D01*
X2809443Y439521D01*
X2805684Y434340D01*
X2803093Y428498D01*
X2801772Y422300D01*
X2801620Y418846D01*
X2801620Y-193040D01*
X2800807Y-196951D01*
X2798622Y-200202D01*
X2795320Y-202438D01*
X2791460Y-203200D01*
X2588260Y-203200D01*
X2584348Y-202438D01*
X2581097Y-200202D01*
X2578862Y-196951D01*
X2578100Y-193040D01*
X2578100Y227584D01*
X2577084Y228600D01*
X1856790Y228600D01*
X1852879Y229362D01*
X1849577Y231597D01*
X1847392Y234848D01*
X1846630Y238760D01*
X1846630Y311099D01*
X1847291Y314756D01*
X1849170Y317855D01*
X1852066Y320141D01*
X1860651Y324612D01*
X1872284Y332740D01*
X1882749Y342239D01*
X1891944Y353009D01*
X1899666Y364896D01*
X1905812Y377647D01*
X1910283Y391058D01*
X1912975Y404977D01*
X1913889Y419100D01*
X1912975Y433222D01*
X1910283Y447141D01*
X1905812Y460552D01*
X1899666Y473303D01*
X1891944Y485190D01*
X1882749Y495960D01*
X1872284Y505459D01*
X1860651Y513588D01*
X1848104Y520141D01*
X1834845Y525018D01*
X1821027Y528167D01*
X1806956Y529539D01*
X1792782Y529082D01*
X1778812Y526796D01*
X1765249Y522782D01*
X1752295Y517042D01*
X1740204Y509727D01*
X1729130Y500888D01*
X1719275Y490728D01*
X1710791Y479348D01*
X1703832Y467055D01*
X1698548Y453898D01*
X1696618Y446532D01*
X1694738Y442823D01*
X1691589Y440131D01*
X1687575Y438962D01*
X1683461Y439521D01*
X1679905Y441655D01*
X1677466Y445058D01*
X1676603Y449122D01*
X1676146Y3151276D01*
X1676907Y3162655D01*
X1676907Y3532632D01*
X1677670Y3536543D01*
X1679905Y3539794D01*
X1683156Y3542029D01*
X1687068Y3542792D01*
X1900224Y3542792D01*
X1904593Y3541826D01*
X1908098Y3539032D01*
X1910130Y3535070D01*
X1910181Y3530600D01*
X1908352Y3526485D01*
X1904238Y3523284D01*
X1885442Y3511296D01*
X1867763Y3497732D01*
X1851355Y3482644D01*
X1836267Y3466236D01*
X1822704Y3448558D01*
X1810715Y3429762D01*
X1800453Y3410000D01*
X1791919Y3389376D01*
X1785213Y3368141D01*
X1780387Y3346348D01*
X1777492Y3324250D01*
X1776526Y3302000D01*
X1777492Y3279749D01*
X1780387Y3257651D01*
X1785213Y3235858D01*
X1791919Y3214624D01*
X1800453Y3193999D01*
X1810715Y3174238D01*
X1822704Y3155442D01*
X1836267Y3137763D01*
X1851355Y3121355D01*
X1867763Y3106267D01*
X1885442Y3092704D01*
X1904238Y3080715D01*
X1923999Y3070453D01*
X1944624Y3061919D01*
X1965858Y3055213D01*
X1987651Y3050387D01*
X2009749Y3047492D01*
X2032000Y3046526D01*
X2054250Y3047492D01*
X2076348Y3050387D01*
X2098141Y3055213D01*
X2119376Y3061919D01*
X2140000Y3070453D01*
X2159762Y3080715D01*
X2178558Y3092704D01*
X2196236Y3106267D01*
X2212644Y3121355D01*
X2227732Y3137763D01*
X2241296Y3155442D01*
X2253284Y3174238D01*
X2263546Y3193999D01*
X2272080Y3214624D01*
X2278786Y3235858D01*
X2283612Y3257651D01*
X2286508Y3279749D01*
X2287473Y3302000D01*
X2286508Y3324250D01*
X2283612Y3346348D01*
X2278786Y3368141D01*
X2272080Y3389376D01*
X2263546Y3410000D01*
X2253284Y3429762D01*
X2241296Y3448558D01*
X2227732Y3466236D01*
X2212644Y3482644D01*
X2196236Y3497732D01*
X2178558Y3511296D01*
X2159762Y3523284D01*
X2155647Y3526485D01*
X2153818Y3530600D01*
X2153869Y3535070D01*
X2155901Y3539032D01*
X2159406Y3541826D01*
X2163775Y3542792D01*
X6847840Y3542792D01*
X6851751Y3542029D01*
X6855002Y3539794D01*
X6857238Y3536543D01*
X6858000Y3532632D01*
X6858000Y-688340D01*
X6857238Y-692251D01*
X6855002Y-695502D01*
X6851751Y-697738D01*
X6847840Y-698500D01*
G37*

%LPC*%
G36*
X1952091Y603453D02*
G01*
X1966925Y603910D01*
X1981555Y606196D01*
X1995830Y610260D01*
X2009495Y616051D01*
X2022348Y623468D01*
X2034184Y632409D01*
X2044852Y642721D01*
X2054148Y654304D01*
X2061972Y666902D01*
X2068169Y680364D01*
X2072639Y694486D01*
X2075383Y709117D01*
X2076297Y723900D01*
X2075383Y738682D01*
X2072639Y753313D01*
X2068169Y767435D01*
X2061972Y780897D01*
X2054148Y793496D01*
X2044852Y805078D01*
X2034184Y815390D01*
X2022348Y824331D01*
X2009495Y831748D01*
X1995830Y837539D01*
X1983232Y841146D01*
X1979371Y843178D01*
X1976780Y846632D01*
X1975866Y850900D01*
X1976780Y855167D01*
X1979371Y858621D01*
X1983232Y860653D01*
X1995830Y864260D01*
X2009495Y870051D01*
X2022348Y877468D01*
X2034184Y886409D01*
X2044852Y896721D01*
X2054148Y908303D01*
X2061972Y920902D01*
X2068169Y934364D01*
X2072639Y948486D01*
X2075383Y963117D01*
X2076297Y977900D01*
X2075383Y992682D01*
X2072639Y1007313D01*
X2068169Y1021435D01*
X2061972Y1034897D01*
X2054148Y1047496D01*
X2044852Y1059078D01*
X2034184Y1069390D01*
X2022348Y1078331D01*
X2009495Y1085748D01*
X1995830Y1091539D01*
X1981555Y1095603D01*
X1966925Y1097889D01*
X1952091Y1098346D01*
X1937308Y1096975D01*
X1922830Y1093774D01*
X1908860Y1088847D01*
X1895551Y1082243D01*
X1883206Y1074064D01*
X1871929Y1064412D01*
X1861921Y1053439D01*
X1853336Y1041349D01*
X1846325Y1028242D01*
X1840992Y1014425D01*
X1837385Y1000048D01*
X1835556Y985316D01*
X1835556Y970483D01*
X1837385Y955751D01*
X1840992Y941374D01*
X1846325Y927557D01*
X1853336Y914450D01*
X1861921Y902360D01*
X1871929Y891387D01*
X1883206Y881735D01*
X1895551Y873556D01*
X1908860Y866952D01*
X1922830Y862025D01*
X1928266Y860806D01*
X1931822Y859282D01*
X1934565Y856487D01*
X1936038Y852830D01*
X1936038Y848969D01*
X1934565Y845312D01*
X1931822Y842518D01*
X1928266Y840994D01*
X1922830Y839774D01*
X1908860Y834847D01*
X1895551Y828243D01*
X1883206Y820064D01*
X1871929Y810412D01*
X1861921Y799439D01*
X1853336Y787349D01*
X1846325Y774242D01*
X1840992Y760425D01*
X1837385Y746048D01*
X1835556Y731316D01*
X1835556Y716483D01*
X1837385Y701751D01*
X1840992Y687374D01*
X1846325Y673557D01*
X1853336Y660450D01*
X1861921Y648360D01*
X1871929Y637387D01*
X1883206Y627735D01*
X1895551Y619556D01*
X1908860Y612952D01*
X1922830Y608025D01*
X1937308Y604824D01*
G37*
G36*
X2286000Y1972310D02*
G01*
X2300122Y1973224D01*
X2314041Y1975916D01*
X2327452Y1980387D01*
X2340203Y1986534D01*
X2352090Y1994255D01*
X2362860Y2003450D01*
X2372360Y2013915D01*
X2380488Y2025548D01*
X2387041Y2038096D01*
X2391918Y2051354D01*
X2395067Y2065172D01*
X2396439Y2079243D01*
X2395982Y2093417D01*
X2393696Y2107387D01*
X2389682Y2120950D01*
X2383942Y2133904D01*
X2376627Y2145995D01*
X2367788Y2157069D01*
X2357628Y2166924D01*
X2346248Y2175408D01*
X2333955Y2182368D01*
X2320798Y2187651D01*
X2307132Y2191258D01*
X2293061Y2193036D01*
X2278938Y2193036D01*
X2264867Y2191258D01*
X2251202Y2187651D01*
X2238044Y2182368D01*
X2225751Y2175408D01*
X2214372Y2166924D01*
X2204212Y2157069D01*
X2195372Y2145995D01*
X2188057Y2133904D01*
X2182317Y2120950D01*
X2178304Y2107387D01*
X2176018Y2093417D01*
X2175560Y2079243D01*
X2176932Y2065172D01*
X2180082Y2051354D01*
X2184958Y2038096D01*
X2191512Y2025548D01*
X2199640Y2013915D01*
X2209139Y2003450D01*
X2219909Y1994255D01*
X2231796Y1986534D01*
X2244547Y1980387D01*
X2257958Y1975916D01*
X2271877Y1973224D01*
G37*

%LPD*%
G36*
X7264400Y-1205992D02*
G01*
X1687017Y-1193393D01*
X1683156Y-1192580D01*
X1679854Y-1190396D01*
X1677670Y-1187094D01*
X1676907Y-1183233D01*
X1676654Y187909D01*
X1677416Y191820D01*
X1679651Y195122D01*
X1682953Y197307D01*
X1686814Y198069D01*
X1750060Y198069D01*
X1753920Y197307D01*
X1757222Y195122D01*
X1759407Y191820D01*
X1760220Y187909D01*
X1760220Y-77825D01*
X1761388Y-86106D01*
X1763928Y-93624D01*
X1767789Y-100584D01*
X1773174Y-107086D01*
X1875637Y-209499D01*
X1882292Y-214477D01*
X1889404Y-218033D01*
X1897075Y-220217D01*
X1905457Y-221030D01*
X2314702Y-221030D01*
X2318562Y-221792D01*
X2321864Y-223977D01*
X2443022Y-345135D01*
X2445207Y-348437D01*
X2446020Y-352298D01*
X2446020Y-484225D01*
X2447188Y-492506D01*
X2449728Y-500024D01*
X2453589Y-506984D01*
X2458974Y-513486D01*
X2612237Y-666699D01*
X2618892Y-671677D01*
X2626004Y-675233D01*
X2633675Y-677418D01*
X2642057Y-678230D01*
X3089402Y-678230D01*
X3093313Y-678992D01*
X3096615Y-681177D01*
X3148736Y-733247D01*
X3150920Y-736549D01*
X3151682Y-740410D01*
X3151682Y-929995D01*
X3152343Y-936447D01*
X3154070Y-942136D01*
X3156864Y-947419D01*
X3160674Y-952042D01*
X3165297Y-955802D01*
X3170529Y-958646D01*
X3176270Y-960374D01*
X3182721Y-961034D01*
X3421684Y-961034D01*
X3428136Y-960374D01*
X3433876Y-958646D01*
X3439109Y-955802D01*
X3443732Y-952042D01*
X3447542Y-947419D01*
X3450336Y-942136D01*
X3452063Y-936447D01*
X3452723Y-929995D01*
X3452723Y-721004D01*
X3452063Y-714552D01*
X3450336Y-708863D01*
X3447542Y-703580D01*
X3443732Y-698957D01*
X3439109Y-695198D01*
X3433876Y-692353D01*
X3428136Y-690626D01*
X3421684Y-690016D01*
X3231896Y-690016D01*
X3228035Y-689203D01*
X3224733Y-687019D01*
X3140862Y-603300D01*
X3134207Y-598322D01*
X3127095Y-594766D01*
X3119424Y-592582D01*
X3111042Y-591820D01*
X2663698Y-591820D01*
X2659837Y-591007D01*
X2656535Y-588822D01*
X2535377Y-467664D01*
X2533192Y-464362D01*
X2532430Y-460501D01*
X2532380Y-328574D01*
X2531211Y-320294D01*
X2528671Y-312775D01*
X2524810Y-305816D01*
X2519426Y-299313D01*
X2366162Y-146100D01*
X2359507Y-141122D01*
X2352395Y-137566D01*
X2344724Y-135382D01*
X2336342Y-134620D01*
X1927098Y-134620D01*
X1923237Y-133807D01*
X1919935Y-131622D01*
X1849577Y-61264D01*
X1847392Y-57962D01*
X1846630Y-54102D01*
X1846630Y187909D01*
X1847392Y191820D01*
X1849577Y195122D01*
X1852879Y197307D01*
X1856790Y198069D01*
X2537460Y198069D01*
X2541320Y197307D01*
X2544622Y195122D01*
X2546807Y191820D01*
X2547620Y187909D01*
X2547620Y-202946D01*
X2548280Y-209550D01*
X2550261Y-215595D01*
X2553411Y-221132D01*
X2557678Y-225856D01*
X2562860Y-229616D01*
X2568702Y-232206D01*
X2574899Y-233527D01*
X2578354Y-233730D01*
X3060446Y-233730D01*
X3067050Y-233019D01*
X3073095Y-231038D01*
X3078632Y-227888D01*
X3083356Y-223621D01*
X3087116Y-218440D01*
X3089706Y-212598D01*
X3091027Y-206400D01*
X3091230Y-202946D01*
X3091230Y213309D01*
X3091992Y217220D01*
X3094177Y220522D01*
X3097479Y222707D01*
X3101340Y223469D01*
X3286760Y223469D01*
X3290620Y222707D01*
X3293922Y220522D01*
X3296107Y217220D01*
X3296920Y213309D01*
X3296920Y-14325D01*
X3298088Y-22606D01*
X3300628Y-30124D01*
X3304489Y-37084D01*
X3309874Y-43586D01*
X3564737Y-298399D01*
X3571392Y-303377D01*
X3578504Y-306933D01*
X3586175Y-309118D01*
X3594557Y-309930D01*
X5627725Y-309880D01*
X5636006Y-308711D01*
X5643524Y-306171D01*
X5650484Y-302310D01*
X5656986Y-296926D01*
X5832246Y-121666D01*
X5835548Y-119430D01*
X5839460Y-118668D01*
X5843320Y-119430D01*
X5846622Y-121666D01*
X5848807Y-124968D01*
X5849620Y-128828D01*
X5849620Y-192125D01*
X5850788Y-200406D01*
X5853328Y-207924D01*
X5857189Y-214884D01*
X5862574Y-221386D01*
X5887466Y-246227D01*
X5889498Y-249224D01*
X5890412Y-252729D01*
X5890006Y-256336D01*
X5886704Y-267512D01*
X5884418Y-281482D01*
X5883960Y-295656D01*
X5885332Y-309727D01*
X5888482Y-323545D01*
X5893358Y-336804D01*
X5899912Y-349351D01*
X5908040Y-360984D01*
X5917539Y-371449D01*
X5928309Y-380644D01*
X5940196Y-388366D01*
X5952947Y-394512D01*
X5966358Y-398983D01*
X5980277Y-401675D01*
X5994400Y-402590D01*
X6008522Y-401675D01*
X6022441Y-398983D01*
X6035852Y-394512D01*
X6048603Y-388366D01*
X6060490Y-380644D01*
X6071260Y-371449D01*
X6080760Y-360984D01*
X6088888Y-349351D01*
X6095441Y-336804D01*
X6100318Y-323545D01*
X6103467Y-309727D01*
X6104839Y-295656D01*
X6104382Y-281482D01*
X6102096Y-267512D01*
X6098082Y-253949D01*
X6092342Y-240995D01*
X6088024Y-233832D01*
X6086652Y-229920D01*
X6086957Y-225755D01*
X6088938Y-222046D01*
X6092240Y-219456D01*
X6096254Y-218440D01*
X6100419Y-219100D01*
X6103924Y-221386D01*
X6176822Y-294335D01*
X6179007Y-297637D01*
X6179820Y-301498D01*
X6179820Y-330606D01*
X6179108Y-334314D01*
X6177127Y-337515D01*
X6174130Y-339750D01*
X6170269Y-341630D01*
X6158788Y-349300D01*
X6148425Y-358394D01*
X6139332Y-368808D01*
X6131661Y-380238D01*
X6125565Y-392633D01*
X6121095Y-405688D01*
X6118402Y-419252D01*
X6117488Y-433324D01*
X6117488Y-582676D01*
X6118402Y-596747D01*
X6121095Y-610311D01*
X6125565Y-623366D01*
X6131661Y-635762D01*
X6139332Y-647192D01*
X6148425Y-657606D01*
X6158788Y-666699D01*
X6170269Y-674370D01*
X6182614Y-680466D01*
X6195720Y-684885D01*
X6209233Y-687578D01*
X6223000Y-688492D01*
X6236766Y-687578D01*
X6250279Y-684885D01*
X6263386Y-680466D01*
X6275730Y-674370D01*
X6287211Y-666699D01*
X6297574Y-657606D01*
X6306667Y-647192D01*
X6314338Y-635762D01*
X6320434Y-623366D01*
X6324904Y-610311D01*
X6327597Y-596747D01*
X6328511Y-582676D01*
X6328511Y-433324D01*
X6327597Y-419252D01*
X6324904Y-405688D01*
X6320434Y-392633D01*
X6314338Y-380238D01*
X6306667Y-368808D01*
X6297574Y-358394D01*
X6287211Y-349300D01*
X6275730Y-341630D01*
X6271869Y-339750D01*
X6268872Y-337515D01*
X6266891Y-334314D01*
X6266230Y-330606D01*
X6266180Y-277774D01*
X6265011Y-269494D01*
X6262471Y-261975D01*
X6258610Y-255016D01*
X6253226Y-248513D01*
X6002477Y2235D01*
X6000292Y5537D01*
X5999530Y9398D01*
X5999530Y23571D01*
X6000292Y27432D01*
X6002477Y30733D01*
X6005779Y32969D01*
X6009690Y33731D01*
X6013551Y32969D01*
X6016853Y30733D01*
X6397345Y-349758D01*
X6399479Y-352907D01*
X6400342Y-356616D01*
X6399733Y-360375D01*
X6397802Y-363626D01*
X6393332Y-368808D01*
X6385661Y-380238D01*
X6379565Y-392633D01*
X6375095Y-405688D01*
X6372402Y-419252D01*
X6371488Y-433324D01*
X6371488Y-582676D01*
X6372402Y-596747D01*
X6375095Y-610311D01*
X6379565Y-623366D01*
X6385661Y-635762D01*
X6393332Y-647192D01*
X6402425Y-657606D01*
X6412788Y-666699D01*
X6424269Y-674370D01*
X6436614Y-680466D01*
X6449720Y-684885D01*
X6463233Y-687578D01*
X6477000Y-688492D01*
X6490766Y-687578D01*
X6504279Y-684885D01*
X6517385Y-680466D01*
X6529730Y-674370D01*
X6541211Y-666699D01*
X6551574Y-657606D01*
X6560667Y-647192D01*
X6568338Y-635762D01*
X6574434Y-623366D01*
X6580733Y-605485D01*
X6583883Y-602640D01*
X6587896Y-601268D01*
X6592112Y-601726D01*
X6595821Y-603808D01*
X6598310Y-607263D01*
X6599174Y-611428D01*
X6598920Y-698144D01*
X6599529Y-704697D01*
X6601510Y-710793D01*
X6604660Y-716330D01*
X6608927Y-721055D01*
X6614058Y-724865D01*
X6619849Y-727456D01*
X6626098Y-728827D01*
X6629653Y-729030D01*
X6857746Y-729030D01*
X6864350Y-728319D01*
X6870395Y-726338D01*
X6875932Y-723188D01*
X6880656Y-718921D01*
X6884416Y-713740D01*
X6887006Y-707898D01*
X6888327Y-701700D01*
X6888530Y-698246D01*
X6888530Y3532632D01*
X6889292Y3536543D01*
X6891477Y3539794D01*
X6894779Y3542029D01*
X6898690Y3542792D01*
X7107224Y3542792D01*
X7111593Y3541826D01*
X7115098Y3539032D01*
X7117130Y3535070D01*
X7117181Y3530600D01*
X7115352Y3526485D01*
X7111238Y3523284D01*
X7092442Y3511296D01*
X7074763Y3497732D01*
X7058355Y3482644D01*
X7043267Y3466236D01*
X7029703Y3448558D01*
X7017715Y3429762D01*
X7007453Y3410000D01*
X6998919Y3389376D01*
X6992213Y3368141D01*
X6987387Y3346348D01*
X6984492Y3324250D01*
X6983526Y3302000D01*
X6984492Y3279749D01*
X6987387Y3257651D01*
X6992213Y3235858D01*
X6998919Y3214624D01*
X7007453Y3193999D01*
X7017715Y3174238D01*
X7029703Y3155442D01*
X7043267Y3137763D01*
X7058355Y3121355D01*
X7074763Y3106267D01*
X7092442Y3092704D01*
X7111238Y3080715D01*
X7130999Y3070453D01*
X7151624Y3061919D01*
X7172858Y3055213D01*
X7194651Y3050387D01*
X7216749Y3047492D01*
X7239000Y3046526D01*
X7261250Y3047492D01*
X7283348Y3050387D01*
X7305141Y3055213D01*
X7326375Y3061919D01*
X7347000Y3070453D01*
X7366762Y3080715D01*
X7385558Y3092704D01*
X7403236Y3106267D01*
X7419644Y3121355D01*
X7434732Y3137763D01*
X7448296Y3155442D01*
X7460284Y3174238D01*
X7470546Y3193999D01*
X7479080Y3214624D01*
X7485786Y3235858D01*
X7490612Y3257651D01*
X7493508Y3279749D01*
X7494473Y3302000D01*
X7493508Y3324250D01*
X7490612Y3346348D01*
X7485786Y3368141D01*
X7479080Y3389376D01*
X7470546Y3410000D01*
X7460284Y3429762D01*
X7448296Y3448558D01*
X7434732Y3466236D01*
X7419644Y3482644D01*
X7403236Y3497732D01*
X7385558Y3511296D01*
X7366762Y3523284D01*
X7362647Y3526485D01*
X7360818Y3530600D01*
X7360869Y3535070D01*
X7362901Y3539032D01*
X7366406Y3541826D01*
X7370775Y3542792D01*
X7545831Y3542792D01*
X7549743Y3542029D01*
X7552994Y3539794D01*
X7555230Y3536543D01*
X7555992Y3532632D01*
X7555992Y-1195832D01*
X7555230Y-1199743D01*
X7552994Y-1202994D01*
X7549743Y-1205230D01*
X7545831Y-1205992D01*
G37*

%LPC*%
G36*
X2032000Y-1144473D02*
G01*
X2054250Y-1143508D01*
X2076348Y-1140612D01*
X2098141Y-1135786D01*
X2119376Y-1129080D01*
X2140000Y-1120546D01*
X2159762Y-1110284D01*
X2178558Y-1098296D01*
X2196236Y-1084732D01*
X2212644Y-1069644D01*
X2227732Y-1053236D01*
X2241296Y-1035558D01*
X2253284Y-1016762D01*
X2263546Y-997000D01*
X2272080Y-976376D01*
X2278786Y-955141D01*
X2283612Y-933348D01*
X2286508Y-911250D01*
X2287473Y-889000D01*
X2286508Y-866749D01*
X2283612Y-844651D01*
X2278786Y-822858D01*
X2272080Y-801624D01*
X2263546Y-780999D01*
X2253284Y-761238D01*
X2241296Y-742442D01*
X2227732Y-724763D01*
X2212644Y-708355D01*
X2196236Y-693267D01*
X2178558Y-679704D01*
X2159762Y-667715D01*
X2140000Y-657453D01*
X2119376Y-648919D01*
X2098141Y-642213D01*
X2076348Y-637387D01*
X2054250Y-634492D01*
X2032000Y-633526D01*
X2009749Y-634492D01*
X1987651Y-637387D01*
X1965858Y-642213D01*
X1944624Y-648919D01*
X1923999Y-657453D01*
X1904238Y-667715D01*
X1885442Y-679704D01*
X1867763Y-693267D01*
X1851355Y-708355D01*
X1836267Y-724763D01*
X1822704Y-742442D01*
X1810715Y-761238D01*
X1800453Y-780999D01*
X1791919Y-801624D01*
X1785213Y-822858D01*
X1780387Y-844651D01*
X1777492Y-866749D01*
X1776526Y-889000D01*
X1777492Y-911250D01*
X1780387Y-933348D01*
X1785213Y-955141D01*
X1791919Y-976376D01*
X1800453Y-997000D01*
X1810715Y-1016762D01*
X1822704Y-1035558D01*
X1836267Y-1053236D01*
X1851355Y-1069644D01*
X1867763Y-1084732D01*
X1885442Y-1098296D01*
X1904238Y-1110284D01*
X1923999Y-1120546D01*
X1944624Y-1129080D01*
X1965858Y-1135786D01*
X1987651Y-1140612D01*
X2009749Y-1143508D01*
G37*
G36*
X7239000Y-1144473D02*
G01*
X7261250Y-1143508D01*
X7283348Y-1140612D01*
X7305141Y-1135786D01*
X7326375Y-1129080D01*
X7347000Y-1120546D01*
X7366762Y-1110284D01*
X7385558Y-1098296D01*
X7403236Y-1084732D01*
X7419644Y-1069644D01*
X7434732Y-1053236D01*
X7448296Y-1035558D01*
X7460284Y-1016762D01*
X7470546Y-997000D01*
X7479080Y-976376D01*
X7485786Y-955141D01*
X7490612Y-933348D01*
X7493508Y-911250D01*
X7494473Y-889000D01*
X7493508Y-866749D01*
X7490612Y-844651D01*
X7485786Y-822858D01*
X7479080Y-801624D01*
X7470546Y-780999D01*
X7460284Y-761238D01*
X7448296Y-742442D01*
X7434732Y-724763D01*
X7419644Y-708355D01*
X7403236Y-693267D01*
X7385558Y-679704D01*
X7366762Y-667715D01*
X7347000Y-657453D01*
X7326375Y-648919D01*
X7305141Y-642213D01*
X7283348Y-637387D01*
X7261250Y-634492D01*
X7239000Y-633526D01*
X7216749Y-634492D01*
X7194651Y-637387D01*
X7172858Y-642213D01*
X7151624Y-648919D01*
X7130999Y-657453D01*
X7111238Y-667715D01*
X7092442Y-679704D01*
X7074763Y-693267D01*
X7058355Y-708355D01*
X7043267Y-724763D01*
X7029703Y-742442D01*
X7017715Y-761238D01*
X7007453Y-780999D01*
X6998919Y-801624D01*
X6992213Y-822858D01*
X6987387Y-844651D01*
X6984492Y-866749D01*
X6983526Y-889000D01*
X6984492Y-911250D01*
X6987387Y-933348D01*
X6992213Y-955141D01*
X6998919Y-976376D01*
X7007453Y-997000D01*
X7017715Y-1016762D01*
X7029703Y-1035558D01*
X7043267Y-1053236D01*
X7058355Y-1069644D01*
X7074763Y-1084732D01*
X7092442Y-1098296D01*
X7111238Y-1110284D01*
X7130999Y-1120546D01*
X7151624Y-1129080D01*
X7172858Y-1135786D01*
X7194651Y-1140612D01*
X7216749Y-1143508D01*
G37*
G36*
X4196842Y-1142390D02*
G01*
X4209186Y-1142390D01*
X4221429Y-1140714D01*
X4233316Y-1137361D01*
X4244644Y-1132433D01*
X4255160Y-1126032D01*
X4264761Y-1118260D01*
X4273194Y-1109218D01*
X4280306Y-1099159D01*
X4285996Y-1088186D01*
X4290110Y-1076553D01*
X4292650Y-1064463D01*
X4293514Y-1051763D01*
X4293514Y-992479D01*
X4292650Y-979779D01*
X4290110Y-967689D01*
X4285996Y-956056D01*
X4280306Y-945134D01*
X4273194Y-935024D01*
X4264761Y-925982D01*
X4255160Y-918210D01*
X4244644Y-911809D01*
X4233316Y-906881D01*
X4221429Y-903528D01*
X4209186Y-901852D01*
X4196842Y-901852D01*
X4184599Y-903528D01*
X4172712Y-906881D01*
X4161383Y-911809D01*
X4150817Y-918210D01*
X4141266Y-925982D01*
X4132834Y-935024D01*
X4125671Y-945134D01*
X4120032Y-956056D01*
X4115866Y-967689D01*
X4113377Y-979779D01*
X4112514Y-992479D01*
X4112514Y-1051763D01*
X4113377Y-1064463D01*
X4115866Y-1076553D01*
X4120032Y-1088186D01*
X4125671Y-1099159D01*
X4132834Y-1109218D01*
X4141266Y-1118260D01*
X4150817Y-1126032D01*
X4161383Y-1132433D01*
X4172712Y-1137361D01*
X4184599Y-1140714D01*
G37*
G36*
X5061813Y-1142390D02*
G01*
X5074158Y-1142390D01*
X5086400Y-1140714D01*
X5098288Y-1137361D01*
X5109616Y-1132433D01*
X5120182Y-1126032D01*
X5129733Y-1118260D01*
X5138166Y-1109218D01*
X5145328Y-1099159D01*
X5150967Y-1088186D01*
X5155133Y-1076553D01*
X5157622Y-1064463D01*
X5158486Y-1051763D01*
X5158486Y-992479D01*
X5157622Y-979779D01*
X5155133Y-967689D01*
X5150967Y-956056D01*
X5145328Y-945134D01*
X5138166Y-935024D01*
X5129733Y-925982D01*
X5120182Y-918210D01*
X5109616Y-911809D01*
X5098288Y-906881D01*
X5086400Y-903528D01*
X5074158Y-901852D01*
X5061813Y-901852D01*
X5049570Y-903528D01*
X5037683Y-906881D01*
X5026355Y-911809D01*
X5015839Y-918210D01*
X5006238Y-925982D01*
X4997805Y-935024D01*
X4990693Y-945134D01*
X4985004Y-956056D01*
X4980889Y-967689D01*
X4978349Y-979779D01*
X4977485Y-992479D01*
X4977485Y-1051763D01*
X4978349Y-1064463D01*
X4980889Y-1076553D01*
X4985004Y-1088186D01*
X4990693Y-1099159D01*
X4997805Y-1109218D01*
X5006238Y-1118260D01*
X5015839Y-1126032D01*
X5026355Y-1132433D01*
X5037683Y-1137361D01*
X5049570Y-1140714D01*
G37*
G36*
X2552700Y-1069492D02*
G01*
X2566466Y-1068578D01*
X2579979Y-1065885D01*
X2593086Y-1061466D01*
X2605430Y-1055370D01*
X2616911Y-1047699D01*
X2627274Y-1038606D01*
X2636367Y-1028192D01*
X2644038Y-1016762D01*
X2650134Y-1004366D01*
X2654604Y-991311D01*
X2657297Y-977747D01*
X2658211Y-963676D01*
X2658211Y-814324D01*
X2657297Y-800252D01*
X2654604Y-786688D01*
X2650134Y-773633D01*
X2644038Y-761238D01*
X2636367Y-749808D01*
X2627274Y-739394D01*
X2616911Y-730300D01*
X2605430Y-722630D01*
X2593086Y-716534D01*
X2579979Y-712114D01*
X2566466Y-709422D01*
X2552700Y-708507D01*
X2538933Y-709422D01*
X2525420Y-712114D01*
X2512314Y-716534D01*
X2499969Y-722630D01*
X2488488Y-730300D01*
X2478125Y-739394D01*
X2469032Y-749808D01*
X2461361Y-761238D01*
X2455265Y-773633D01*
X2450795Y-786688D01*
X2448102Y-800252D01*
X2447188Y-814324D01*
X2447188Y-963676D01*
X2448102Y-977747D01*
X2450795Y-991311D01*
X2455265Y-1004366D01*
X2461361Y-1016762D01*
X2469032Y-1028192D01*
X2478125Y-1038606D01*
X2488488Y-1047699D01*
X2499969Y-1055370D01*
X2512314Y-1061466D01*
X2525420Y-1065885D01*
X2538933Y-1068578D01*
G37*
G36*
X2806700Y-1069492D02*
G01*
X2820466Y-1068578D01*
X2833979Y-1065885D01*
X2847086Y-1061466D01*
X2859430Y-1055370D01*
X2870911Y-1047699D01*
X2881274Y-1038606D01*
X2890367Y-1028192D01*
X2898038Y-1016762D01*
X2904134Y-1004366D01*
X2908604Y-991311D01*
X2911297Y-977747D01*
X2912211Y-963676D01*
X2912211Y-814324D01*
X2911297Y-800252D01*
X2908604Y-786688D01*
X2904134Y-773633D01*
X2898038Y-761238D01*
X2890367Y-749808D01*
X2881274Y-739394D01*
X2870911Y-730300D01*
X2859430Y-722630D01*
X2847086Y-716534D01*
X2833979Y-712114D01*
X2820466Y-709422D01*
X2806700Y-708507D01*
X2792933Y-709422D01*
X2779420Y-712114D01*
X2766314Y-716534D01*
X2753969Y-722630D01*
X2742488Y-730300D01*
X2732125Y-739394D01*
X2723032Y-749808D01*
X2715361Y-761238D01*
X2709265Y-773633D01*
X2704795Y-786688D01*
X2702102Y-800252D01*
X2701188Y-814324D01*
X2701188Y-963676D01*
X2702102Y-977747D01*
X2704795Y-991311D01*
X2709265Y-1004366D01*
X2715361Y-1016762D01*
X2723032Y-1028192D01*
X2732125Y-1038606D01*
X2742488Y-1047699D01*
X2753969Y-1055370D01*
X2766314Y-1061466D01*
X2779420Y-1065885D01*
X2792933Y-1068578D01*
G37*
G36*
X5836615Y-961034D02*
G01*
X6075578Y-961034D01*
X6082030Y-960374D01*
X6087770Y-958646D01*
X6093002Y-955802D01*
X6097625Y-952042D01*
X6101435Y-947419D01*
X6104229Y-942136D01*
X6105956Y-936447D01*
X6106617Y-929995D01*
X6106617Y-721004D01*
X6105956Y-714552D01*
X6104229Y-708863D01*
X6101435Y-703580D01*
X6097625Y-698957D01*
X6093002Y-695198D01*
X6087770Y-692353D01*
X6082030Y-690626D01*
X6075578Y-690016D01*
X6009436Y-690016D01*
X6005525Y-689203D01*
X6002223Y-687019D01*
X6000038Y-683717D01*
X5999276Y-679856D01*
X5999226Y-608279D01*
X5998057Y-600049D01*
X5995568Y-592480D01*
X5991707Y-585520D01*
X5986322Y-579018D01*
X5845962Y-438200D01*
X5839256Y-433171D01*
X5833110Y-430022D01*
X5830519Y-428040D01*
X5828639Y-425399D01*
X5823966Y-415696D01*
X5816244Y-403809D01*
X5807049Y-393039D01*
X5796584Y-383540D01*
X5784951Y-375412D01*
X5772404Y-368858D01*
X5759145Y-363982D01*
X5745327Y-360832D01*
X5731256Y-359460D01*
X5717082Y-359918D01*
X5703112Y-362204D01*
X5689549Y-366217D01*
X5676595Y-371957D01*
X5664504Y-379272D01*
X5653430Y-388112D01*
X5643575Y-398272D01*
X5635091Y-409651D01*
X5628132Y-421944D01*
X5622848Y-435101D01*
X5619242Y-448767D01*
X5617464Y-462838D01*
X5617464Y-476961D01*
X5619242Y-491032D01*
X5622848Y-504698D01*
X5628132Y-517855D01*
X5635091Y-530148D01*
X5643575Y-541528D01*
X5653430Y-551688D01*
X5664504Y-560527D01*
X5676595Y-567842D01*
X5689549Y-573582D01*
X5703112Y-577596D01*
X5717082Y-579882D01*
X5731256Y-580339D01*
X5745327Y-578967D01*
X5759145Y-575818D01*
X5772404Y-570941D01*
X5784951Y-564388D01*
X5796584Y-556260D01*
X5807049Y-546760D01*
X5811469Y-541578D01*
X5814771Y-538988D01*
X5818835Y-537972D01*
X5822950Y-538683D01*
X5826404Y-540969D01*
X5909868Y-624738D01*
X5912053Y-628040D01*
X5912866Y-631901D01*
X5912866Y-679856D01*
X5912053Y-683717D01*
X5909868Y-687019D01*
X5906566Y-689203D01*
X5902706Y-690016D01*
X5836615Y-690016D01*
X5830163Y-690626D01*
X5824423Y-692353D01*
X5819190Y-695198D01*
X5814568Y-698957D01*
X5810758Y-703580D01*
X5807964Y-708863D01*
X5806236Y-714552D01*
X5805576Y-721004D01*
X5805576Y-929995D01*
X5806236Y-936447D01*
X5807964Y-942136D01*
X5810758Y-947419D01*
X5814568Y-952042D01*
X5819190Y-955802D01*
X5824423Y-958646D01*
X5830163Y-960374D01*
G37*
G36*
X5061813Y-734415D02*
G01*
X5074158Y-734415D01*
X5086400Y-732739D01*
X5098288Y-729386D01*
X5109616Y-724458D01*
X5120182Y-718058D01*
X5129733Y-710234D01*
X5138166Y-701243D01*
X5145328Y-691134D01*
X5150967Y-680161D01*
X5155133Y-668528D01*
X5157622Y-656437D01*
X5158486Y-643788D01*
X5158486Y-564489D01*
X5157622Y-551789D01*
X5155133Y-539699D01*
X5150967Y-528066D01*
X5145328Y-517093D01*
X5138166Y-507034D01*
X5129733Y-497992D01*
X5120182Y-490220D01*
X5109616Y-483768D01*
X5098288Y-478891D01*
X5086400Y-475538D01*
X5074158Y-473862D01*
X5061813Y-473862D01*
X5049570Y-475538D01*
X5037683Y-478891D01*
X5026355Y-483768D01*
X5015839Y-490220D01*
X5006238Y-497992D01*
X4997805Y-507034D01*
X4990693Y-517093D01*
X4985004Y-528066D01*
X4980889Y-539699D01*
X4978349Y-551789D01*
X4977485Y-564489D01*
X4977485Y-588314D01*
X4976622Y-592429D01*
X4974132Y-595884D01*
X4970475Y-597966D01*
X4966258Y-598424D01*
X4962245Y-597103D01*
X4954625Y-592734D01*
X4944414Y-588822D01*
X4933696Y-586638D01*
X4922774Y-586232D01*
X4911902Y-587502D01*
X4901387Y-590550D01*
X4891481Y-595274D01*
X4882489Y-601472D01*
X4874615Y-609041D01*
X4868062Y-617778D01*
X4862982Y-627481D01*
X4859477Y-637844D01*
X4857750Y-648665D01*
X4857750Y-659587D01*
X4859477Y-670407D01*
X4862982Y-680770D01*
X4868062Y-690473D01*
X4874615Y-699211D01*
X4882489Y-706780D01*
X4891481Y-712978D01*
X4901387Y-717702D01*
X4911902Y-720750D01*
X4922774Y-722020D01*
X4933696Y-721614D01*
X4944414Y-719429D01*
X4954625Y-715518D01*
X4964125Y-710082D01*
X4972558Y-703173D01*
X4978857Y-696061D01*
X4981752Y-693826D01*
X4985207Y-692708D01*
X4988864Y-692912D01*
X4992166Y-694385D01*
X4994757Y-696925D01*
X4997805Y-701243D01*
X5006238Y-710234D01*
X5015839Y-718058D01*
X5026355Y-724458D01*
X5037683Y-729386D01*
X5049570Y-732739D01*
G37*
G36*
X4196842Y-734415D02*
G01*
X4209186Y-734415D01*
X4221429Y-732739D01*
X4233316Y-729386D01*
X4244644Y-724458D01*
X4255160Y-718058D01*
X4264761Y-710234D01*
X4273194Y-701243D01*
X4276293Y-696874D01*
X4278985Y-694232D01*
X4282541Y-692759D01*
X4286300Y-692708D01*
X4289856Y-694080D01*
X4292701Y-696620D01*
X4294632Y-699211D01*
X4302506Y-706780D01*
X4311497Y-712978D01*
X4321403Y-717702D01*
X4331919Y-720750D01*
X4342790Y-722020D01*
X4353712Y-721614D01*
X4364431Y-719429D01*
X4374642Y-715518D01*
X4384141Y-710082D01*
X4392574Y-703173D01*
X4399838Y-694944D01*
X4405680Y-685698D01*
X4409998Y-675640D01*
X4412589Y-665022D01*
X4413504Y-654151D01*
X4412589Y-643229D01*
X4409998Y-632612D01*
X4405680Y-622554D01*
X4399838Y-613308D01*
X4392574Y-605078D01*
X4384141Y-598170D01*
X4374642Y-592734D01*
X4364431Y-588822D01*
X4353712Y-586638D01*
X4342790Y-586232D01*
X4331919Y-587502D01*
X4321403Y-590550D01*
X4311497Y-595274D01*
X4309465Y-596696D01*
X4305401Y-598373D01*
X4300982Y-598119D01*
X4297121Y-596087D01*
X4294479Y-592632D01*
X4293514Y-588314D01*
X4293514Y-564489D01*
X4292650Y-551789D01*
X4290110Y-539699D01*
X4285996Y-528066D01*
X4280306Y-517093D01*
X4273194Y-507034D01*
X4264761Y-497992D01*
X4255160Y-490220D01*
X4244644Y-483768D01*
X4233316Y-478891D01*
X4221429Y-475538D01*
X4209186Y-473862D01*
X4196842Y-473862D01*
X4184599Y-475538D01*
X4172712Y-478891D01*
X4161383Y-483768D01*
X4150817Y-490220D01*
X4141266Y-497992D01*
X4132834Y-507034D01*
X4125671Y-517093D01*
X4120032Y-528066D01*
X4115866Y-539699D01*
X4113377Y-551789D01*
X4112514Y-564489D01*
X4112514Y-643788D01*
X4113377Y-656437D01*
X4115866Y-668528D01*
X4120032Y-680161D01*
X4125671Y-691134D01*
X4132834Y-701243D01*
X4141266Y-710234D01*
X4150817Y-718058D01*
X4161383Y-724458D01*
X4172712Y-729386D01*
X4184599Y-732739D01*
G37*
G36*
X2298700Y-589280D02*
G01*
X2312619Y-588365D01*
X2326335Y-585673D01*
X2339543Y-581152D01*
X2352040Y-575005D01*
X2363622Y-567232D01*
X2374138Y-558038D01*
X2383332Y-547522D01*
X2391105Y-535940D01*
X2397252Y-523443D01*
X2401773Y-510235D01*
X2404465Y-496519D01*
X2405430Y-482244D01*
X2405430Y-381355D01*
X2404465Y-367080D01*
X2401773Y-353364D01*
X2397252Y-340156D01*
X2391105Y-327660D01*
X2383332Y-316077D01*
X2374138Y-305562D01*
X2363622Y-296367D01*
X2352040Y-288594D01*
X2339543Y-282448D01*
X2326335Y-277926D01*
X2312619Y-275234D01*
X2298700Y-274320D01*
X2284780Y-275234D01*
X2271064Y-277926D01*
X2257856Y-282448D01*
X2245360Y-288594D01*
X2233777Y-296367D01*
X2223262Y-305562D01*
X2214067Y-316077D01*
X2206294Y-327660D01*
X2200148Y-340156D01*
X2195626Y-353364D01*
X2192934Y-367080D01*
X2192020Y-381355D01*
X2192020Y-482244D01*
X2192934Y-496519D01*
X2195626Y-510235D01*
X2200148Y-523443D01*
X2206294Y-535940D01*
X2214067Y-547522D01*
X2223262Y-558038D01*
X2233777Y-567232D01*
X2245360Y-575005D01*
X2257856Y-581152D01*
X2271064Y-585673D01*
X2284780Y-588365D01*
G37*

%LPD*%
D10*
X3505200Y3384804D02*
G01*
X3372104Y3384804D01*
X3238500Y3251200D01*
X3238500Y2070100D01*
X3390900Y1917700D01*
X3394963Y1921763D01*
X3674109Y1921763D01*
X1803400Y419100D02*
G01*
X1803400Y-76200D01*
X1905000Y-177800D01*
X2336800Y-177800D01*
X2489200Y-330200D01*
X2489200Y-482600D01*
X2641600Y-635000D01*
X3111500Y-635000D01*
X3302254Y-825500D01*
X1879600Y1676400D02*
G01*
X1879600Y2882900D01*
X1943100Y2946400D01*
X3110743Y2946400D01*
X3225800Y2831337D01*
X5727700Y-469900D02*
G01*
X5816600Y-469900D01*
X5956045Y-609854D01*
X5956045Y-825500D01*
X5444490Y1794763D02*
G01*
X5863336Y1794763D01*
X6032500Y1625600D01*
X6032500Y76200D01*
X6477000Y-368300D01*
X6477000Y-508000D01*
X6223000Y-508000D02*
G01*
X6223000Y-279400D01*
X5956300Y-12700D01*
X5956300Y1511300D01*
X5799836Y1667763D01*
X5444490Y1667763D01*
X5444363Y1921738D02*
G01*
X5977661Y1921738D01*
X5981700Y1917700D01*
X2552700Y1689100D02*
G01*
X2552700Y1181100D01*
X3340100Y393700D01*
X3340100Y-12700D01*
X3594100Y-266700D01*
X5626100Y-266700D01*
X5816600Y-76200D01*
X5816600Y1104900D01*
X5634756Y1286736D01*
X5444368Y1286736D01*
X3674231Y905736D02*
G01*
X3496536Y905736D01*
X3416300Y825500D01*
X3674236Y1032738D02*
G01*
X3488461Y1032738D01*
X3416300Y1104900D01*
X5444368Y1540736D02*
G01*
X5749069Y1540736D01*
X5892800Y1397000D01*
X5892800Y-190500D01*
X5994400Y-292100D01*
D11*
X3674236Y524738D02*
G01*
X3632200Y482701D01*
X3632200Y203200D01*
D10*
X2768600Y1676400D02*
G01*
X2768600Y1092200D01*
X3467100Y393700D01*
X3467100Y-25400D01*
X3632200Y-190500D01*
X5588000Y-190500D01*
X5727700Y-50800D01*
X5727700Y1028700D01*
X5596636Y1159763D01*
X5444490Y1159763D01*
X5486400Y-12700D02*
G01*
X5549900Y-12700D01*
X5626100Y63500D01*
X5626100Y406400D01*
X5507761Y524738D01*
X5444363Y524738D01*
X5486400Y215900D02*
G01*
X5372100Y215900D01*
X5283200Y304800D01*
X5283200Y558800D01*
X5376138Y651738D01*
X5444363Y651738D01*
X3111500Y2362200D02*
G01*
X3111500Y1752600D01*
X3323361Y1540738D01*
X3674236Y1540738D01*
X3784600Y3414699D02*
G01*
X3754602Y3384702D01*
X3505200Y3384702D01*
X3674236Y2175738D02*
G01*
X3479800Y2175738D01*
X3479800Y2184400D01*
X3416300Y2247900D01*
X3416300Y3187700D01*
X3473297Y3244697D01*
X3505200Y3244697D01*
D12*
G01*
X3962196Y-825500D03*
G01*
X3302203Y-825500D03*
G01*
X5296103Y-825500D03*
G01*
X5956096Y-825500D03*
D13*
G01*
X6763410Y-38100D03*
G01*
X7003389Y-38100D03*
D14*
G01*
X3784600Y3214695D03*
D15*
G01*
X3784600Y3414699D03*
D16*
G01*
X3505200Y3244697D03*
G01*
X3505200Y3384702D03*
D17*
G01*
X3175000Y354002D03*
D18*
G01*
X3175000Y154000D03*
D17*
G01*
X2146300Y315902D03*
D18*
G01*
X2146300Y115900D03*
D19*
G01*
X2475102Y-4089D03*
G01*
X2705100Y-4089D03*
G01*
X2935097Y-4089D03*
D20*
G01*
X2705100Y562899D03*
D21*
G01*
X3674236Y1794738D03*
G01*
X3674236Y1667738D03*
G01*
X3674236Y1540738D03*
G01*
X3674236Y1413738D03*
G01*
X3674236Y1286738D03*
G01*
X3674236Y1159738D03*
G01*
X3674236Y1032738D03*
G01*
X3674236Y905738D03*
D22*
G01*
X5133340Y389661D03*
D21*
G01*
X5444363Y524738D03*
G01*
X5444363Y651738D03*
G01*
X5444363Y778738D03*
G01*
X5444363Y905738D03*
G01*
X5444363Y1032738D03*
G01*
X5444363Y1159738D03*
G01*
X5444363Y1286738D03*
D22*
G01*
X4244340Y389661D03*
D21*
G01*
X3674236Y778738D03*
G01*
X3674236Y651738D03*
G01*
X3674236Y524738D03*
D22*
G01*
X3990340Y389661D03*
G01*
X4117340Y389661D03*
D21*
G01*
X3674236Y1921738D03*
G01*
X3674236Y2048738D03*
G01*
X3674236Y2175738D03*
D22*
G01*
X4371340Y389661D03*
G01*
X4498340Y389661D03*
G01*
X4625340Y389661D03*
G01*
X5006340Y389661D03*
G01*
X4879340Y389661D03*
G01*
X4752340Y389661D03*
D21*
G01*
X5444363Y1413738D03*
G01*
X5444363Y1540738D03*
G01*
X5444363Y1667738D03*
G01*
X5444363Y1794738D03*
G01*
X5444363Y1921738D03*
G01*
X5444363Y2048738D03*
G01*
X5444363Y2175738D03*
D23*
G01*
X4489272Y1434668D03*
D24*
G01*
X2679700Y-431800D03*
G01*
X2298700Y-431800D03*
G01*
X3060700Y1346200D03*
G01*
X2298700Y1346200D03*
D25*
G01*
X4202988Y-1022095D03*
D26*
G01*
X4202988Y-604113D03*
G01*
X5068011Y-604113D03*
D25*
G01*
X5068011Y-1022095D03*
D27*
G01*
X1955800Y977900D03*
G01*
X1955800Y723900D03*
D28*
G01*
X6235700Y558927D03*
G01*
X6489700Y558927D03*
G01*
X6743700Y558927D03*
G01*
X6997700Y558927D03*
G01*
X6235700Y1219327D03*
G01*
X6489700Y1219327D03*
G01*
X6743700Y1219327D03*
G01*
X6997700Y1219327D03*
G01*
X6235700Y1879727D03*
G01*
X6489700Y1879727D03*
G01*
X6743700Y1879727D03*
G01*
X6997700Y1879727D03*
G01*
X2794000Y2082800D03*
G01*
X2540000Y2082800D03*
G01*
X2286000Y2082800D03*
G01*
X2032000Y2082800D03*
D29*
G01*
X5905500Y2590800D03*
G01*
X6159500Y2590800D03*
G01*
X6413500Y2590800D03*
D27*
G01*
X2032000Y2743200D03*
G01*
X2286000Y2743200D03*
G01*
X2540000Y2743200D03*
G01*
X2794000Y2743200D03*
D30*
G01*
X3048000Y2743200D03*
D31*
G01*
X6223000Y-508000D03*
G01*
X6477000Y-508000D03*
G01*
X6731000Y-508000D03*
G01*
X6985000Y-508000D03*
G01*
X2552700Y-889000D03*
G01*
X2806700Y-889000D03*
D28*
G01*
X2768600Y1676400D03*
G01*
X2552700Y1689100D03*
G01*
X3416300Y1104900D03*
G01*
X3416300Y825500D03*
G01*
X5994400Y-292100D03*
G01*
X5486400Y-12700D03*
G01*
X5981700Y1917700D03*
G01*
X6743700Y2870200D03*
G01*
X6743700Y2628900D03*
G01*
X6743700Y2387600D03*
G01*
X7073900Y2870200D03*
G01*
X7073900Y2628900D03*
G01*
X7073900Y2387600D03*
D32*
G01*
X2032000Y3302000D03*
G01*
X2032000Y-889000D03*
G01*
X7239000Y3302000D03*
G01*
X7239000Y-889000D03*
D28*
G01*
X3632200Y203200D03*
G01*
X3111500Y2362200D03*
G01*
X5486400Y215900D03*
G01*
X6273800Y2235200D03*
D33*
G01*
X3352800Y2133600D03*
G01*
X3479800Y2044700D03*
D28*
G01*
X5727700Y-469900D03*
G01*
X1803400Y419100D03*
G01*
X1879600Y1676400D03*
M02*
